G04 ================== begin FILE IDENTIFICATION RECORD ==================*
G04 Layout Name:  F:/MyJob/PoF_TMR_A1/PCB/PoF_TMR_A1-JAN-21-26.brd*
G04 Film Name:    BOTTOM*
G04 File Format:  Gerber RS274X*
G04 File Origin:  Cadence Allegro 22.1-P001*
G04 Origin Date:  Wed Jan 21 15:19:45 2026*
G04 *
G04 Layer:  ETCH/BOTTOM*
G04 Layer:  PIN/BOTTOM*
G04 Layer:  VIA CLASS/BOTTOM*
G04 *
G04 Offset:    (0.0000 0.0000)*
G04 Mirror:    No*
G04 Mode:      Positive*
G04 Rotation:  0*
G04 FullContactRelief:  No*
G04 UndefLineWidth:     0.2540*
G04 ================== end FILE IDENTIFICATION RECORD ====================*
%FSLAX25Y25*MOIN*%
%IR0*IPPOS*OFA0.00000B0.00000*MIA0B0*SFA1.00000B1.00000*%
%ADD23R,.011811X.059055*%
%ADD26R,.05X.020079*%
%ADD11R,.086614X.029134*%
%ADD21R,.020079X.05*%
%ADD12C,.015748*%
%ADD19R,.125984X.102362*%
%ADD22R,.070866X.059055*%
%ADD20C,.03937*%
%ADD25R,.019685X.023622*%
%ADD14C,.047244*%
%ADD18R,.031496X.023622*%
%ADD10C,.090551*%
%ADD16R,.023622X.031496*%
%ADD13C,.059055*%
%ADD24R,.035433X.031496*%
%ADD17R,.031496X.035433*%
%ADD15C,.070866*%
%ADD27C,.007874*%
%ADD28C,.011811*%
%ADD29C,.019685*%
%ADD30C,.023622*%
%ADD31C,.009843*%
%ADD32C,.006299*%
%ADD33C,.007087*%
G75*
%LPD*%
G75*
G36*
G01X322441Y-79921D02*
X331496D01*
Y-100787D01*
X323622D01*
Y-89370D01*
X322441Y-88189D01*
Y-79921D01*
G37*
G36*
G01X336220Y-29921D02*
X346063D01*
Y-97244D01*
X336220D01*
Y-29921D01*
G37*
G54D10*
X11811Y-106299D03*
Y-11811D03*
X342520Y-106299D03*
Y-11811D03*
G54D20*
X131417Y-92677D03*
Y-82677D03*
X141417Y-92677D03*
Y-82677D03*
X151417Y-92677D03*
Y-82677D03*
X161417Y-92677D03*
Y-82677D03*
X192441Y-92677D03*
Y-82677D03*
X202441Y-92677D03*
Y-82677D03*
X212441Y-92677D03*
Y-82677D03*
X222441Y-92677D03*
Y-82677D03*
G54D11*
X13780Y-86496D03*
Y-81496D03*
Y-76496D03*
Y-71496D03*
Y-66496D03*
Y-61496D03*
Y-56496D03*
Y-51496D03*
Y-46496D03*
Y-41496D03*
Y-36496D03*
Y-31496D03*
X27559Y-86496D03*
Y-81496D03*
Y-76496D03*
Y-71496D03*
Y-66496D03*
Y-61496D03*
Y-56496D03*
Y-51496D03*
Y-46496D03*
Y-41496D03*
Y-36496D03*
Y-31496D03*
X326772Y-86496D03*
Y-81496D03*
Y-76496D03*
Y-71496D03*
Y-66496D03*
Y-61496D03*
Y-56496D03*
Y-51496D03*
Y-46496D03*
Y-41496D03*
Y-36496D03*
Y-31496D03*
X340551Y-86496D03*
Y-81496D03*
Y-76496D03*
Y-71496D03*
Y-66496D03*
Y-61496D03*
Y-56496D03*
Y-51496D03*
Y-46496D03*
Y-41496D03*
Y-36496D03*
Y-31496D03*
G54D30*
G01X133465Y-100000D02*
X137795D01*
G03X141417Y-96378I0J3622D01*
G01Y-92677D01*
G01X151417D02*
X141417D01*
G01X151417Y-82677D02*
Y-92677D01*
G01X202441D02*
X212441D01*
G01D02*
Y-96693D01*
G03X215787Y-100039I3346J0D01*
G01X220866D01*
G01X212441Y-92677D02*
Y-82677D01*
G54D12*
G01X60236Y-103937D02*
X63205Y-100969D01*
G02X64973Y-100236I1768J-1768D01*
G01X95381D01*
G03X97150Y-99504I0J2501D01*
G01X100843Y-95811D01*
G02X102611Y-95079I1768J-1768D01*
G01X110276D01*
G01X70079Y-64567D02*
X85039D01*
X88976Y-60630D01*
X96457D01*
G01X64567Y-27559D02*
Y-24016D01*
G01Y-27559D02*
Y-31102D01*
G01Y-27559D02*
X67717D01*
G01X84252Y-37008D02*
X81172D01*
X80384Y-37795D01*
X78846D01*
G01X84252Y-31496D02*
Y-37008D01*
G01X88189D02*
X93541D01*
X94131Y-36417D01*
X95669D01*
G01X88189Y-31496D02*
Y-37008D01*
G01X84252Y-20472D02*
Y-25984D01*
G01X88189D02*
Y-31496D01*
G01X84252Y-16142D02*
Y-20472D01*
G01X89764D02*
X93417D01*
G02X94574Y-20952I0J-1637D01*
G01X95276Y-21654D01*
G01X100000Y-105906D02*
X103825D01*
G03X109393Y-103599I0J7875D01*
G01X110761Y-102231D01*
G02X115197Y-100394I4436J-4436D01*
G01X118110D01*
G01X100394Y-33858D02*
X101929D01*
G02X104013Y-34722I0J-2947D01*
G01X104394Y-35103D01*
G03X106142Y-35827I1748J1747D01*
G01X107480D01*
G01X100394Y-29921D02*
X96850D01*
X95276Y-28346D01*
G01D02*
Y-24803D01*
G01D02*
Y-21654D01*
G01X114961Y-33858D02*
X113228D01*
G02X110809Y-32856I0J3422D01*
G01X110033Y-32081D01*
G03X108622Y-31496I-1411J-1411D01*
G01X107480D01*
G01Y-35827D02*
Y-31496D01*
G01X118110Y-94882D02*
Y-100394D01*
G01X122047D02*
X122441Y-100000D01*
X125591D01*
G01X122047Y-94882D02*
X123228D01*
X125591Y-97244D01*
G01X114961Y-33858D02*
Y-36575D01*
G03X116659Y-40675I5798J0D01*
G01X118610Y-42626D01*
G01X127165Y-36969D02*
X121774D01*
X121223Y-36417D01*
X119685D01*
G01X120866Y-21654D02*
Y-24803D01*
G01D02*
Y-27953D01*
G01X114961Y-29921D02*
X118898D01*
X120866Y-27953D01*
G01X125984Y-20472D02*
X122725D01*
G03X121568Y-20952I0J-1637D01*
G01X120866Y-21654D01*
G01X129528Y-100000D02*
X125591D01*
G01Y-97244D02*
X129097D01*
X129528Y-97675D01*
Y-100000D01*
G01X125591Y-102756D02*
X129097D01*
X129528Y-102325D01*
Y-100000D01*
G01X131083Y-31496D02*
Y-34624D01*
X131102Y-34643D01*
Y-36969D01*
G01X136220Y-37795D02*
X133861D01*
X133034Y-36969D01*
X131102D01*
G01X127165D02*
Y-33841D01*
X127146Y-33821D01*
Y-31496D01*
G01X131496Y-20472D02*
Y-22994D01*
X131142Y-23349D01*
Y-26024D01*
G01X127146Y-31496D02*
Y-28408D01*
X127205Y-28349D01*
Y-26024D01*
G01X131496Y-16535D02*
Y-20472D01*
G01X136650Y-76244D02*
Y-72476D01*
G01X146457Y-62205D02*
Y-67058D01*
G02X145434Y-69527I-3492J0D01*
G01X145212Y-69749D01*
G03X144189Y-72218I2469J-2469D01*
G01Y-76244D01*
G01X140492Y-65584D02*
Y-81752D01*
X141417Y-82677D01*
G01X146457Y-58268D02*
X142913D01*
G01X148461Y-76244D02*
Y-72457D01*
G01X156000Y-76244D02*
Y-64866D01*
G02X158268Y-62598I2268J0D01*
G01X162992D01*
G01X146457Y-62205D02*
X150000D01*
G02X152303Y-64508I0J-2303D01*
G01Y-65584D01*
G01X146457Y-58268D02*
X150000D01*
G01X153957Y-31496D02*
Y-33821D01*
X153937Y-33841D01*
Y-37008D01*
G01D02*
X154331Y-37402D01*
Y-41248D01*
G01X153937Y-20472D02*
Y-22994D01*
X153898Y-23034D01*
Y-25984D01*
G01X153937Y-16535D02*
Y-20472D01*
G01X163122Y-104224D02*
X158291D01*
G01X164961Y-36417D02*
X162402D01*
X161811Y-37008D01*
X157874D01*
G01D02*
Y-33841D01*
X157894Y-33821D01*
Y-31496D01*
G01X164961Y-24803D02*
Y-27719D01*
G01Y-21654D02*
Y-24803D01*
G01X170079Y-29921D02*
X165625D01*
X164961Y-29257D01*
Y-27719D01*
G01X157894Y-31496D02*
Y-28369D01*
X157835Y-28309D01*
Y-25984D01*
G01X159449Y-20472D02*
X163102D01*
G02X164259Y-20952I0J-1637D01*
G01X164961Y-21654D01*
G01X170079Y-33858D02*
X173962D01*
G02X176070Y-34731I0J-2981D01*
G01X177165Y-35827D01*
G01X184646Y-33858D02*
X181041D01*
G02X178457Y-32788I0J3653D01*
G01X177165Y-31496D01*
G01X184646Y-29921D02*
X188976D01*
X190157Y-28740D01*
G01X190878Y-104224D02*
X195709D01*
G01X197673Y-76244D02*
Y-72476D01*
G01X196457Y-36969D02*
X192874D01*
X192323Y-36417D01*
X189370D01*
G01X196457Y-36969D02*
Y-33841D01*
X196437Y-33821D01*
Y-31496D01*
G01X190157Y-28740D02*
Y-25591D01*
G01D02*
Y-22047D01*
G01X194882Y-20472D02*
X192689D01*
G03X191056Y-21149I0J-2309D01*
G01X190157Y-22047D01*
G01X196437Y-31496D02*
Y-28408D01*
X196496Y-28349D01*
Y-26024D01*
G01X209484Y-76244D02*
Y-72441D01*
G01X207480Y-62205D02*
Y-67058D01*
G02X206457Y-69527I-3492J0D01*
G01X206235Y-69749D01*
G03X205213Y-72218I2469J-2469D01*
G01Y-76244D01*
G01X201516Y-65584D02*
Y-81752D01*
X202441Y-82677D01*
G01X207480Y-58268D02*
X211024D01*
G01X207480D02*
X203937D01*
G01X207480Y-62205D02*
X211444D01*
G02X213327Y-64088I0J-1883D01*
G01Y-65584D01*
G01X200374Y-31496D02*
Y-33821D01*
X200394Y-33841D01*
Y-36969D01*
G01X205906Y-37402D02*
X202758D01*
X202325Y-36969D01*
X200394D01*
G01Y-20472D02*
Y-22994D01*
X200433Y-23034D01*
Y-26024D01*
G01X200394Y-16142D02*
Y-20472D01*
G01X217024Y-76244D02*
Y-65260D01*
G02X219685Y-62598I2661J0D01*
G01X224016D01*
G01X224803Y-100039D02*
X228307D01*
G01X228346Y-97638D02*
X225197D01*
X224803Y-98031D01*
Y-100039D01*
G01X228346Y-102362D02*
X225591D01*
X224803Y-101575D01*
Y-100039D01*
G01X232283Y-100000D02*
X229884D01*
X229845Y-100039D01*
X228307D01*
G01X228346Y-97638D02*
Y-96850D01*
G02X230709Y-94488I2362J0D01*
G01X232283D01*
G01X236220D02*
Y-100000D01*
G01D02*
X240980D01*
G03X243582Y-98922I0J3680D01*
G01X244882Y-97622D01*
G01X240551Y-65748D02*
Y-61457D01*
G02X242165Y-59843I1614J0D01*
G01X244094D01*
G01X245276Y-94094D02*
Y-97228D01*
X244882Y-97622D01*
G01X245276Y-90157D02*
Y-86454D01*
X246850Y-84880D01*
G01X250787Y-72441D02*
X251929D01*
G03X253341Y-71856I0J1996D01*
G01X256299Y-68898D01*
G01X251969Y-52362D02*
Y-55512D01*
X252567Y-56110D01*
X254724D01*
G01X251181Y-46063D02*
Y-44724D01*
G02X251905Y-42977I2471J0D01*
G01X253150Y-41732D01*
G01X251969Y-52362D02*
X257480D01*
G01X253937Y-81535D02*
Y-78543D01*
G01X262205Y-68898D02*
X264398D01*
G03X266031Y-68221I0J2309D01*
G01X266929Y-67323D01*
G01X260236Y-73622D02*
X257087D01*
G01X276378Y-71654D02*
X275236D01*
G03X273825Y-72238I0J-1996D01*
G01X273314Y-72749D01*
G02X271206Y-73622I-2108J2107D01*
G01X260236D01*
G01X257480Y-52362D02*
Y-56110D01*
G01X254724D02*
X257480D01*
G01X262205Y-64961D02*
X256299D01*
G01X270079Y-53543D02*
X265245D01*
G02X264087Y-53064I0J1637D01*
G01X263865Y-52842D01*
G03X262708Y-52362I-1157J-1157D01*
G01X261417D01*
G01X259843Y-43701D02*
X261417D01*
X261811Y-44094D01*
X263386D01*
G01X255118Y-46063D02*
X258661D01*
G01X254331Y-35039D02*
Y-38583D01*
G01X261811Y-31102D02*
X264567D01*
X265840Y-32375D01*
G01X254331Y-31102D02*
X261811D01*
G01D02*
Y-15354D01*
G02X264961Y-12205I3150J0D01*
G01X271260D01*
G01X273622Y-101969D02*
X279134D01*
G01X273622D02*
X267498D01*
X267392Y-101862D01*
X265854D01*
G01X273622Y-105906D02*
X279134D01*
G01X266535Y-50394D02*
Y-48031D01*
X267323Y-47244D01*
Y-44094D01*
G01X271260Y-12205D02*
Y-14815D01*
X271443Y-14998D01*
Y-16535D01*
G01X279134Y-105906D02*
X284646D01*
G01X283071Y-67323D02*
X283969Y-68221D01*
G03X285602Y-68898I1633J1632D01*
G01X288583D01*
G01Y-46457D02*
X284252D01*
X283465Y-47244D01*
Y-50394D01*
G01X275197Y-12205D02*
Y-14815D01*
X275380Y-14998D01*
Y-16535D01*
G01X282677Y-12205D02*
X275197D01*
G01X288583Y-68898D02*
Y-66535D01*
X289370Y-65748D01*
X295276D01*
G01X293165Y-60094D02*
Y-58661D01*
X293701Y-58126D01*
X296315D01*
G01X294488Y-46457D02*
X288583D01*
G01X294488Y-50394D02*
Y-51969D01*
X296063Y-53543D01*
Y-54189D01*
G01X294488Y-50394D02*
X288583D01*
G01D02*
Y-51900D01*
G03X289188Y-53361I2067J0D01*
G01X289410Y-53583D01*
G03X290872Y-54189I1462J1461D01*
G01X292772D01*
G01X292913Y-33071D02*
X296063D01*
G01X297474Y-17382D02*
X295047D01*
X294094Y-16429D01*
Y-14961D01*
X295276Y-13780D01*
G01X289724Y-21260D02*
Y-17756D01*
G01D02*
X289764Y-17717D01*
Y-15748D01*
X286614Y-12598D01*
Y-12205D01*
G01X302256Y-74516D02*
Y-72980D01*
G02X303119Y-70896I2947J0D01*
G01X305575Y-68441D01*
G03X306299Y-66693I-1747J1748D01*
G01Y-65354D01*
G01X302256Y-74516D02*
X304259D01*
G03X305544Y-73983I0J1818D01*
G01X305767Y-73761D01*
G02X307052Y-73228I1286J-1286D01*
G01X308661D01*
G01X299213Y-65748D02*
Y-61811D01*
G01X301378Y-59646D02*
X303150Y-61417D01*
X306299D01*
G01X299213Y-61811D02*
X301378Y-59646D01*
G01X306299Y-61417D02*
X312205D01*
G01Y-55512D02*
X306299D01*
G01X296315Y-58126D02*
Y-60094D01*
G01X306299Y-55512D02*
X300394D01*
G01D02*
X300000D01*
X297386Y-58126D01*
X296315D01*
G01X305512Y-44488D02*
X306299Y-45276D01*
Y-51575D01*
G01D02*
X300394D01*
G01D02*
Y-47638D01*
X300787Y-47244D01*
X303150D01*
G01X309843Y-24016D02*
X304724D01*
X304331Y-23622D01*
Y-21777D01*
X304883Y-21224D01*
X308134D01*
G01X312205Y-68898D02*
Y-65354D01*
G01D02*
X314921D01*
G02X316535Y-66969I0J-1614D01*
G01Y-68898D01*
G01X312598Y-73228D02*
Y-70829D01*
X312205Y-70435D01*
Y-68898D01*
G01Y-48031D02*
Y-51575D01*
G01D02*
X314961D01*
X315748Y-50787D01*
Y-48031D01*
G01X317159Y-17382D02*
X320409D01*
X320866Y-16925D01*
Y-14567D01*
X320039Y-13740D01*
X315394D01*
G01X309843Y-10630D02*
X311024Y-11811D01*
Y-12992D01*
X310331Y-13685D01*
X308134D01*
G01X327819Y-21224D02*
X332283D01*
G01X327819Y-13685D02*
X330409D01*
X331102Y-12992D01*
Y-11417D01*
X329921Y-10236D01*
G01X340551Y-66496D02*
X334933D01*
G01Y-71496D02*
X340551D01*
G01Y-56496D02*
X334933D01*
G01X340551Y-61496D02*
X334933D01*
X20472Y-44094D03*
X34646Y-58661D03*
X41732Y-53543D03*
X44488D03*
X43307Y-43701D03*
X58268Y-44094D03*
X65236Y-57165D03*
X68425Y-57283D03*
X69843Y-55315D03*
X66811Y-55276D03*
X63740Y-55157D03*
X70079Y-64567D03*
X65354Y-44094D03*
X61811Y-40945D03*
X64567Y-24016D03*
X67717Y-27559D03*
X64567Y-31102D03*
X79921Y-84252D03*
Y-80315D03*
X78819Y-55551D03*
X78846Y-46457D03*
Y-49213D03*
Y-43307D03*
Y-40551D03*
Y-37795D03*
Y-35146D03*
X88189Y-108555D03*
X84252Y-108661D03*
X88189Y-105906D03*
X84252D03*
X83858Y-84252D03*
Y-80315D03*
X81890Y-82283D03*
X87008Y-69685D03*
X81614Y-55591D03*
X84528Y-55854D03*
X85827Y-57768D03*
X83453Y-57756D03*
X87311Y-55854D03*
X82283Y-42520D03*
X85827D03*
X84252Y-16142D03*
X92520Y-108661D03*
X96457D03*
X100000D03*
Y-105906D03*
X96457D03*
X92520D03*
X102756Y-81102D03*
X92913Y-67323D03*
X93413Y-55012D03*
X97531D03*
X96457Y-60630D03*
X93413Y-52075D03*
X95276Y-53543D03*
X97531Y-52362D03*
X97244Y-42913D03*
X94488D03*
X95669Y-36417D03*
X99606Y-24016D03*
X95276Y-24803D03*
Y-28346D03*
Y-21654D03*
X99213Y-10236D03*
X110276Y-95079D03*
X105512Y-78346D03*
X108661Y-84646D03*
X111811Y-57480D03*
X104331Y-60236D03*
X111378Y-62638D03*
X105118Y-49606D03*
X110630D03*
X107480Y-35827D03*
X113386Y-42891D03*
X107480Y-31496D03*
Y-26772D03*
X108268Y-13780D03*
X105118Y-10236D03*
X111024D03*
X120472Y-54331D03*
X118610Y-56193D03*
X122441Y-56299D03*
X122335Y-52362D03*
X118610D03*
X120866Y-43307D03*
X118610Y-42626D03*
X119685Y-36417D03*
X114961Y-24016D03*
X120866Y-27953D03*
Y-24803D03*
Y-21654D03*
X116929Y-10236D03*
X125591Y-100000D03*
Y-102756D03*
Y-97244D03*
X133858Y-42520D03*
X130315D03*
X131496Y-16535D03*
X136650Y-72476D03*
X142913Y-58268D03*
X137402Y-42913D03*
X139370Y-37795D03*
X136220D03*
Y-35146D03*
X139370D03*
Y-40157D03*
X136220D03*
X148461Y-72457D03*
X150000Y-58268D03*
X149713Y-47244D03*
X149697Y-35827D03*
Y-39370D03*
X154331Y-41248D03*
X155906Y-43307D03*
X152362Y-42913D03*
X149713D03*
X153937Y-16535D03*
X158291Y-104224D03*
X164961Y-53831D03*
X166929Y-52756D03*
X162992D03*
X166535Y-42520D03*
X164173Y-43307D03*
X157874Y-41339D03*
X164961Y-36417D03*
Y-27719D03*
Y-24803D03*
Y-21654D03*
X168898Y-89370D03*
X170866Y-86614D03*
X177165Y-86220D03*
X174016Y-85827D03*
X174409Y-50000D03*
X177165Y-35827D03*
Y-31496D03*
Y-26772D03*
X169291Y-24016D03*
X168504Y-10630D03*
X174016D03*
X186614Y-97638D03*
X182677Y-88583D03*
X179528Y-88189D03*
X187402Y-52362D03*
X179921Y-50000D03*
X187508Y-43413D03*
X182677Y-42626D03*
X184843Y-24016D03*
X185039Y-10630D03*
X179528D03*
X195709Y-104224D03*
X189370Y-97638D03*
X197673Y-72476D03*
X189370Y-53831D03*
X191339Y-52362D03*
X190157Y-43701D03*
X197761Y-42396D03*
X189370Y-36417D03*
X190157Y-28740D03*
Y-25591D03*
Y-22047D03*
X209484Y-72441D03*
X199742Y-58526D03*
X203937Y-58268D03*
X205799Y-40157D03*
X203543Y-42520D03*
X200787Y-43307D03*
X205906Y-37402D03*
Y-35039D03*
X200394Y-16142D03*
X211024Y-58268D03*
X218110Y-46850D03*
X212598D03*
X219331Y-23189D03*
X219291Y-17717D03*
Y-12205D03*
X228307Y-100039D03*
X228346Y-97638D03*
Y-102362D03*
X230709Y-12205D03*
X240551Y-65748D03*
X240945Y-48031D03*
X236811Y-24803D03*
Y-13386D03*
X244882Y-106102D03*
Y-97622D03*
X251969Y-97244D03*
X250787Y-100000D03*
X248979Y-87008D03*
X246850Y-84880D03*
X246457Y-77953D03*
X243307D03*
X250787Y-72441D03*
X243307Y-50394D03*
X251181Y-24803D03*
X244094Y-13386D03*
X259843Y-97244D03*
X255906Y-97638D03*
X253937Y-78543D03*
X257087Y-73622D03*
X260236D03*
X257480Y-56110D03*
X254724D03*
X253937Y-62016D03*
X257087Y-60047D03*
X258661Y-46063D03*
X259843Y-43701D03*
X253150Y-41732D03*
X254331Y-38583D03*
X265854Y-101862D03*
X265748Y-87902D03*
X270283Y-79713D03*
X274220Y-76169D03*
X266929Y-67323D03*
X270079Y-64173D03*
X269685Y-59055D03*
X270079Y-53543D03*
X266535Y-50394D03*
X265931Y-36220D03*
X265840Y-32375D03*
X271443Y-16535D03*
X278346Y-94882D03*
X285039Y-80315D03*
X282094Y-78740D03*
X275197Y-67717D03*
X283071Y-67323D03*
X279921Y-64173D03*
X275197Y-54724D03*
Y-63386D03*
X280315Y-59055D03*
X275197D03*
X279921Y-53543D03*
X275197Y-50394D03*
X283465D03*
X278134Y-41732D03*
X280102Y-39370D03*
X282071Y-42059D03*
X275380Y-16535D03*
X290157Y-101299D03*
X290945Y-106299D03*
X291732Y-91732D03*
X289370Y-76378D03*
X292520Y-74803D03*
X293165Y-60094D03*
X292772Y-54189D03*
X286008Y-32023D03*
X286441Y-28519D03*
X294882Y-22835D03*
X295276Y-13780D03*
X289724Y-17756D03*
X301181Y-101299D03*
X301862Y-91299D03*
Y-96299D03*
X296063Y-94882D03*
X299926Y-75911D03*
X300000Y-78346D03*
X302256Y-74516D03*
X299213Y-61811D03*
X301378Y-59646D03*
X296315Y-60094D03*
X305512Y-44488D03*
X303150Y-47244D03*
X296063Y-54189D03*
Y-33071D03*
X302362Y-26772D03*
X304331Y-10630D03*
X311524Y-91299D03*
X306693Y-88189D03*
X314173Y-94488D03*
X315478Y-87278D03*
X312205Y-68898D03*
X316535D03*
X315748Y-48031D03*
X312205D03*
X309843Y-24016D03*
X316535Y-29134D03*
X314567Y-22835D03*
X315394Y-13740D03*
X309843Y-10630D03*
X317717Y-97638D03*
X325984Y-97350D03*
X327559Y-99500D03*
X324909D03*
X321260Y-94488D03*
X318398Y-87402D03*
X318110Y-84252D03*
X324409Y-83858D03*
X320079Y-66496D03*
Y-56496D03*
Y-61496D03*
X320118Y-46496D03*
X320079Y-51496D03*
X320197Y-36496D03*
X320236Y-41496D03*
X320472Y-26772D03*
X320079Y-31496D03*
X324409Y-9843D03*
X329134Y-97350D03*
X330209Y-99500D03*
X337795Y-83858D03*
X329528D03*
X334933Y-66496D03*
Y-71496D03*
Y-56496D03*
Y-61496D03*
X329921Y-26772D03*
X335433D03*
X332283Y-21224D03*
X329921Y-10236D03*
X344776Y-91339D03*
X343307Y-93701D03*
X344776Y-96063D03*
X344094Y-88976D03*
Y-83858D03*
G54D21*
X136650Y-76244D03*
X144189D03*
X140492Y-65584D03*
X148461Y-76244D03*
X156000D03*
X152303Y-65584D03*
X197673Y-76244D03*
X209484D03*
X205213D03*
X201516Y-65584D03*
X217024Y-76244D03*
X213327Y-65584D03*
G54D31*
G01X288976Y-33071D02*
X287698D01*
G02X286601Y-32617I0J1551D01*
G01X286008Y-32023D01*
G01X289724Y-25197D02*
Y-27370D01*
G02X288575Y-28519I-1149J0D01*
G01X286441D01*
G54D13*
X39764Y-64961D03*
G54D22*
X163122Y-104224D03*
X190878D03*
G54D32*
G01X278134Y-41732D02*
X277046Y-40645D01*
G02Y-38414I1115J1115D01*
G01X277924Y-37537D01*
G02X280151Y-36614I2228J-2227D01*
G01X299694D01*
G03X302362Y-33946I0J2669D01*
G01Y-26772D01*
G01X280102Y-39370D02*
X280691Y-38782D01*
G02X281896Y-38283I1206J-1206D01*
G01X285887D01*
G02X286617Y-38585I0J-1032D01*
G01X286706Y-38674D01*
G03X287435Y-38976I730J730D01*
G01X301057D01*
G03X304763Y-37441I0J5241D01*
G01X304764Y-37441D01*
G03X306299Y-33735I-3706J3706D01*
G01Y-32013D01*
G02X307222Y-29786I3150J0D01*
G01X309313Y-27694D01*
G02X311541Y-26772I2228J-2227D01*
G01X320472D01*
G01X316535Y-29134D02*
X313780D01*
G03X311417Y-31496I0J-2362D01*
G01Y-34128D01*
G02X310494Y-36356I-3150J0D01*
G01X306435Y-40416D01*
G02X304207Y-41339I-2228J2227D01*
G01X285533D01*
G02X284690Y-40989I0J1193D01*
G01X284646Y-40945D01*
G03X283185I-730J-730D01*
G01X282071Y-42059D01*
G54D14*
X35827Y-21142D03*
X42126Y-27441D03*
X48425Y-21142D03*
X42126Y-14843D03*
G54D23*
X177953Y-94094D03*
X175984D03*
X174016D03*
X172047D03*
X170079D03*
X183858D03*
X181890D03*
X179921D03*
G54D33*
G01X227953Y-62598D02*
X233071D01*
G02X236614Y-66142I0J-3543D01*
G01Y-74602D01*
G03X242721Y-80709I6107J0D01*
G01X246170D01*
G03X248676Y-79670I0J3544D01*
G01X251722Y-76625D01*
G02X256546I2412J-2412D01*
G03X257851Y-77165I1305J1305D01*
G01X269839D01*
G03X270920Y-76717I0J1529D01*
G01X271020Y-76617D01*
G02X272102Y-76169I1081J-1081D01*
G01X274220D01*
G01X256299Y-64961D02*
X252255D01*
G03X249749Y-65999I0J-3544D01*
G01X247495Y-68253D01*
G03X246457Y-70759I2506J-2506D01*
G01Y-77953D01*
G01X243307D02*
Y-69117D01*
G02X244314Y-66687I3437J0D01*
G01X246993Y-64007D01*
G03X248031Y-61502I-2506J2506D01*
G01Y-59843D01*
G01X257087Y-60047D02*
X256134D01*
G02X254749Y-59474I0J1958D01*
G01X254380Y-59105D01*
G03X252313I-1034J-1034D01*
G01X252312Y-59105D01*
G02X250532Y-59843I-1780J1780D01*
G01X248031D01*
G01X326772Y-66496D02*
X320079D01*
G01X326772Y-56496D02*
X320079D01*
G01X326772Y-61496D02*
X320079D01*
G01X326772Y-46496D02*
X320118D01*
G01X326772Y-51496D02*
X320079D01*
G01X326772Y-36496D02*
X320197D01*
G01X326772Y-41496D02*
X320236D01*
G01X326772Y-31496D02*
X320079D01*
G54D15*
X42913Y-103937D03*
X60236D03*
G54D24*
X261811Y-36614D03*
Y-31102D03*
G54D16*
X60630Y-27559D03*
X64567D03*
X84252Y-37008D03*
X88189D03*
Y-25984D03*
X84252D03*
Y-31496D03*
X88189D03*
X118110Y-100394D03*
X122047D03*
X118110Y-94882D03*
X122047D03*
X133465Y-100000D03*
X129528D03*
X131102Y-36969D03*
X127165D03*
X127205Y-26024D03*
X131142D03*
X131083Y-31496D03*
X127146D03*
X153937Y-37008D03*
X153898Y-25984D03*
X153957Y-31496D03*
X162992Y-62598D03*
X166929D03*
X157874Y-37008D03*
X157835Y-25984D03*
X157894Y-31496D03*
X196457Y-36969D03*
X196496Y-26024D03*
X196437Y-31496D03*
X200394Y-36969D03*
X200433Y-26024D03*
X200374Y-31496D03*
X220866Y-100039D03*
X224803D03*
X224016Y-62598D03*
X227953D03*
X236220Y-100000D03*
X232283D03*
X236220Y-94488D03*
X232283D03*
X241339Y-44094D03*
X248031Y-59843D03*
X244094D03*
X251181Y-46063D03*
X245276Y-44094D03*
X248031Y-52362D03*
X251969D03*
X261417D03*
X257480D03*
X255118Y-46063D03*
X263386Y-44094D03*
X271654Y-90945D03*
Y-85433D03*
X267323Y-44094D03*
X271260Y-12205D03*
X275591Y-90945D03*
Y-85433D03*
X275197Y-12205D03*
X282677D03*
X290945Y-83071D03*
X287008D03*
X295276Y-65748D03*
X292913Y-33071D03*
X288976D03*
X286614Y-12205D03*
X299213Y-65748D03*
X308661Y-73228D03*
X312598D03*
G54D25*
X276378Y-71654D03*
X282283D03*
G54D17*
X89764Y-20472D03*
X84252D03*
X125984D03*
X131496D03*
X153937D03*
X159449D03*
X194882D03*
X200394D03*
G54D26*
X297474Y-17382D03*
X308134Y-21224D03*
Y-13685D03*
X317159Y-17382D03*
X327819Y-21224D03*
Y-13685D03*
G54D27*
G01X170079Y-94094D02*
Y-91308D01*
G03X169544Y-90016I-1827J0D01*
G01X168898Y-89370D01*
G01X177165Y-86220D02*
X175976Y-87409D01*
G03Y-89075I833J-833D01*
G01X175984Y-89083D01*
Y-94094D01*
G01X174016Y-85827D02*
Y-94094D01*
G01X172047D02*
Y-87795D01*
X170866Y-86614D01*
G01X199742Y-58526D02*
X196822Y-61445D01*
G02X194038Y-62598I-2784J2785D01*
G01X166929D01*
G01X177953Y-94094D02*
Y-90799D01*
G02X178685Y-89032I2499J0D01*
G01X179528Y-88189D01*
G01X255906Y-97638D02*
X258268Y-100000D01*
G03X263386I2559J2559D01*
G01X264595Y-98791D01*
G02X267379Y-97638I2784J-2785D01*
G01X275621D01*
G02X276913Y-98173I0J-1827D01*
G01X276914Y-98174D01*
G03X278472Y-98819I1558J1558D01*
G01X297070D01*
G02X299854Y-99972I0J-3938D01*
G01X301181Y-101299D01*
G01X259843Y-97244D02*
X261102D01*
G03X262984Y-96465I0J2661D01*
G01X263441Y-96007D01*
G02X266159Y-94882I2717J-2717D01*
G01X278346D01*
G01X256299Y-64961D02*
Y-63100D01*
G03X256014Y-62412I-973J0D01*
G01X255903Y-62301D01*
G03X255215Y-62016I-688J-688D01*
G01X253937D01*
G01X265748Y-81496D02*
X268500D01*
X270283Y-79713D01*
G01X290157Y-101299D02*
X287939D01*
X287269Y-101969D01*
X284646D01*
G01X278346Y-94882D02*
X279549D01*
G02X280366Y-95220I0J-1155D01*
G01X280477Y-95331D01*
G03X281293Y-95669I817J817D01*
G01X284646D01*
G01X296063Y-94882D02*
Y-91063D01*
G03X292402Y-87402I-3661J0D01*
G01X283597D01*
G02X281355Y-86473I0J3171D01*
G01X281244Y-86362D01*
G03X279002Y-85433I-2242J-2242D01*
G01X275591D01*
G54D18*
X100394Y-33858D03*
Y-29921D03*
X114961Y-33858D03*
Y-29921D03*
X146457Y-58268D03*
Y-62205D03*
X170079Y-33858D03*
Y-29921D03*
X184646Y-33858D03*
Y-29921D03*
X207480Y-58268D03*
Y-62205D03*
X245276Y-94094D03*
Y-90157D03*
X259843Y-85433D03*
Y-81496D03*
X253937Y-81535D03*
Y-85472D03*
X256299Y-64961D03*
Y-68898D03*
X262205Y-64961D03*
Y-68898D03*
X254331Y-35039D03*
Y-31102D03*
X273622Y-101969D03*
Y-105906D03*
X265748Y-85433D03*
Y-81496D03*
X284646Y-105906D03*
Y-101969D03*
X279134D03*
Y-105906D03*
X284646Y-91732D03*
Y-95669D03*
X296063Y-83465D03*
Y-79528D03*
X288583Y-68898D03*
Y-72835D03*
X294488Y-46457D03*
Y-50394D03*
X288583Y-46457D03*
Y-50394D03*
X289724Y-25197D03*
Y-21260D03*
X306693Y-103543D03*
Y-99606D03*
X306299Y-65354D03*
Y-61417D03*
Y-55512D03*
X300394D03*
X306299Y-51575D03*
X300394D03*
X312205Y-65354D03*
Y-61417D03*
Y-55512D03*
Y-51575D03*
G54D28*
G01X43307Y-43701D02*
X38437D01*
G03X36669Y-44433I0J-2501D01*
G03X36323Y-45269I835J-835D01*
G01Y-55916D01*
G02X35568Y-57739I-2579J0D01*
G01X34646Y-58661D01*
G01X60630Y-27559D02*
X45357D01*
X45239Y-27441D01*
X42126D01*
G01X87008Y-69685D02*
X88567D01*
G02X94488Y-75606I0J-5921D01*
G01Y-78740D01*
G03X100394Y-84646I5906J0D01*
G01X108661D01*
G01X92913Y-67323D02*
X94016D01*
G03X95494Y-66710I0J2091D01*
G01X101217Y-60988D01*
G02X103031Y-60236I1815J-1815D01*
G01X104331D01*
G01X113386Y-42891D02*
Y-54910D01*
G02X112682Y-56609I-2404J0D01*
G01X111811Y-57480D01*
G01X182677Y-42626D02*
Y-45739D01*
G03X183184Y-46964I1732J0D01*
G01X183351Y-47131D01*
G02X183858Y-48355I-1225J-1224D01*
G01Y-52283D01*
G02X179449Y-56693I-4409J0D01*
G01X156161D01*
G02X153036Y-55398I0J4420D01*
G01X152869Y-55231D01*
G03X149744Y-53937I-3125J-3125D01*
G01X140635D01*
G03X136459Y-55667I0J-5906D01*
G01X131218Y-60908D01*
G02X127042Y-62638I-4176J4176D01*
G01X111378D01*
G01X186614Y-97638D02*
X189370D01*
G01X186614D02*
X184252D01*
X183858Y-97244D01*
Y-94094D01*
G01X182677Y-88583D02*
X181890Y-89370D01*
Y-94094D01*
G01X259843Y-81496D02*
X265748D01*
G01X259843Y-85433D02*
X265748D01*
G01X253937Y-85472D02*
X256602D01*
X256642Y-85433D01*
X259843D01*
G01X261811Y-36614D02*
X265537D01*
X265931Y-36220D01*
G01X265748Y-85433D02*
Y-87902D01*
G01X271654Y-90945D02*
Y-85433D01*
G01X265748D02*
X271654D01*
G01X290945Y-106299D02*
X287939D01*
X287545Y-105906D01*
X284646D01*
G01Y-91732D02*
X291732D01*
G01X275591Y-90945D02*
Y-85433D01*
G01X285039Y-80315D02*
X283071D01*
G02X282094Y-79339I0J976D01*
G01Y-78740D01*
G01X287008Y-83071D02*
Y-82283D01*
X285039Y-80315D01*
G01X296063Y-79528D02*
X290504D01*
G02X286552Y-77891I0J5590D01*
G01X286314Y-77653D01*
G03X283182I-1566J-1566D01*
G01X282094Y-78740D01*
G01X282283Y-71654D02*
X283535D01*
G02X284759Y-72161I0J-1732D01*
G01X284926Y-72328D01*
G03X286150Y-72835I1224J1225D01*
G01X288583D01*
G01X306693Y-103543D02*
Y-105512D01*
X305906Y-106299D01*
X290945D01*
G01Y-83071D02*
X293344D01*
X293738Y-83465D01*
X296063D01*
G01X289370Y-76378D02*
X288583Y-75591D01*
Y-72835D01*
G01D02*
X292089D01*
X292520Y-73265D01*
Y-74803D01*
G01X301862Y-96299D02*
X305317D01*
G02X306693Y-97675I0J-1376D01*
G01Y-99606D01*
G01X296063Y-83465D02*
X299331D01*
G03X301181Y-81614I0J1850D01*
G01Y-80245D01*
G03X300674Y-79020I-1732J0D01*
G01X300000Y-78346D01*
G54D19*
X127559Y-112992D03*
Y-72441D03*
X165354Y-112992D03*
Y-72441D03*
X188583Y-112992D03*
Y-72441D03*
X226378Y-112992D03*
Y-72441D03*
G54D29*
G01X243307Y-50394D02*
X240945Y-48031D01*
G01X241339Y-44094D02*
X240945Y-44488D01*
Y-48031D01*
G01X251181Y-46063D02*
X249213D01*
X247244Y-44094D01*
X245276D01*
G01X248031Y-52362D02*
X246457D01*
G02X244440Y-51527I0J2851D01*
G01X243307Y-50394D01*
M02*
