G04 ================== begin FILE IDENTIFICATION RECORD ==================*
G04 Layout Name:  F:/MyJob/PoF_TMR_A1/PCB/PoF_TMR_A1-JAN-21-26.brd*
G04 Film Name:    GND*
G04 File Format:  Gerber RS274X*
G04 File Origin:  Cadence Allegro 22.1-P001*
G04 Origin Date:  Wed Jan 21 15:19:45 2026*
G04 *
G04 Layer:  VIA CLASS/GND*
G04 Layer:  PIN/GND*
G04 Layer:  ETCH/GND*
G04 *
G04 Offset:    (0.0000 0.0000)*
G04 Mirror:    No*
G04 Mode:      Positive*
G04 Rotation:  0*
G04 FullContactRelief:  No*
G04 UndefLineWidth:     0.2540*
G04 ================== end FILE IDENTIFICATION RECORD ====================*
%FSLAX25Y25*MOIN*%
%IR0*IPPOS*OFA0.00000B0.00000*MIA0B0*SFA1.00000B1.00000*%
%ADD11C,.015748*%
%ADD15R,.125984X.102362*%
%ADD16C,.03937*%
%ADD13C,.047244*%
%ADD10C,.090551*%
%ADD12C,.059055*%
%ADD14C,.070866*%
%ADD19C,.078756*%
%ADD18C,.055134*%
%ADD20C,.098441*%
%ADD17C,.110252*%
G75*
%LPD*%
G75*
G36*
G01X332394Y-7874D02*
X334817D01*
G02X335188Y-8424I0J-400D01*
G03X334594Y-11495I7647J-3072D01*
G01Y-11496D01*
G03X342835Y-19737I8241J0D01*
G01X342836D01*
G03X345907Y-19143I-1J8241D01*
G02X346456Y-19514I149J-371D01*
G01Y-98588D01*
G02X345903Y-98957I-400J0D01*
G03X342757Y-98330I-3146J-7578D01*
G01X342756D01*
G03X334551Y-106535I0J-8205D01*
G01Y-106537D01*
G03X335178Y-109682I8205J1D01*
G02X334809Y-110236I-369J-154D01*
G01X233478D01*
Y-107874D01*
G03X232677Y-107073I-801J0D01*
G01X220079D01*
G03X219278Y-107874I0J-801D01*
G01Y-110236D01*
X195683D01*
Y-107874D01*
G03X194882Y-107073I-801J0D01*
G01X182283D01*
G03X181483Y-107874I0J-801D01*
G01Y-110236D01*
X172454D01*
Y-107874D01*
G03X171654Y-107073I-801J0D01*
G01X159055D01*
G03X158254Y-107874I0J-801D01*
G01Y-110236D01*
X134659D01*
Y-107874D01*
G03X133858Y-107073I-801J0D01*
G01X121260D01*
G03X120459Y-107874I0J-801D01*
G01Y-110236D01*
X19564D01*
G02X19204Y-109662I0J400D01*
G03X8448Y-98907I-7261J3494D01*
G02X7874Y-98546I-174J360D01*
G01Y-19548D01*
G02X8441Y-19185I400J0D01*
G03X11810Y-19918I3370J7374D01*
G01X11811D01*
G03X19918Y-11811I0J8107D01*
G01Y-11810D01*
G03X19185Y-8441I-8107J0D01*
G02X19548Y-7874I364J166D01*
G01X102645D01*
G02X102958Y-8523I0J-400D01*
G03X102361Y-10236I2160J-1713D01*
G03X105118Y-12993I2757J0D01*
G01X105133D01*
G02X105532Y-13442I2J-400D01*
G03X105511Y-13780I2736J-339D01*
G03X111024I2757J0D01*
G03X111001Y-13422I-2756J0D01*
G02X111350Y-12974I397J52D01*
G03X113780Y-10236I-327J2737D01*
G03X113183Y-8523I-2757J0D01*
G02X113496Y-7874I313J249D01*
G01X171914D01*
G02X172181Y-8573I0J-400D01*
G03X171259Y-10630I1835J-2057D01*
G03X174016Y-13387I2757J0D01*
G03X176422Y-11974I0J2757D01*
G02X177121I349J-195D01*
G03X179528Y-13387I2407J1345D01*
G03X182284Y-10630I0J2757D01*
G03X181363Y-8573I-2756J0D01*
G02X181629Y-7874I266J298D01*
G01X302229D01*
G02X302496Y-8573I0J-400D01*
G03X301574Y-10630I1835J-2057D01*
G03X304331Y-13387I2757J0D01*
G03X306737Y-11974I0J2757D01*
G02X307436I349J-195D01*
G03X309843Y-13387I2407J1345D01*
G03X312599Y-10630I0J2757D01*
G03X311678Y-8573I-2756J0D01*
G02X311944Y-7874I266J298D01*
G01X321670D01*
G02X322017Y-8473I0J-400D01*
G03X321653Y-9843I2392J-1369D01*
G03X324409Y-12599I2757J0D01*
G03X326721Y-11344I0J2757D01*
G02X327420Y-11394I336J-218D01*
G03X329921Y-12993I2502J1158D01*
G03X332678Y-10236I0J2757D01*
G03X332081Y-8523I-2757J0D01*
G02X332394Y-7874I313J249D01*
G37*
%LPC*%
G75*
G36*
G01X288974Y-104372D02*
G03X288874Y-103739I-286J280D01*
G02X287401Y-101299I1284J2439D01*
G02X292914I2757J0D01*
G02X292129Y-103226I-2757J0D01*
G03X292229Y-103860I286J-280D01*
G02X293702Y-106299I-1284J-2439D01*
G02X288188I-2757J0D01*
G02X288974Y-104372I2757J0D01*
G37*
G36*
G01X225827Y-101243D02*
G02X225550Y-100039I2480J1204D01*
G02X225846Y-98798I2757J0D01*
G02X225590Y-97638I2501J1160D01*
G02X231103I2757J0D01*
G02X230808Y-98879I-2757J0D01*
G02X231064Y-100039I-2501J-1160D01*
G02X230826Y-101158I-2757J0D01*
G02X231103Y-102362I-2480J-1204D01*
G02X225590I-2757J0D01*
G02X225827Y-101243I2757J0D01*
G37*
G36*
G01X326234Y-101917D02*
G02X324909Y-102257I-1325J2417D01*
G02X322153Y-99500I0J2757D01*
G02X323228Y-97316I2756J0D01*
G02X325984Y-94594I2756J-34D01*
G02X327559Y-95088I0J-2757D01*
G02X329134Y-94594I1575J-2263D01*
G02X331890Y-97316I0J-2757D01*
G02X332965Y-99500I-1681J-2184D01*
G02X330209Y-102257I-2757J0D01*
G02X328884Y-101917I0J2757D01*
G02X327559Y-102257I-1325J2417D01*
G02X326234Y-101917I0J2757D01*
G37*
G36*
G01X123203Y-101378D02*
G02X122834Y-100000I2387J1378D01*
G02X123203Y-98622I2757J0D01*
G02X122834Y-97244I2387J1378D01*
G02X128347I2757J0D01*
G02X127978Y-98622I-2757J0D01*
G02X128347Y-100000I-2387J-1378D01*
G02X127978Y-101378I-2757J0D01*
G02X128347Y-102756I-2387J-1378D01*
G02X122834I-2757J0D01*
G02X123203Y-101378I2757J0D01*
G37*
G36*
G01X258211Y-99466D02*
G03X257945Y-99493I-118J-161D01*
G02X255906Y-100394I-2039J1855D01*
G02Y-94881I0J2757D01*
G02X257537Y-95416I0J-2757D01*
G03X257803Y-95389I118J161D01*
G02X259843Y-94487I2039J-1855D01*
G02Y-100001I0J-2757D01*
G02X258211Y-99466I0J2757D01*
G37*
G36*
G01X299837Y-98893D02*
G03X299923Y-98259I-195J349D01*
G02X299106Y-96299I1939J1959D01*
G02X304619I2757J0D01*
G02X303206Y-98706I-2756J0D01*
G03X303120Y-99340I195J-349D01*
G02X303938Y-101299I-1939J-1959D01*
G02X298424I-2757J0D01*
G02X299837Y-98893I2756J0D01*
G37*
G36*
G01X293313Y-94687D02*
G03X292765Y-94289I-399J28D01*
G02X291732Y-94489I-1032J2556D01*
G02X294489Y-91732I0J2757D01*
G02X294482Y-91927I-2757J-2D01*
G03X295031Y-92326I399J-28D01*
G02X296063Y-92125I1032J-2556D01*
G02X293306Y-94882I0J-2757D01*
G02X293313Y-94687I2757J2D01*
G37*
G36*
G01X188652Y-94976D02*
G03X188907Y-94414I-104J386D01*
G02X188503Y-92677I3534J1736D01*
G02X196379I3938J0D01*
G02X192463Y-96615I-3938J0D01*
G03X192072Y-97094I2J-400D01*
G02X192127Y-97638I-2702J-545D01*
G02X189370Y-100394I-2757J0D01*
G02X187992Y-100025I0J2757D01*
G02X186614Y-100394I-1378J2387D01*
G02Y-94881I0J2757D01*
G02X187992Y-95250I0J-2757D01*
G02X188652Y-94976I1378J-2387D01*
G37*
G36*
G01X171652Y-89256D02*
G02X171654Y-89370I-2754J-114D01*
G02X166141I-2757J0D01*
G02X168112Y-86728I2756J0D01*
G02X168109Y-86614I2754J114D01*
G02X170866Y-83857I2757J0D01*
G02X171900Y-84059I0J-2757D01*
G02X174016Y-83070I2115J-1768D01*
G02X175870Y-83787I0J-2757D01*
G02X177165Y-83464I1295J-2434D01*
G02X179811Y-85447I0J-2757D01*
G02X182284Y-88189I-284J-2742D01*
G02X179528Y-90946I-2757J0D01*
G02X176881Y-88963I0J2757D01*
G02X175311Y-88260I284J2742D01*
G02X174016Y-88583I-1295J2434D01*
G02X172981Y-88382I0J2757D01*
G02X171652Y-89256I-2115J1768D01*
G37*
G36*
G01X249548Y-84311D02*
G02X251735Y-87008I-569J-2697D01*
G02X248979Y-89765I-2757J0D01*
G02X246281Y-87577I0J2757D01*
G02X244094Y-84880I569J2697D01*
G02X246850Y-82123I2757J0D01*
G02X249548Y-84311I0J-2757D01*
G37*
G36*
G01X315177Y-84538D02*
G03X315355Y-84333I-22J199D01*
G02X315354Y-84252I2756J81D01*
G02X320867I2757J0D01*
G02X320503Y-85622I-2757J0D01*
G02X321154Y-87402I-2105J-1780D01*
G02X318398Y-90158I-2757J0D01*
G02X316839Y-89675I0J2757D01*
G02X315478Y-90035I-1362J2397D01*
G02X312721Y-87278I0J2757D01*
G02X315177Y-84538I2757J0D01*
G37*
G36*
G01X327293Y-85472D02*
G03X326644I-324J-234D01*
G02X324409Y-86615I-2235J1614D01*
G02Y-81102I0J2757D01*
G02X326644Y-82244I0J-2757D01*
G03X327293I324J234D01*
G02X329528Y-81102I2235J-1614D01*
G02Y-86615I0J-2757D01*
G02X327293Y-85472I0J2757D01*
G37*
G36*
G01X244882Y-75690D02*
G02X246457Y-75196I1575J-2263D01*
G02Y-80709I0J-2757D01*
G02X244882Y-80215I0J2757D01*
G02X243307Y-80709I-1575J2263D01*
G02Y-75196I0J2757D01*
G02X244882Y-75690I0J-2757D01*
G37*
G36*
G01X270999Y-77050D02*
G03X271498Y-76602I104J386D01*
G02X271464Y-76169I2722J433D01*
G02X274220Y-78926I2757J0D01*
G02X273505Y-78831I0J2757D01*
G03X273006Y-79280I-104J-386D01*
G02X273040Y-79713I-2722J-433D01*
G02X270283Y-76956I-2757J0D01*
G02X270999Y-77050I0J-2757D01*
G37*
G36*
G01X202100Y-60324D02*
G03X201817Y-60341I-133J-149D01*
G02X199742Y-61283I-2075J1815D01*
G02Y-55769I0J2757D01*
G02X201578Y-56470I0J-2757D01*
G03X201862Y-56453I133J149D01*
G02X203937Y-55511I2075J-1815D01*
G02Y-61024I0J-2757D01*
G02X202100Y-60324I0J2757D01*
G37*
G36*
G01X109994Y-60254D02*
G03X110049Y-59600I-201J346D01*
G02X109054Y-57480I1763J2120D01*
G02X114568I2757J0D01*
G02X113195Y-59865I-2757J0D01*
G03X113140Y-60518I201J-346D01*
G02X114135Y-62638I-1763J-2120D01*
G02X108621I-2757J0D01*
G02X109994Y-60254I2757J0D01*
G37*
G36*
G01X254496Y-59106D02*
G03X254336Y-58839I-188J68D01*
G02X251968Y-56110I389J2729D01*
G02X254724Y-53354I2757J0D01*
G02X256102Y-53723I0J-2757D01*
G02X257480Y-53354I1378J-2387D01*
G02X260237Y-56110I0J-2757D01*
G02X259335Y-58150I-2757J0D01*
G03X259309Y-58416I134J-148D01*
G02X259843Y-60047I-2222J-1631D01*
G02X257087Y-62804I-2757J0D01*
G02X256592Y-62759I1J2757D01*
G02X253937Y-64772I-2655J743D01*
G02Y-59259I0J2757D01*
G02X254432Y-59304I-1J-2757D01*
G02X254496Y-59106I2654J-745D01*
G37*
G36*
G01X66748Y-59471D02*
G02X65236Y-59922I-1511J2306D01*
G02X62519Y-57629I0J2757D01*
G02X60983Y-55157I1221J2471D01*
G02X63740Y-52401I2757J0D01*
G02X65363Y-52930I0J-2757D01*
G02X66811Y-52519I1448J-2346D01*
G02X68357Y-52993I0J-2757D01*
G02X69843Y-52558I1486J-2322D01*
G02X72599Y-55315I0J-2757D01*
G02X71143Y-57746I-2757J0D01*
G02X68425Y-60040I-2718J462D01*
G02X66748Y-59471I0J2756D01*
G37*
G36*
G01X177515Y-51344D02*
G03X176816I-349J-195D01*
G02X174409Y-52757I-2407J1345D01*
G02Y-47243I0J2757D01*
G02X176816Y-48656I0J-2757D01*
G03X177515I349J195D01*
G02X179921Y-47243I2407J-1345D01*
G02Y-52757I0J-2757D01*
G02X177515Y-51344I0J2757D01*
G37*
G36*
G01X108223Y-50951D02*
G03X107525I-349J-195D01*
G02X105118Y-52363I-2407J1345D01*
G02Y-46850I0J2757D01*
G02X107525Y-48262I0J-2757D01*
G03X108223I349J195D01*
G02X110630Y-46850I2407J-1345D01*
G02Y-52363I0J-2757D01*
G02X108223Y-50951I0J2757D01*
G37*
G36*
G01X243677Y-47662D02*
G02X246064Y-50394I-370J-2732D01*
G02X243307Y-53150I-2757J0D01*
G02X240575Y-50763I0J2757D01*
G02X238188Y-48031I370J2732D01*
G02X240945Y-45275I2757J0D01*
G02X243677Y-47662I0J-2757D01*
G37*
G36*
G01X261416Y-45964D02*
G02X261418Y-46063I-2755J-104D01*
G02X255905I-2757J0D01*
G02X257088Y-43800I2757J0D01*
G02X257086Y-43701I2755J104D01*
G02X262599I2757J0D01*
G02X261416Y-45964I-2757J0D01*
G37*
G36*
G01X280066Y-43951D02*
G03X279800Y-43929I-145J-137D01*
G02X278134Y-44489I-1666J2196D01*
G02X275377Y-41732I0J2757D01*
G02X277360Y-39086I2757J0D01*
G02X280102Y-36613I2742J-284D01*
G02X282859Y-39370I0J-2757D01*
G02X282859Y-39417I-2757J-1D01*
G02X284828Y-42059I-788J-2642D01*
G02X282071Y-44816I-2757J0D01*
G02X280066Y-43951I0J2757D01*
G37*
G36*
G01X147593Y-41151D02*
G02X146940Y-39370I2104J1781D01*
G02X147585Y-37598I2757J0D01*
G02X146940Y-35827I2112J1771D01*
G02X152454I2757J0D01*
G02X151809Y-37598I-2757J0D01*
G02X152352Y-38630I-2112J-1771D01*
G03X152939Y-38868I385J108D01*
G02X154331Y-38491I1391J-2380D01*
G02X156156Y-39182I0J-2757D01*
G02X157874Y-38582I1718J-2156D01*
G02X160631Y-41339I0J-2757D01*
G02X158572Y-44006I-2757J0D01*
G02X155906Y-46064I-2667J699D01*
G02X153902Y-45200I0J2756D01*
G02X152603Y-45659I-1540J2287D01*
G03X152267Y-46208I35J-398D01*
G02X152469Y-47244I-2555J-1036D01*
G02X146956I-2757J0D01*
G02X147707Y-45353I2757J0D01*
G03Y-44804I-291J274D01*
G02X146956Y-42913I2006J1891D01*
G02X147593Y-41151I2757J0D01*
G37*
G36*
G01X76459Y-39173D02*
G02X76090Y-37795I2387J1378D01*
G02X76429Y-36470I2757J0D01*
G02X76090Y-35146I2417J1325D01*
G02X81603I2757J0D01*
G02X81264Y-36470I-2757J0D01*
G02X81603Y-37795I-2417J-1325D01*
G02X81234Y-39173I-2757J0D01*
G02X81466Y-39693I-2387J-1379D01*
G03X81698Y-39826I190J62D01*
G02X82283Y-39763I584J-2694D01*
G02X84055Y-40407I0J-2757D01*
G02X85827Y-39763I1771J-2112D01*
G02Y-45276I0J-2757D01*
G02X84055Y-44632I0J2757D01*
G02X82283Y-45276I-1771J2112D01*
G02X81948Y-45256I0J2757D01*
G03X81512Y-45755I-49J-397D01*
G02X81603Y-46457I-2666J-702D01*
G02X81234Y-47835I-2757J0D01*
G02X81603Y-49213I-2387J-1378D01*
G02X76090I-2757J0D01*
G02X76459Y-47835I2757J0D01*
G02X76090Y-46457I2387J1378D01*
G02X76584Y-44882I2757J0D01*
G02X76090Y-43307I2263J1575D01*
G02X76459Y-41929I2757J0D01*
G02X76090Y-40551I2387J1378D01*
G02X76459Y-39173I2757J0D01*
G37*
G36*
G01X133730Y-38976D02*
G02X133464Y-37795I2491J1181D01*
G02X133803Y-36470I2757J0D01*
G02X133464Y-35146I2417J1325D01*
G02X136220Y-32389I2757J0D01*
G02X137795Y-32883I0J-2757D01*
G02X139370Y-32389I1575J-2263D01*
G02X142127Y-35146I0J-2757D01*
G02X141787Y-36470I-2757J0D01*
G02X142127Y-37795I-2417J-1325D01*
G02X141861Y-38976I-2757J0D01*
G02X142127Y-40157I-2491J-1181D01*
G02X140156Y-42800I-2756J0D01*
G02X140158Y-42913I-2754J-114D01*
G02X137402Y-45670I-2757J0D01*
G02X135398Y-44806I0J2756D01*
G02X133858Y-45276I-1540J2287D01*
G02X132087Y-44632I0J2757D01*
G02X130315Y-45276I-1771J2112D01*
G02Y-39763I0J2757D01*
G02X132087Y-40407I0J-2757D01*
G02X133489Y-39788I1772J-2112D01*
G02X133730Y-38976I2732J-370D01*
G37*
G36*
G01X203467Y-38687D02*
G02X203149Y-37402I2438J1286D01*
G02X203415Y-36220I2757J0D01*
G02X203149Y-35039I2491J1181D01*
G02X208662I2757J0D01*
G02X208396Y-36220I-2757J0D01*
G02X208662Y-37402I-2491J-1181D01*
G02X208237Y-38872I-2757J0D01*
G02X208556Y-40157I-2438J-1286D01*
G02X206277Y-42872I-2757J0D01*
G02X203543Y-45276I-2734J353D01*
G02X202812Y-45178I0J2757D01*
G02X200787Y-46064I-2025J1870D01*
G02X198623Y-45015I0J2757D01*
G02X197761Y-45153I-862J2619D01*
G02Y-39640I0J2757D01*
G02X199925Y-40689I0J-2757D01*
G02X200787Y-40550I862J-2619D01*
G02X201519Y-40649I0J-2757D01*
G02X203065Y-39805I2025J-1870D01*
G02X203467Y-38687I2734J-353D01*
G37*
G36*
G01X288326Y-30531D02*
G02X288765Y-32023I-2318J-1492D01*
G02X283251I-2757J0D01*
G02X284123Y-30011I2757J0D01*
G02X283684Y-28519I2318J1492D01*
G02X289198I2757J0D01*
G02X288326Y-30531I-2757J0D01*
G37*
G36*
G01X317281Y-26480D02*
G03X317780Y-26181I108J385D01*
G02X320472Y-24015I2693J-591D01*
G02X323229Y-26772I0J-2757D01*
G02X322115Y-28986I-2757J0D01*
G03X322065Y-29584I238J-321D01*
G02X322835Y-31496I-1987J-1912D01*
G02X321812Y-33639I-2756J0D01*
G03X321827Y-34273I251J-311D01*
G02X322954Y-36496I-1630J-2223D01*
G02X321897Y-38666I-2757J0D01*
G03X321902Y-39300I247J-315D01*
G02X322993Y-41496I-1666J-2196D01*
G02X321867Y-43719I-2756J0D01*
G03X321852Y-44353I236J-323D01*
G02X322875Y-46496I-1733J-2143D01*
G02X321784Y-48693I-2757J0D01*
G03X321779Y-49326I242J-319D01*
G02X322835Y-51496I-1700J-2170D01*
G02X321762Y-53679I-2756J0D01*
G03Y-54313I244J-317D01*
G02Y-58679I-1683J-2183D01*
G03Y-59313I244J-317D01*
G02Y-63679I-1683J-2183D01*
G03Y-64313I244J-317D01*
G02X322835Y-66496I-1683J-2183D01*
G02X320079Y-69253I-2757J0D01*
G02X319669Y-69222I0J2757D01*
G03X319219Y-69526I-60J-396D01*
G02X316535Y-71654I-2684J629D01*
G02X314644Y-70904I0J2757D01*
G03X314096I-274J-291D01*
G02X312205Y-71654I-1891J2006D01*
G02Y-66141I0J2757D01*
G02X314096Y-66892I0J-2757D01*
G03X314644I274J291D01*
G02X316535Y-66141I1891J-2006D01*
G02X316946Y-66172I0J-2757D01*
G03X317395Y-65867I60J396D01*
G02X318396Y-64313I2684J-629D01*
G03Y-63679I-244J317D01*
G02Y-59313I1683J2183D01*
G03Y-58679I-244J317D01*
G02Y-54313I1683J2183D01*
G03Y-53679I-244J317D01*
G02X317322Y-51496I1683J2183D01*
G02X317365Y-51012I2757J0D01*
G03X316816Y-50573I-394J70D01*
G02X315748Y-50788I-1068J2541D01*
G02X313976Y-50144I0J2757D01*
G02X312205Y-50788I-1771J2112D01*
G02Y-45275I0J2757D01*
G02X313976Y-45919I0J-2757D01*
G02X315748Y-45275I1771J-2112D01*
G02X317035Y-45594I0J-2757D01*
G03X317589Y-45399I187J354D01*
G02X318488Y-44273I2529J-1097D01*
G03X318503Y-43639I-236J323D01*
G02X317480Y-41496I1733J2143D01*
G02X318536Y-39326I2757J0D01*
G03X318531Y-38693I-247J315D01*
G02X317440Y-36496I1666J2196D01*
G02X318463Y-34353I2756J0D01*
G03X318448Y-33719I-251J311D01*
G02X317403Y-32158I1630J2223D01*
G03X316954Y-31859I-388J-96D01*
G02X316535Y-31891I-418J2725D01*
G02Y-26377I0J2757D01*
G02X317281Y-26480I0J-2757D01*
G37*
G36*
G01X333026Y-28116D02*
G03X332328I-349J-195D01*
G02X329921Y-29528I-2407J1345D01*
G02Y-24015I0J2757D01*
G02X332328Y-25427I0J-2757D01*
G03X333026I349J195D01*
G02X335433Y-24015I2407J-1345D01*
G02Y-29528I0J-2757D01*
G02X333026Y-28116I0J2757D01*
G37*
G36*
G01X64981Y-27221D02*
G03X64581Y-26772I-397J49D01*
G01X64567D01*
G02X67324Y-24016I0J2757D01*
G02X67303Y-24354I-2757J1D01*
G03X67702Y-24802I397J-49D01*
G01X67717D01*
G02Y-30316I0J-2757D01*
G01X67702D01*
G03X67303Y-30765I-2J-400D01*
G02X67324Y-31102I-2736J-339D01*
G02X64567Y-28346I-2757J0D01*
G01X64581D01*
G03X64981Y-27897I2J400D01*
G02X64960Y-27559I2736J339D01*
G02X64981Y-27221I2757J-1D01*
G37*
G36*
G01X187895Y-27165D02*
G02X187401Y-25591I2263J1575D01*
G02X188045Y-23819I2757J0D01*
G02X187401Y-22047I2112J1771D01*
G02X192914I2757J0D01*
G02X192270Y-23819I-2757J0D01*
G02X192914Y-25591I-2112J-1771D01*
G02X192420Y-27165I-2757J0D01*
G02X192914Y-28740I-2263J-1575D01*
G02X187401I-2757J0D01*
G02X187895Y-27165I2757J0D01*
G37*
G36*
G01X93163Y-26575D02*
G02X92519Y-24803I2112J1771D01*
G02X93013Y-23228I2757J0D01*
G02X92519Y-21654I2263J1575D01*
G02X98032I2757J0D01*
G02X97538Y-23228I-2757J0D01*
G02X98032Y-24803I-2263J-1575D01*
G02X97388Y-26575I-2757J0D01*
G02X98032Y-28346I-2112J-1771D01*
G02X92519I-2757J0D01*
G02X93163Y-26575I2757J0D01*
G37*
G36*
G01X118604Y-26378D02*
G02Y-23228I2263J1575D01*
G02X118109Y-21654I2263J1575D01*
G02X123623I2757J0D01*
G02X123129Y-23228I-2757J0D01*
G02Y-26378I-2263J-1575D01*
G02X123623Y-27953I-2263J-1575D01*
G02X118109I-2757J0D01*
G02X118604Y-26378I2757J0D01*
G37*
G36*
G01X162621Y-26261D02*
G02X162204Y-24803I2340J1458D01*
G02X162698Y-23228I2757J0D01*
G02X162204Y-21654I2263J1575D01*
G02X167717I2757J0D01*
G02X167223Y-23228I-2757J0D01*
G02X167717Y-24803I-2263J-1575D01*
G02X167300Y-26261I-2757J0D01*
G02X167717Y-27719I-2340J-1458D01*
G02X162204I-2757J0D01*
G02X162621Y-26261I2757J0D01*
G37*
G36*
G01X286784Y-77332D02*
G02X286613Y-76378I2586J954D01*
G02X289370Y-73621I2757J0D01*
G02X289996Y-73693I0J-2757D01*
G02X292520Y-72046I2523J-1110D01*
G02Y-77560I0J-2757D01*
G02X291893Y-77488I0J2757D01*
G02X289370Y-79135I-2523J1110D01*
G02X288174Y-78862I0J2756D01*
G03X287626Y-79361I-174J-360D01*
G02X287796Y-80315I-2586J-954D01*
G02X285039Y-83072I-2757J0D01*
G02X282533Y-81462I0J2757D01*
G02X282094Y-81497I-438J2722D01*
G02Y-75983I0J2757D01*
G02X284601Y-77593I0J-2757D01*
G02X285039Y-77558I438J-2722D01*
G02X286235Y-77831I0J-2756D01*
G03X286784Y-77332I174J360D01*
G37*
G36*
G01X254832Y-75208D02*
G02X254330Y-73622I2255J1586D01*
G02X257087Y-70865I2757J0D01*
G02X258661Y-71359I0J-2757D01*
G02X260236Y-70865I1575J-2263D01*
G02Y-76379I0J-2757D01*
G02X258661Y-75885I0J2757D01*
G02X257087Y-76379I-1575J2263D01*
G02X256591Y-76334I0J2757D01*
G03X256192Y-76957I-72J-393D01*
G02X256694Y-78543I-2255J-1586D01*
G02X253937Y-75787I-2757J0D01*
G02X254433Y-75831I0J-2757D01*
G03X254832Y-75208I72J393D01*
G37*
G36*
G01X120459Y-67323D02*
G02X121260Y-66522I801J0D01*
G01X133858D01*
G02X134659Y-67323I0J-801D01*
G01Y-77559D01*
G02X133858Y-78360I-801J0D01*
G01X133280D01*
G03X133109Y-79121I0J-400D01*
G02X135355Y-82677I-1692J-3556D01*
G02X127480I-3938J0D01*
G02X129726Y-79121I3938J0D01*
G03X129554Y-78360I-172J361D01*
G01X121260D01*
G02X120459Y-77559I0J801D01*
G01Y-67323D01*
G37*
G36*
G01X158254D02*
G02X159055Y-66522I801J0D01*
G01X171654D01*
G02X172454Y-67323I0J-801D01*
G01Y-77559D01*
G02X171654Y-78360I-801J0D01*
G01X163280D01*
G03X163109Y-79121I0J-400D01*
G02X165355Y-82677I-1692J-3556D01*
G02X157480I-3938J0D01*
G02X159726Y-79121I3938J0D01*
G03X159554Y-78360I-172J361D01*
G01X159055D01*
G02X158254Y-77559I0J801D01*
G01Y-67323D01*
G37*
G36*
G01X181483D02*
G02X182283Y-66522I801J0D01*
G01X194882D01*
G02X195683Y-67323I0J-801D01*
G01Y-77559D01*
G02X194882Y-78360I-801J0D01*
G01X194304D01*
G03X194132Y-79121I0J-400D01*
G02X196379Y-82677I-1692J-3556D01*
G02X188503I-3938J0D01*
G02X190750Y-79121I3938J0D01*
G03X190578Y-78360I-172J361D01*
G01X182283D01*
G02X181483Y-77559I0J801D01*
G01Y-67323D01*
G37*
G36*
G01X219278D02*
G02X220079Y-66522I801J0D01*
G01X232677D01*
G02X233478Y-67323I0J-801D01*
G01Y-77559D01*
G02X232677Y-78360I-801J0D01*
G01X224304D01*
G03X224132Y-79121I0J-400D01*
G02X226379Y-82677I-1692J-3556D01*
G02X218503I-3938J0D01*
G02X220750Y-79121I3938J0D01*
G03X220578Y-78360I-172J361D01*
G01X220079D01*
G02X219278Y-77559I0J801D01*
G01Y-67323D01*
G37*
G36*
G01X294417Y-56400D02*
G02X292772Y-56946I-1646J2211D01*
G02Y-51432I0J2757D01*
G02X294417Y-51978I0J-2757D01*
G02X296063Y-51432I1646J-2211D01*
G02X298820Y-54189I0J-2757D01*
G02X297141Y-56726I-2757J0D01*
G03X297172Y-57474I157J-368D01*
G02X298381Y-58270I-857J-2620D01*
G03X299023Y-58213I300J265D01*
G02X301378Y-56889I2355J-1433D01*
G02X304135Y-59646I0J-2757D01*
G02X301916Y-62349I-2757J0D01*
G02X299213Y-64568I-2704J538D01*
G02X296651Y-62831I0J2757D01*
G02X296315Y-62851I-335J2736D01*
G02X294740Y-62357I0J2757D01*
G02X293165Y-62851I-1575J2263D01*
G02Y-57338I0J2757D01*
G02X294740Y-57832I0J-2757D01*
G02X295237Y-57557I1575J-2263D01*
G03X295206Y-56809I-157J368D01*
G02X294417Y-56400I858J2620D01*
G37*
G36*
G01X38209Y-16693D02*
G02X37794Y-14843I3917J1850D01*
G02X46457I4331J0D01*
G02X46043Y-16693I-4332J0D01*
G03X46575Y-17225I362J-171D01*
G02X48425Y-16810I1850J-3917D01*
G02Y-25473I0J-4331D01*
G02X46575Y-25058I0J4332D01*
G03X46043Y-25591I-171J-362D01*
G02X46457Y-27441I-3917J-1850D01*
G02X37794I-4331J0D01*
G02X38209Y-25591I4332J0D01*
G03X37677Y-25058I-362J171D01*
G02X35827Y-25473I-1850J3917D01*
G02Y-16810I0J4331D01*
G02X37677Y-17225I0J-4332D01*
G03X38209Y-16693I171J362D01*
G37*
G54D19*
X131417Y-92677D03*
X141417D03*
X151417D03*
X161417D03*
X202441D03*
X212441D03*
X222441D03*
X141417Y-82677D03*
X151417D03*
X202441D03*
X212441D03*
G54D18*
X110276Y-95079D03*
X265748Y-87902D03*
X278346Y-94882D03*
X108661Y-84646D03*
X87008Y-69685D03*
X92913Y-67323D03*
X240551Y-65748D03*
X250787Y-72441D03*
X34646Y-58661D03*
X70079Y-64567D03*
X96457Y-60630D03*
X104331Y-60236D03*
X142913Y-58268D03*
X150000D03*
X211024D03*
X43307Y-43701D03*
X95669Y-36417D03*
X113386Y-42891D03*
X119685Y-36417D03*
X164961D03*
X182677Y-42626D03*
X189370Y-36417D03*
X254331Y-38583D03*
X296063Y-33071D03*
X219331Y-23189D03*
X251181Y-24803D03*
X265840Y-32375D03*
X294882Y-22835D03*
X302362Y-26772D03*
X314567Y-22835D03*
X230709Y-12205D03*
X244094Y-13386D03*
X271443Y-16535D03*
X295276Y-13780D03*
X289724Y-17756D03*
X315394Y-13740D03*
G54D20*
X39764Y-64961D03*
G54D17*
X60236Y-103937D03*
%LPD*%
G75*
G54D10*
X11811Y-106299D03*
Y-11811D03*
X342520Y-106299D03*
Y-11811D03*
G54D11*
X20472Y-44094D03*
X34646Y-58661D03*
X41732Y-53543D03*
X44488D03*
X43307Y-43701D03*
X58268Y-44094D03*
X65236Y-57165D03*
X68425Y-57283D03*
X69843Y-55315D03*
X66811Y-55276D03*
X63740Y-55157D03*
X70079Y-64567D03*
X65354Y-44094D03*
X61811Y-40945D03*
X64567Y-24016D03*
X67717Y-27559D03*
X64567Y-31102D03*
X79921Y-84252D03*
Y-80315D03*
X78819Y-55551D03*
X78846Y-46457D03*
Y-49213D03*
Y-43307D03*
Y-40551D03*
Y-37795D03*
Y-35146D03*
X88189Y-108555D03*
X84252Y-108661D03*
X88189Y-105906D03*
X84252D03*
X83858Y-84252D03*
Y-80315D03*
X81890Y-82283D03*
X87008Y-69685D03*
X81614Y-55591D03*
X84528Y-55854D03*
X85827Y-57768D03*
X83453Y-57756D03*
X87311Y-55854D03*
X82283Y-42520D03*
X85827D03*
X84252Y-16142D03*
X92520Y-108661D03*
X96457D03*
X100000D03*
Y-105906D03*
X96457D03*
X92520D03*
X102756Y-81102D03*
X92913Y-67323D03*
X93413Y-55012D03*
X97531D03*
X96457Y-60630D03*
X93413Y-52075D03*
X95276Y-53543D03*
X97531Y-52362D03*
X97244Y-42913D03*
X94488D03*
X95669Y-36417D03*
X99606Y-24016D03*
X95276Y-24803D03*
Y-28346D03*
Y-21654D03*
X99213Y-10236D03*
X110276Y-95079D03*
X105512Y-78346D03*
X108661Y-84646D03*
X111811Y-57480D03*
X104331Y-60236D03*
X111378Y-62638D03*
X105118Y-49606D03*
X110630D03*
X107480Y-35827D03*
X113386Y-42891D03*
X107480Y-31496D03*
Y-26772D03*
X108268Y-13780D03*
X105118Y-10236D03*
X111024D03*
X120472Y-54331D03*
X118610Y-56193D03*
X122441Y-56299D03*
X122335Y-52362D03*
X118610D03*
X120866Y-43307D03*
X118610Y-42626D03*
X119685Y-36417D03*
X114961Y-24016D03*
X120866Y-27953D03*
Y-24803D03*
Y-21654D03*
X116929Y-10236D03*
X125591Y-100000D03*
Y-102756D03*
Y-97244D03*
X133858Y-42520D03*
X130315D03*
X131496Y-16535D03*
X136650Y-72476D03*
X142913Y-58268D03*
X137402Y-42913D03*
X139370Y-37795D03*
X136220D03*
Y-35146D03*
X139370D03*
Y-40157D03*
X136220D03*
X148461Y-72457D03*
X150000Y-58268D03*
X149713Y-47244D03*
X149697Y-35827D03*
Y-39370D03*
X154331Y-41248D03*
X155906Y-43307D03*
X152362Y-42913D03*
X149713D03*
X153937Y-16535D03*
X158291Y-104224D03*
X164961Y-53831D03*
X166929Y-52756D03*
X162992D03*
X166535Y-42520D03*
X164173Y-43307D03*
X157874Y-41339D03*
X164961Y-36417D03*
Y-27719D03*
Y-24803D03*
Y-21654D03*
X168898Y-89370D03*
X170866Y-86614D03*
X177165Y-86220D03*
X174016Y-85827D03*
X174409Y-50000D03*
X177165Y-35827D03*
Y-31496D03*
Y-26772D03*
X169291Y-24016D03*
X168504Y-10630D03*
X174016D03*
X186614Y-97638D03*
X182677Y-88583D03*
X179528Y-88189D03*
X187402Y-52362D03*
X179921Y-50000D03*
X187508Y-43413D03*
X182677Y-42626D03*
X184843Y-24016D03*
X185039Y-10630D03*
X179528D03*
X195709Y-104224D03*
X189370Y-97638D03*
X197673Y-72476D03*
X189370Y-53831D03*
X191339Y-52362D03*
X190157Y-43701D03*
X197761Y-42396D03*
X189370Y-36417D03*
X190157Y-28740D03*
Y-25591D03*
Y-22047D03*
X209484Y-72441D03*
X199742Y-58526D03*
X203937Y-58268D03*
X205799Y-40157D03*
X203543Y-42520D03*
X200787Y-43307D03*
X205906Y-37402D03*
Y-35039D03*
X200394Y-16142D03*
X211024Y-58268D03*
X218110Y-46850D03*
X212598D03*
X219331Y-23189D03*
X219291Y-17717D03*
Y-12205D03*
X228307Y-100039D03*
X228346Y-97638D03*
Y-102362D03*
X230709Y-12205D03*
X240551Y-65748D03*
X240945Y-48031D03*
X236811Y-24803D03*
Y-13386D03*
X244882Y-106102D03*
Y-97622D03*
X251969Y-97244D03*
X250787Y-100000D03*
X248979Y-87008D03*
X246850Y-84880D03*
X246457Y-77953D03*
X243307D03*
X250787Y-72441D03*
X243307Y-50394D03*
X251181Y-24803D03*
X244094Y-13386D03*
X259843Y-97244D03*
X255906Y-97638D03*
X253937Y-78543D03*
X257087Y-73622D03*
X260236D03*
X257480Y-56110D03*
X254724D03*
X253937Y-62016D03*
X257087Y-60047D03*
X258661Y-46063D03*
X259843Y-43701D03*
X253150Y-41732D03*
X254331Y-38583D03*
X265854Y-101862D03*
X265748Y-87902D03*
X270283Y-79713D03*
X274220Y-76169D03*
X266929Y-67323D03*
X270079Y-64173D03*
X269685Y-59055D03*
X270079Y-53543D03*
X266535Y-50394D03*
X265931Y-36220D03*
X265840Y-32375D03*
X271443Y-16535D03*
X278346Y-94882D03*
X285039Y-80315D03*
X282094Y-78740D03*
X275197Y-67717D03*
X283071Y-67323D03*
X279921Y-64173D03*
X275197Y-54724D03*
Y-63386D03*
X280315Y-59055D03*
X275197D03*
X279921Y-53543D03*
X275197Y-50394D03*
X283465D03*
X278134Y-41732D03*
X280102Y-39370D03*
X282071Y-42059D03*
X275380Y-16535D03*
X290157Y-101299D03*
X290945Y-106299D03*
X291732Y-91732D03*
X289370Y-76378D03*
X292520Y-74803D03*
X293165Y-60094D03*
X292772Y-54189D03*
X286008Y-32023D03*
X286441Y-28519D03*
X294882Y-22835D03*
X295276Y-13780D03*
X289724Y-17756D03*
X301181Y-101299D03*
X301862Y-91299D03*
Y-96299D03*
X296063Y-94882D03*
X299926Y-75911D03*
X300000Y-78346D03*
X302256Y-74516D03*
X299213Y-61811D03*
X301378Y-59646D03*
X296315Y-60094D03*
X305512Y-44488D03*
X303150Y-47244D03*
X296063Y-54189D03*
Y-33071D03*
X302362Y-26772D03*
X304331Y-10630D03*
X311524Y-91299D03*
X306693Y-88189D03*
X314173Y-94488D03*
X315478Y-87278D03*
X312205Y-68898D03*
X316535D03*
X315748Y-48031D03*
X312205D03*
X309843Y-24016D03*
X316535Y-29134D03*
X314567Y-22835D03*
X315394Y-13740D03*
X309843Y-10630D03*
X317717Y-97638D03*
X325984Y-97350D03*
X327559Y-99500D03*
X324909D03*
X321260Y-94488D03*
X318398Y-87402D03*
X318110Y-84252D03*
X324409Y-83858D03*
X320079Y-66496D03*
Y-56496D03*
Y-61496D03*
X320118Y-46496D03*
X320079Y-51496D03*
X320197Y-36496D03*
X320236Y-41496D03*
X320472Y-26772D03*
X320079Y-31496D03*
X324409Y-9843D03*
X329134Y-97350D03*
X330209Y-99500D03*
X337795Y-83858D03*
X329528D03*
X334933Y-66496D03*
Y-71496D03*
Y-56496D03*
Y-61496D03*
X329921Y-26772D03*
X335433D03*
X332283Y-21224D03*
X329921Y-10236D03*
X344776Y-91339D03*
X343307Y-93701D03*
X344776Y-96063D03*
X344094Y-88976D03*
Y-83858D03*
G54D12*
X39764Y-64961D03*
G54D13*
X35827Y-21142D03*
X42126Y-27441D03*
X48425Y-21142D03*
X42126Y-14843D03*
G54D14*
X42913Y-103937D03*
X60236D03*
G54D15*
X127559Y-112992D03*
Y-72441D03*
X165354Y-112992D03*
Y-72441D03*
X188583Y-112992D03*
Y-72441D03*
X226378Y-112992D03*
Y-72441D03*
G54D16*
X131417Y-92677D03*
Y-82677D03*
X141417Y-92677D03*
Y-82677D03*
X151417Y-92677D03*
Y-82677D03*
X161417Y-92677D03*
Y-82677D03*
X192441Y-92677D03*
Y-82677D03*
X202441Y-92677D03*
Y-82677D03*
X212441Y-92677D03*
Y-82677D03*
X222441Y-92677D03*
Y-82677D03*
M02*
