M48
METRIC,TZ
T01C.2
T02C.7
T03C.9
T04C1.
T05C1.2
T06C2.2
;LEADER: 12 
;HEADER: 
;CODE  : ASCII 
;FILE  : PoF_TMR_A1-JAN-21-26-1-4.drl for board F:/MyJob/PoF_TMR_A1/PCB/#Taaaaro04748.tmp ... layers TOP and BOTTOM
;T01 Holesize 1. = 0.200000 Tolerance = +0.000000/-0.000000 PLATED MM Quantity = 313
;T02 Holesize 2. = 0.700000 Tolerance = +0.000000/-0.000000 PLATED MM Quantity = 16
;T03 Holesize 3. = 0.900000 Tolerance = +0.000000/-0.000000 PLATED MM Quantity = 4
;T04 Holesize 4. = 1.000000 Tolerance = +0.000000/-0.000000 PLATED MM Quantity = 1
;T05 Holesize 5. = 1.200000 Tolerance = +0.000000/-0.000000 PLATED MM Quantity = 2
;T06 Holesize 6. = 2.200000 Tolerance = +0.000000/-0.000000 NON_PLATED MM Quantity = 4
%
G90
T01
X520000Y-1120000
X880000Y-1490000
X1060000Y-1360000
X1130000
X1480000Y-1120000
X1100000Y-1110000
X1640000Y-610000
X1720000Y-700000
X1640000Y-790000
X2002700Y-892700
Y-960000
Y-1030000
X1570000Y-1040000
X2002700Y-1100000
X1660000Y-1120000
X2002700Y-1180000
Y-1250000
X1619000Y-1401000
X1774000Y-1405000
X1697000Y-1404000
X2002000Y-1411000
X1657000Y-1452000
X1738000Y-1455000
X1780000Y-1640000
X2030000Y-2040000
Y-2140000
X2140000Y-2760000
X2350000
X2450000
X2240000Y-2757300
X2140000Y-2690000
X2240000
X2350000
X2450000
X2130000Y-2140000
X2080000Y-2090000
X2130000Y-2040000
X2210000Y-1770000
X2360000Y-1710000
X2450000Y-1540000
X2119700Y-1467000
X2180000Y-1467300
X2147000Y-1418700
X2217700
X2073000Y-1412000
X2372700Y-1397300
X2477300
X2420000Y-1360000
X2477300Y-1330000
X2372700Y-1322700
X2400000Y-1090000
X2470000
X2090000Y-1080000
X2180000
X2430000Y-925000
X2420000Y-720000
Y-630000
X2530000Y-610000
X2420000Y-550000
X2140000Y-410000
X2520000Y-260000
X2970000
X2820000
X2670000
X2750000Y-350000
X2920000Y-610000
X2730000Y-680000
Y-800000
Y-910000
X3040000Y-925000
X3012700Y-1082700
X2880000Y-1089430
X2810000Y-1260000
X2670000
X3012700Y-1330000
Y-1427300
X2840000Y-1460000
X2650000Y-1530000
X2829000Y-1591000
X2680000Y-1990000
X2610000Y-2060000
X2760000Y-2150000
X2801000Y-2415000
X2540000Y-2690000
Y-2760000
X3190000Y-2610000
Y-2540000
Y-2470000
X3470900Y-1840900
X3110000Y-1430000
X3060000Y-1380000
X3107300Y-1330000
X3070000Y-1100000
X3490000Y-1090000
X3310000Y-1080000
X3400000
X3460000Y-1020000
X3540000
X3460000Y-960000
X3540000
X3460000Y-892700
X3540000
X3070000Y-710000
R02Y80000
X3340000Y-420000
X3910000
X3802300Y-910000
Y-1000000
X3920000Y-1047700
X4010000Y-1050000
X3870000Y-1090000
X3802700
X3960000Y-1100000
X3802700Y-1200000
X3810000Y-1480000
X3630000
X3770900Y-1840400
X4020600Y-2647300
X4290000Y-2270000
X4560000Y-2240000
X4340000Y-2200000
X4500000Y-2190000
X4420000Y-2180000
X4190000Y-1367300
X4140000Y-1340000
X4240000
X4430000Y-1270000
X4570000
X4170000Y-1100000
X4230000Y-1080000
X4190000Y-925000
X4500000Y-910000
Y-800000
X4190000Y-704060
X4500000Y-680000
X4190000Y-630000
X4300000Y-610000
X4190000Y-550000
X4280000Y-270000
R03X140000
X4830000Y-560000
X4695000Y-610000
X4830000Y-650000
Y-730000
X4810000Y-925000
X5023130Y-1076870
X4640000Y-1082700
X4762700Y-1102700
X4830000Y-1110000
X4860000Y-1330000
X4760000
X4810000Y-1367300
X5073440Y-1486560
X5020900Y-1840900
X4640000Y-2250000
X4810000Y-2480000
X4740000
X4971000Y-2647300
X5320900Y-1840000
X5180000Y-1480000
X5360000
X5400000Y-1190000
X5540000
X5100000Y-1100000
X5170000Y-1080000
X5227300Y-1020000
X5230000Y-950000
Y-890000
X5571000Y-589000
X5570000Y-450000
X5090000Y-410000
X5570000Y-310000
X5860000
X6015000Y-340000
Y-630000
X5800000Y-2480000
X5799000Y-2541000
X5800000Y-2600000
X6220000Y-2695000
X6370000Y-2540000
X6220000Y-2479600
X6500000Y-2480000
X6400000Y-2470000
X6600000
X6324060Y-2210000
X6270000Y-2155940
X6450000Y-1995000
X6180000Y-1980000
X6260000
X6530000Y-1870000
X6370000Y-1840000
X6110000Y-1670000
X6450000Y-1575200
X6530000Y-1525200
X6470000Y-1425200
X6540000
X6180000Y-1280000
X6120000Y-1220000
X6570000Y-1170000
X6600000Y-1110000
X6430000Y-1060000
X6460000Y-980000
X6380000Y-630000
X6200000Y-340000
X6994650Y-420000
X6894650
X6752330Y-822320
X6754650Y-920000
X7064600Y-1060000
X6990000Y-1280000
X6770000
X7110000Y-1360000
X6860000
X6990000Y-1390000
Y-1500000
X6850000
X6990000Y-1610000
X7110000Y-1630000
X6860000
X6780000Y-1710000
X6990000Y-1720000
X6610000Y-1870000
X6965200Y-1934700
X6865200Y-2024700
X6750000Y-2232700
X7070000Y-2410000
X6752700Y-2587300
X7390000Y-2700000
X7370000Y-2573000
X7520000Y-2410000
X7410000Y-2330000
X7240000Y-2040000
X7165200Y-2000000
X7350000Y-1940000
X7618130Y-1928130
X7430000Y-1900000
X7190000Y-1710000
X7600000Y-1570000
X7446400Y-1526400
X7526400
X7120000Y-1500000
X7436400Y-1376400
X7520000
X7200000Y-1280000
X7164600Y-1068300
X7114600Y-1000000
X7520000Y-840000
X7264600Y-813390
X7275600Y-724390
X7490000Y-580000
X7359000Y-451000
X7500000Y-350000
X7870000Y-270000
X7730000
X8011000Y-349000
X7990000Y-580000
X7870000Y-610000
X7680000Y-680000
X8040000Y-740000
X7760000Y-1130000
X7700000Y-1200000
X8020000Y-1220000
X7930000
X7655000Y-1515000
X8040000Y-1750000
X7930000
X7677300Y-1892700
X7620000Y-1990000
X8080000Y-2140000
X8013130Y-2216870
X8087300Y-2220000
X7790000Y-2240000
X7912700Y-2319000
X7667300
X7980000Y-2400000
X7667300Y-2446000
X8070000Y-2480000
X7650000Y-2573000
X8252700Y-2527300
R02X67300
X8280000Y-2472700
X8360000
X8160000Y-2400000
X8240000Y-2130000
X8370000
X8580000
X8507300Y-1816000
X8130000Y-1689000
X8507300
X8130000Y-1562000
X8507300
X8130000Y-1435000
X8507300
X8130000Y-1308000
X8131000Y-1181000
X8134000Y-1054000
X8133000Y-927000
X8130000Y-800000
X8140000Y-680000
X8380000
X8520000
X8440000Y-539100
X8380000Y-260000
X8240000Y-250000
X8740000Y-2130000
Y-2260000
X8757300Y-2320000
X8720000Y-2380000
X8757300Y-2440000
T02
X3338000Y-2100000
Y-2354000
X3592000
Y-2100000
X3846000
Y-2354000
X4100000
Y-2100000
X4888000
Y-2354000
X5142000
Y-2100000
X5396000
Y-2354000
X5650000
Y-2100000
T03
X910000Y-537000
X1070000Y-697000
X1230000Y-537000
X1070000Y-377000
T04
X1010000Y-1650000
T05
X1090000Y-2640000
X1530000
T06
X300000Y-300000
Y-2700000
X8700000
Y-300000
M30
