M48
METRIC,TZ
T01C1.3
;EXTENTS: -945.040 -685.814 2054.960 1314.186 
;LEADER: 12 
;HEADER: 
;CODE  : ASCII 
;FILE  : F:/MyJob/PoF_TMR_A1/PCB/PoF_TMR_A1-JAN-21-26_1-4.rou for board F:/MyJob/PoF_TMR_A1/PCB/#Taaaarw04748.tmp, layers TOP to BOTTOM
%
G90
F1
M16
T01
M16
G00X5590000Y-2740000
G41
M15
G01Y-3000000
G01X5910000
G01Y-2740000
G01X5590000
M16
G00X4629990
G41
M15
G01Y-3000000
G01X4949990
G01Y-2740000
G01X4629990
M16
G00X4040000
G41
M15
G01Y-3000000
G01X4360000
G01Y-2740000
G01X4040000
M16
G00X3079990
G41
M15
G01Y-3000000
G01X3399990
G01Y-2740000
G01X3079990
M16
G00X5590000Y-1709990
G41
M15
G01Y-1969990
G01X5910000
G01Y-1709990
G01X5590000
M16
G00X4629990
G41
M15
G01Y-1969990
G01X4949990
G01Y-1709990
G01X4629990
M16
G00X4040000
G41
M15
G01Y-1969990
G01X4360000
G01Y-1709990
G01X4040000
M16
G00X3079990
G41
M15
G01Y-1969990
G01X3399990
G01Y-1709990
G01X3079990
M16
G40
M30
