G04 ================== begin FILE IDENTIFICATION RECORD ==================*
G04 Layout Name:  F:/MyJob/PoF_TMR_A1/PCB/PoF_TMR_A1-JAN-21-26.brd*
G04 Film Name:    SILKSCREEN_TOP*
G04 File Format:  Gerber RS274X*
G04 File Origin:  Cadence Allegro 22.1-P001*
G04 Origin Date:  Wed Jan 21 15:19:45 2026*
G04 *
G04 Layer:  REF DES/SILKSCREEN_TOP*
G04 Layer:  PACKAGE GEOMETRY/SILKSCREEN_TOP*
G04 Layer:  BOARD GEOMETRY/SILKSCREEN_TOP*
G04 *
G04 Offset:    (0.0000 0.0000)*
G04 Mirror:    No*
G04 Mode:      Positive*
G04 Rotation:  0*
G04 FullContactRelief:  No*
G04 UndefLineWidth:     0.2540*
G04 ================== end FILE IDENTIFICATION RECORD ====================*
%FSLAX25Y25*MOIN*%
%IR0*IPPOS*OFA0.00000B0.00000*MIA0B0*SFA1.00000B1.00000*%
%ADD10C,.003937*%
%ADD11C,.004331*%
%ADD12C,.007874*%
%ADD13C,.008661*%
%ADD14C,.001575*%
%ADD15C,.001969*%
G75*
%LPD*%
G75*
G36*
G01X68110Y-11299D02*
X53937D01*
Y-30984D01*
X68110D01*
Y-11299D01*
G37*
G36*
G01X70996Y-89311D02*
Y-93248D01*
X74933D01*
X74717Y-93031D01*
X70996Y-89311D01*
G37*
G36*
G01X98031Y-40945D02*
X100591D01*
X98031Y-38386D01*
Y-40945D01*
G37*
G36*
G01X120315Y-118740D02*
X134094D01*
Y-106929D01*
X120315D01*
Y-118740D01*
G37*
G36*
G01Y-78386D02*
X134094D01*
Y-66575D01*
X120315D01*
Y-78386D01*
G37*
G36*
G01X158661Y-118740D02*
X172441D01*
Y-106929D01*
X158661D01*
Y-118740D01*
G37*
G36*
G01Y-78386D02*
X172441D01*
Y-66575D01*
X158661D01*
Y-78386D01*
G37*
G36*
G01X167717Y-40945D02*
X170276D01*
X167717Y-38386D01*
Y-40945D01*
G37*
G36*
G01X181339Y-118740D02*
X195118D01*
Y-106929D01*
X181339D01*
Y-118740D01*
G37*
G36*
G01Y-78386D02*
X195118D01*
Y-66575D01*
X181339D01*
Y-78386D01*
G37*
G36*
G01X219685Y-118740D02*
X233465D01*
Y-106929D01*
X219685D01*
Y-118740D01*
G37*
G36*
G01Y-78386D02*
X233465D01*
Y-66575D01*
X219685D01*
Y-78386D01*
G37*
G36*
G01X241772Y-23622D02*
X240433D01*
X241772Y-22283D01*
Y-23622D01*
G37*
G36*
G01X262387Y-44350D02*
G03I-1954J0D01*
G37*
G36*
G01X270760Y-95681D02*
X270752D01*
X268654Y-93583D01*
Y-93575D01*
X270807D01*
X270819Y-93587D01*
Y-95622D01*
X270760Y-95681D01*
G37*
G36*
G01X291443Y-14646D02*
Y-17402D01*
X288687Y-14646D01*
X291443D01*
G37*
G36*
G01X311417Y-109055D02*
Y-107480D01*
Y-106693D01*
X309055Y-109055D01*
X309843D01*
X311417D01*
G37*
G54D10*
G01X24213Y-56339D02*
X29449D01*
Y-60945D01*
X21772D01*
Y-56339D01*
X24213D01*
G01X26339Y-39961D02*
Y-45197D01*
X21732D01*
Y-37520D01*
X26339D01*
Y-39961D01*
G01X21693Y-52165D02*
Y-46929D01*
X26299D01*
Y-54606D01*
X21693D01*
Y-52165D01*
G01X26339Y-30906D02*
Y-36142D01*
X21732D01*
Y-28465D01*
X26339D01*
Y-30906D01*
G01X43193Y-64961D02*
G03I-3429J0D01*
G01X32638Y-30906D02*
Y-36142D01*
X28031D01*
Y-28465D01*
X32638D01*
Y-30906D01*
G01X44094Y-90947D02*
Y-70868D01*
X61417D01*
Y-93703D01*
X44094D01*
Y-90947D01*
G01X45630Y-47047D02*
Y-52283D01*
X41024D01*
Y-44606D01*
X45630D01*
Y-47047D01*
G01Y-37598D02*
Y-42835D01*
X41024D01*
Y-35157D01*
X45630D01*
Y-37598D01*
G01X53937Y-87797D02*
Y-76774D01*
G01X52756Y-87797D02*
Y-76774D01*
G01X51575Y-80711D02*
G02Y-77955I66J1378D01*
G01Y-83467D02*
G02Y-80711I66J1378D01*
G01Y-86222D02*
G02Y-83467I66J1378D01*
G01X59488Y-47441D02*
Y-42205D01*
X64094D01*
Y-49882D01*
X59488D01*
Y-47441D01*
G01X63819Y-92165D02*
Y-85354D01*
X68504D01*
Y-93346D01*
X63819D01*
Y-92165D01*
G01Y-77992D02*
Y-71181D01*
X68504D01*
Y-79173D01*
X63819D01*
Y-77992D01*
G01X69252Y-60827D02*
Y-66063D01*
X64646D01*
Y-58386D01*
X69252D01*
Y-60827D01*
G01X77559Y-97244D02*
X70866D01*
Y-104331D01*
X77559D01*
G01X70799Y-87106D02*
Y-71094D01*
X92898D01*
Y-93445D01*
X70799D01*
Y-87106D01*
G01X77559Y-65748D02*
X70866D01*
Y-58661D01*
X77559D01*
G01X87008Y-44094D02*
X80315D01*
Y-51181D01*
X87008D01*
G01X92126Y-19882D02*
Y-41339D01*
X80315D01*
Y-18898D01*
X92126D01*
Y-19882D01*
G01X82283Y-97244D02*
X88976D01*
Y-104331D01*
X82283D01*
G01X90984Y-103209D02*
Y-96398D01*
X95669D01*
Y-104390D01*
X90984D01*
Y-103209D01*
G01X82283Y-65748D02*
X88976D01*
Y-58661D01*
X82283D01*
G01X95236Y-61220D02*
Y-66457D01*
X90630D01*
Y-58780D01*
X95236D01*
Y-61220D01*
G01X86220Y-29134D02*
G02Y-31102I0J-984D01*
G01D02*
Y-33465D01*
G01Y-26772D02*
Y-29134D01*
G01X101929Y-99016D02*
Y-104252D01*
X97323D01*
Y-96575D01*
X101929D01*
Y-99016D01*
G01X102165Y-91693D02*
X96929D01*
Y-87087D01*
X104606D01*
Y-91693D01*
X102165D01*
G01X99409Y-81535D02*
X104646D01*
Y-86142D01*
X96969D01*
Y-81535D01*
X99409D01*
G01Y-76024D02*
X104646D01*
Y-80630D01*
X96969D01*
Y-76024D01*
X99409D01*
G01X101142Y-69488D02*
Y-74724D01*
X96535D01*
Y-67047D01*
X101142D01*
Y-69488D01*
G01X102402Y-73661D02*
Y-66850D01*
X107087D01*
Y-74843D01*
X102402D01*
Y-73661D01*
G01X91732Y-44094D02*
X98425D01*
Y-51181D01*
X91732D01*
G01X104685Y-46260D02*
Y-51496D01*
X100079D01*
Y-43819D01*
X104685D01*
Y-46260D01*
G01X101575Y-22047D02*
X117126D01*
Y-40945D01*
X98031D01*
Y-22047D01*
X101575D01*
G01X101535Y-12953D02*
Y-19764D01*
X96850D01*
Y-11772D01*
X101535D01*
Y-12953D01*
G01X103189Y-101772D02*
Y-96535D01*
X107795D01*
Y-104213D01*
X103189D01*
Y-101772D01*
G01X106339Y-90354D02*
Y-85118D01*
X110945D01*
Y-92795D01*
X106339D01*
Y-90354D01*
G01Y-81693D02*
Y-76457D01*
X110945D01*
Y-84134D01*
X106339D01*
Y-81693D01*
G01X107677Y-59803D02*
X102441D01*
Y-55197D01*
X110118D01*
Y-59803D01*
X107677D01*
G01X107717Y-64961D02*
X102480D01*
Y-60354D01*
X110157D01*
Y-64961D01*
X107717D01*
G01X115709Y-46260D02*
Y-51496D01*
X111102D01*
Y-43819D01*
X115709D01*
Y-46260D01*
G01X110197D02*
Y-51496D01*
X105591D01*
Y-43819D01*
X110197D01*
Y-46260D01*
G01X102795Y-17126D02*
Y-11890D01*
X107402D01*
Y-19567D01*
X102795D01*
Y-17126D01*
G01X113346Y-14370D02*
Y-19606D01*
X108740D01*
Y-11929D01*
X113346D01*
Y-14370D01*
G01X120866Y-66929D02*
X133858D01*
Y-77953D01*
X120472D01*
Y-67323D01*
X120866Y-66929D01*
G01X124016Y-51181D02*
X117323D01*
Y-44094D01*
X124016D01*
G01X135433Y-19882D02*
Y-41339D01*
X123622D01*
Y-18898D01*
X135433D01*
Y-19882D01*
G01X114606Y-17126D02*
Y-11890D01*
X119213D01*
Y-19567D01*
X114606D01*
Y-17126D01*
G01X128740Y-51181D02*
X135433D01*
Y-44094D01*
X128740D01*
G01X129528Y-29134D02*
G02Y-31102I0J-984D01*
G01D02*
Y-33465D01*
G01Y-26772D02*
Y-29134D01*
G01X140354Y-107480D02*
X141929Y-105906D01*
X140354Y-104331D01*
Y-107480D01*
G01X141929Y-104331D02*
Y-107480D01*
G01X143110Y-105906D02*
X139173D01*
G01X156693Y-44488D02*
X150000D01*
Y-51575D01*
X156693D01*
G01X161811Y-19882D02*
Y-41339D01*
X150000D01*
Y-18898D01*
X161811D01*
Y-19882D01*
G01X155906Y-29134D02*
G02Y-31102I0J-984D01*
G01D02*
Y-33465D01*
G01Y-26772D02*
Y-29134D01*
G01X161417Y-44488D02*
X168110D01*
Y-51575D01*
X161417D01*
G01X170827Y-12894D02*
Y-19705D01*
X166142D01*
Y-11713D01*
X170827D01*
Y-12894D01*
G01X173976Y-46654D02*
Y-51890D01*
X169370D01*
Y-44213D01*
X173976D01*
Y-46654D01*
G01X179488D02*
Y-51890D01*
X174882D01*
Y-44213D01*
X179488D01*
Y-46654D01*
G01X171260Y-22047D02*
X186811D01*
Y-40945D01*
X167717D01*
Y-22047D01*
X171260D01*
G01X171693Y-17126D02*
Y-11890D01*
X176299D01*
Y-19567D01*
X171693D01*
Y-17126D01*
G01X181850Y-14331D02*
Y-19567D01*
X177244D01*
Y-11890D01*
X181850D01*
Y-14331D01*
G01X192913Y-51575D02*
X186220D01*
Y-44488D01*
X192913D01*
G01X185000Y-46654D02*
Y-51890D01*
X180394D01*
Y-44213D01*
X185000D01*
Y-46654D01*
G01X182717Y-17126D02*
Y-11890D01*
X187323D01*
Y-19567D01*
X182717D01*
Y-17126D01*
G01X197638Y-51575D02*
X204331D01*
Y-44488D01*
X197638D01*
G01X204331Y-19882D02*
Y-41339D01*
X192520D01*
Y-18898D01*
X204331D01*
Y-19882D01*
G01X198425Y-29134D02*
G02Y-31102I0J-984D01*
G01D02*
Y-33465D01*
G01Y-26772D02*
Y-29134D01*
G01X226181Y-25512D02*
X220945D01*
Y-20906D01*
X228622D01*
Y-25512D01*
X226181D01*
G01X227598Y-14528D02*
X220787D01*
Y-9843D01*
X228780D01*
Y-14528D01*
X227598D01*
G01Y-20039D02*
X220787D01*
Y-15354D01*
X228780D01*
Y-20039D01*
X227598D01*
G01X235630Y-23622D02*
X231850D01*
Y-14567D01*
X241772D01*
Y-23622D01*
X235630D01*
G01X268531Y-110098D02*
X268559D01*
Y-112126D01*
X245453D01*
Y-110083D01*
G01X270815Y-105323D02*
X270874D01*
Y-110091D01*
X243134D01*
Y-105276D01*
G01X243126Y-98453D02*
X243114D01*
Y-93571D01*
X248941D01*
G01X247835Y-18937D02*
X253071D01*
Y-23543D01*
X245394D01*
Y-18937D01*
X247835D01*
G01X250591Y-15709D02*
X245354D01*
Y-11102D01*
X253031D01*
Y-15709D01*
X250591D01*
G01X291482Y-15433D02*
Y-38976D01*
X259199D01*
Y-14567D01*
X291482D01*
Y-15433D01*
G01X264819Y-93528D02*
X270846D01*
Y-98417D01*
G01X273228Y-87008D02*
G03I-2362J0D01*
G01X275197Y-48917D02*
X285335D01*
Y-69193D01*
X265059D01*
Y-48917D01*
X275197D01*
G01X307480Y-109055D02*
X279921D01*
Y-88583D01*
X311417D01*
Y-109055D01*
X307087D01*
G01X283071Y-83465D02*
G03I-2362J0D01*
G01X293504Y-81142D02*
X298740D01*
Y-85748D01*
X291063D01*
Y-81142D01*
X293504D01*
G01X316339Y-85984D02*
X302717D01*
Y-72756D01*
X316929D01*
Y-85984D01*
X316339D01*
G01X307480Y-31496D02*
G03I-2362J0D01*
G01X310236Y-40551D02*
G03I-2362J0D01*
G01X301772Y-25157D02*
X296535D01*
Y-20551D01*
X304213D01*
Y-25157D01*
X301772D01*
G01X301142Y-14370D02*
Y-19606D01*
X296535D01*
Y-11929D01*
X301142D01*
Y-14370D01*
G01X302008Y-17126D02*
Y-11890D01*
X306614D01*
Y-19567D01*
X302008D01*
Y-17126D01*
G01X305512Y-9055D02*
X307087Y-10630D01*
X308661Y-9055D01*
X305512D01*
G01Y-10630D02*
X308661D01*
G01X320039Y-89724D02*
Y-96535D01*
X315354D01*
Y-88543D01*
X320039D01*
Y-89724D01*
G01X317677Y-76102D02*
Y-72008D01*
X313071D01*
G01X317717Y-55906D02*
G03I-2362J0D01*
G01X315748Y-61417D02*
G03I-2362J0D01*
G01X311417Y-51969D02*
G03I-2362J0D01*
G01X316142Y-36614D02*
G03I-2362J0D01*
G01X307520Y-17126D02*
Y-11890D01*
X312126D01*
Y-19567D01*
X307520D01*
Y-17126D01*
G01X307087Y-7874D02*
Y-11811D01*
G01X330709Y-89370D02*
X324016D01*
Y-96457D01*
X330709D01*
G01Y-80709D02*
X324016D01*
Y-87795D01*
X330709D01*
G01X330276Y-73819D02*
Y-79055D01*
X325669D01*
Y-71378D01*
X330276D01*
Y-73819D01*
G01X324764D02*
Y-79055D01*
X320157D01*
Y-71378D01*
X324764D01*
Y-73819D01*
G01X323583Y-65394D02*
X330394D01*
Y-70079D01*
X322402D01*
Y-65394D01*
X323583D01*
G01X326732Y-52323D02*
Y-59134D01*
X322047D01*
Y-51142D01*
X326732D01*
Y-52323D01*
G01X326772Y-62205D02*
G03I-2362J0D01*
G01X325984Y-44488D02*
G03I-2362J0D01*
G01X326575Y-33898D02*
X331811D01*
Y-38504D01*
X324134D01*
Y-33898D01*
X326575D01*
G01X321850Y-25157D02*
X316614D01*
Y-20551D01*
X324291D01*
Y-25157D01*
X321850D01*
G01X326575Y-28386D02*
X331811D01*
Y-32992D01*
X324134D01*
Y-28386D01*
X326575D01*
G01X321220Y-14331D02*
Y-19567D01*
X316614D01*
Y-11890D01*
X321220D01*
Y-14331D01*
G01X322087Y-17126D02*
Y-11890D01*
X326693D01*
Y-19567D01*
X322087D01*
Y-17126D01*
G01X327165Y-7874D02*
Y-11811D01*
G01X325591Y-9055D02*
X327165Y-10630D01*
X328740Y-9055D01*
X325591D01*
G01Y-10630D02*
X328740D01*
G01X335433Y-89370D02*
X342126D01*
Y-96457D01*
X335433D01*
G01Y-80709D02*
X342126D01*
Y-87795D01*
X335433D01*
G01X333110Y-33661D02*
Y-28425D01*
X337717D01*
Y-36102D01*
X333110D01*
Y-33661D01*
G01X337402Y-27165D02*
X340551D01*
G01X337402Y-25591D02*
X338976Y-27165D01*
X340551Y-25591D01*
X337402D01*
G01X327598Y-17126D02*
Y-11890D01*
X332205D01*
Y-19567D01*
X327598D01*
Y-17126D01*
G01X340197Y-33661D02*
Y-28425D01*
X344803D01*
Y-36102D01*
X340197D01*
Y-33661D01*
G01X338976Y-24409D02*
Y-28346D01*
G54D11*
G01X2165Y-92520D02*
X5315D01*
G01X2165Y-93123D02*
Y-91916D01*
G01X5315Y-90709D02*
X2165D01*
G01Y-89606D02*
X5315D01*
G01X3740D02*
Y-90709D01*
G01X2165Y-88110D02*
Y-87480D01*
G01Y-87795D02*
X5315D01*
G01Y-88110D02*
Y-87480D01*
G01X4895Y-85984D02*
X5157Y-85774D01*
X5315Y-85538D01*
Y-85328D01*
X5157Y-85118D01*
X4895Y-84961D01*
X4528Y-84882D01*
X4160Y-84934D01*
X3845Y-85066D01*
X3635Y-85302D01*
X3530Y-85617D01*
X3320Y-85800D01*
X2953Y-85879D01*
X2585Y-85827D01*
X2323Y-85696D01*
X2165Y-85512D01*
Y-85328D01*
X2270Y-85144D01*
X2533Y-84987D01*
G01X4895Y-81260D02*
X5157Y-81050D01*
X5315Y-80814D01*
Y-80604D01*
X5157Y-80394D01*
X4895Y-80236D01*
X4528Y-80157D01*
X4160Y-80210D01*
X3845Y-80341D01*
X3635Y-80578D01*
X3530Y-80893D01*
X3320Y-81076D01*
X2953Y-81155D01*
X2585Y-81102D01*
X2323Y-80971D01*
X2165Y-80787D01*
Y-80604D01*
X2270Y-80420D01*
X2533Y-80263D01*
G01X2165Y-78661D02*
Y-78031D01*
G01Y-78346D02*
X5315D01*
G01Y-78661D02*
Y-78031D01*
G01Y-76562D02*
X2165D01*
Y-76037D01*
X2323Y-75827D01*
X2533Y-75669D01*
X2848Y-75538D01*
X3215Y-75433D01*
X3740Y-75407D01*
X4265Y-75433D01*
X4633Y-75538D01*
X4948Y-75669D01*
X5157Y-75827D01*
X5315Y-76037D01*
Y-76562D01*
G01Y-73097D02*
Y-74147D01*
X2165D01*
Y-73097D01*
G01X3688Y-73517D02*
Y-74147D01*
G01X2165Y-69475D02*
X4422D01*
X4895Y-69370D01*
X5210Y-69160D01*
X5315Y-68898D01*
X5210Y-68635D01*
X4895Y-68425D01*
X4422Y-68320D01*
X2165D01*
G01X5315Y-67060D02*
X2165D01*
Y-66430D01*
X2323Y-66220D01*
X2690Y-66063D01*
X3110Y-66011D01*
X3530Y-66063D01*
X3845Y-66194D01*
X4003Y-66430D01*
Y-67060D01*
G01X20735Y-116142D02*
Y-112992D01*
X21365D01*
X21575Y-113150D01*
X21732Y-113517D01*
X21785Y-113937D01*
X21732Y-114357D01*
X21601Y-114672D01*
X21365Y-114830D01*
X20735D01*
G01X23071Y-116142D02*
Y-112992D01*
G01X24173D02*
Y-116142D01*
G01Y-114567D02*
X23071D01*
G01X25984Y-116142D02*
X25774Y-116089D01*
X25591Y-115879D01*
X25433Y-115564D01*
X25328Y-115197D01*
X25276Y-114777D01*
Y-114357D01*
X25328Y-113937D01*
X25433Y-113570D01*
X25591Y-113255D01*
X25774Y-113044D01*
X25984Y-112992D01*
X26194Y-113044D01*
X26378Y-113255D01*
X26535Y-113570D01*
X26641Y-113937D01*
X26693Y-114357D01*
Y-114777D01*
X26641Y-115197D01*
X26535Y-115564D01*
X26378Y-115879D01*
X26194Y-116089D01*
X25984Y-116142D01*
G01X28346Y-112992D02*
Y-116142D01*
G01X27743Y-112992D02*
X28950D01*
G01X30709Y-116142D02*
X30499Y-116089D01*
X30315Y-115879D01*
X30157Y-115564D01*
X30052Y-115197D01*
X30000Y-114777D01*
Y-114357D01*
X30052Y-113937D01*
X30157Y-113570D01*
X30315Y-113255D01*
X30499Y-113044D01*
X30709Y-112992D01*
X30919Y-113044D01*
X31102Y-113255D01*
X31260Y-113570D01*
X31365Y-113937D01*
X31417Y-114357D01*
Y-114777D01*
X31365Y-115197D01*
X31260Y-115564D01*
X31102Y-115879D01*
X30919Y-116089D01*
X30709Y-116142D01*
G01X32415Y-112992D02*
X33071Y-116142D01*
X33727Y-112992D01*
G01X35433Y-116142D02*
X35223Y-116089D01*
X35039Y-115879D01*
X34882Y-115564D01*
X34777Y-115197D01*
X34724Y-114777D01*
Y-114357D01*
X34777Y-113937D01*
X34882Y-113570D01*
X35039Y-113255D01*
X35223Y-113044D01*
X35433Y-112992D01*
X35643Y-113044D01*
X35827Y-113255D01*
X35984Y-113570D01*
X36089Y-113937D01*
X36142Y-114357D01*
Y-114777D01*
X36089Y-115197D01*
X35984Y-115564D01*
X35827Y-115879D01*
X35643Y-116089D01*
X35433Y-116142D01*
G01X37270Y-112992D02*
Y-116142D01*
X38320D01*
G01X40157Y-112992D02*
Y-116142D01*
G01X39554Y-112992D02*
X40761D01*
G01X41863Y-116142D02*
X42520Y-112992D01*
X43176Y-116142D01*
G01X42940Y-115039D02*
X42100D01*
G01X44567Y-112992D02*
X45197D01*
G01X44882D02*
Y-116142D01*
G01X44567D02*
X45197D01*
G01X47822Y-113255D02*
X47664Y-113097D01*
X47480Y-112992D01*
X47270D01*
X47034Y-113150D01*
X46850Y-113412D01*
X46719Y-113727D01*
X46614Y-114252D01*
X46588Y-114724D01*
X46641Y-115197D01*
X46719Y-115512D01*
X46877Y-115827D01*
X47060Y-116037D01*
X47244Y-116142D01*
X47428D01*
X47611Y-116037D01*
X47769Y-115879D01*
X47900Y-115669D01*
G01X52546Y-113255D02*
X52389Y-113097D01*
X52205Y-112992D01*
X51995D01*
X51759Y-113150D01*
X51575Y-113412D01*
X51444Y-113727D01*
X51339Y-114252D01*
X51312Y-114724D01*
X51365Y-115197D01*
X51444Y-115512D01*
X51601Y-115827D01*
X51785Y-116037D01*
X51969Y-116142D01*
X52152D01*
X52336Y-116037D01*
X52493Y-115879D01*
X52625Y-115669D01*
G01X54856Y-116142D02*
X53806D01*
Y-112992D01*
X54856D01*
G01X54436Y-114515D02*
X53806D01*
G01X56168Y-112992D02*
Y-116142D01*
X57218D01*
G01X58530Y-112992D02*
Y-116142D01*
X59580D01*
G01X63228D02*
Y-112992D01*
G01X64331D02*
Y-116142D01*
G01Y-114567D02*
X63228D01*
G01X65485Y-116142D02*
X66142Y-112992D01*
X66798Y-116142D01*
G01X66562Y-115039D02*
X65722D01*
G01X67979Y-116142D02*
Y-112992D01*
X68635D01*
X68845Y-113150D01*
X68976Y-113359D01*
X69029Y-113780D01*
X68976Y-114200D01*
X68819Y-114462D01*
X68635Y-114619D01*
X67979D01*
G01X68635D02*
X69029Y-116142D01*
G01X70210Y-112992D02*
X70866Y-116142D01*
X71522Y-112992D01*
G01X73753Y-116142D02*
X72704D01*
Y-112992D01*
X73753D01*
G01X73333Y-114515D02*
X72704D01*
G01X75039Y-115722D02*
X75249Y-115984D01*
X75485Y-116142D01*
X75696D01*
X75906Y-115984D01*
X76063Y-115722D01*
X76142Y-115354D01*
X76089Y-114987D01*
X75958Y-114672D01*
X75722Y-114462D01*
X75407Y-114357D01*
X75223Y-114147D01*
X75144Y-113780D01*
X75197Y-113412D01*
X75328Y-113150D01*
X75512Y-112992D01*
X75696D01*
X75879Y-113097D01*
X76037Y-113359D01*
G01X77953Y-112992D02*
Y-116142D01*
G01X77349Y-112992D02*
X78556D01*
G01X80840Y-116142D02*
X79790D01*
Y-112992D01*
X80840D01*
G01X80420Y-114515D02*
X79790D01*
G01X82152Y-116142D02*
Y-112992D01*
X82808D01*
X83019Y-113150D01*
X83150Y-113359D01*
X83202Y-113780D01*
X83150Y-114200D01*
X82992Y-114462D01*
X82808Y-114619D01*
X82152D01*
G01X82808D02*
X83202Y-116142D01*
G01X86877D02*
Y-112992D01*
X87533D01*
X87743Y-113150D01*
X87874Y-113359D01*
X87926Y-113780D01*
X87874Y-114200D01*
X87717Y-114462D01*
X87533Y-114619D01*
X86877D01*
G01X87533D02*
X87926Y-116142D01*
G01X90289D02*
X89239D01*
Y-112992D01*
X90289D01*
G01X89869Y-114515D02*
X89239D01*
G01X91470Y-112992D02*
X92126Y-116142D01*
X92782Y-112992D01*
G01X93832Y-116142D02*
X94488Y-112992D01*
X95144Y-116142D01*
G01X94908Y-115039D02*
X94068D01*
G01X96850Y-116142D02*
Y-112992D01*
X96535Y-113622D01*
G01Y-116142D02*
X97165D01*
G01X101050Y-115512D02*
X101181Y-115827D01*
X101339Y-116037D01*
X101522Y-116142D01*
X101732Y-116037D01*
X101890Y-115827D01*
X102047Y-115512D01*
X102100Y-115092D01*
Y-112992D01*
G01X103281Y-116142D02*
X103937Y-112992D01*
X104593Y-116142D01*
G01X104357Y-115039D02*
X103517D01*
G01X105696Y-116142D02*
Y-112992D01*
X106903Y-116142D01*
Y-112992D01*
G01X108163Y-113517D02*
X108320Y-113202D01*
X108504Y-113044D01*
X108714Y-112992D01*
X108976Y-113097D01*
X109160Y-113359D01*
X109213Y-113674D01*
X109186Y-113990D01*
X109081Y-114252D01*
X108556Y-114777D01*
X108320Y-115144D01*
X108163Y-115669D01*
X108110Y-116142D01*
X109213D01*
G01X111024Y-112992D02*
X110814Y-113097D01*
X110656Y-113359D01*
X110551Y-113674D01*
X110472Y-114094D01*
X110446Y-114567D01*
X110472Y-115039D01*
X110551Y-115459D01*
X110656Y-115774D01*
X110814Y-116037D01*
X111024Y-116142D01*
X111233Y-116037D01*
X111391Y-115774D01*
X111496Y-115459D01*
X111575Y-115039D01*
X111601Y-114567D01*
X111575Y-114094D01*
X111496Y-113674D01*
X111391Y-113359D01*
X111233Y-113097D01*
X111024Y-112992D01*
G01X112887Y-113517D02*
X113044Y-113202D01*
X113228Y-113044D01*
X113438Y-112992D01*
X113701Y-113097D01*
X113885Y-113359D01*
X113937Y-113674D01*
X113911Y-113990D01*
X113806Y-114252D01*
X113281Y-114777D01*
X113044Y-115144D01*
X112887Y-115669D01*
X112835Y-116142D01*
X113937D01*
G01X115249Y-114830D02*
X115433Y-114462D01*
X115591Y-114252D01*
X115800Y-114147D01*
X115984Y-114252D01*
X116115Y-114462D01*
X116220Y-114777D01*
X116247Y-115144D01*
X116220Y-115459D01*
X116115Y-115774D01*
X115958Y-116037D01*
X115774Y-116142D01*
X115564Y-116037D01*
X115381Y-115722D01*
X115276Y-115249D01*
X115249Y-114724D01*
X115302Y-114042D01*
X115381Y-113674D01*
X115512Y-113307D01*
X115696Y-113044D01*
X115879Y-112992D01*
X116063Y-113097D01*
X116194Y-113359D01*
G01X29685Y-103937D02*
X30210D01*
Y-104882D01*
X30052Y-105197D01*
X29869Y-105407D01*
X29606Y-105512D01*
X29344Y-105407D01*
X29160Y-105197D01*
X29003Y-104882D01*
X28898Y-104515D01*
X28845Y-104094D01*
Y-103727D01*
X28898Y-103412D01*
X29003Y-103044D01*
X29160Y-102730D01*
X29318Y-102520D01*
X29528Y-102362D01*
X29711D01*
X29921Y-102467D01*
X30079Y-102677D01*
G01X31286Y-105512D02*
Y-102362D01*
X32493Y-105512D01*
Y-102362D01*
G01X33674Y-105512D02*
Y-102362D01*
X34200D01*
X34409Y-102520D01*
X34567Y-102730D01*
X34698Y-103044D01*
X34803Y-103412D01*
X34830Y-103937D01*
X34803Y-104462D01*
X34698Y-104830D01*
X34567Y-105144D01*
X34409Y-105354D01*
X34200Y-105512D01*
X33674D01*
G01X48556Y-97638D02*
X49213Y-100787D01*
X49869Y-97638D01*
G01X51260D02*
X51890D01*
G01X51575D02*
Y-100787D01*
G01X51260D02*
X51890D01*
G01X53333D02*
Y-97638D01*
X54541Y-100787D01*
Y-97638D01*
G01X65564Y-52283D02*
X65722Y-52546D01*
X65906Y-52704D01*
X66142Y-52756D01*
X66378Y-52651D01*
X66562Y-52441D01*
X66693Y-52074D01*
X66719Y-51654D01*
X66667Y-51233D01*
X66535Y-50971D01*
X66352Y-50761D01*
X66168Y-50709D01*
X65984Y-50761D01*
X65748Y-50971D01*
X65827Y-49606D01*
X66535D01*
G01X67848D02*
X68504Y-52756D01*
X69160Y-49606D01*
G01X70866D02*
X70656Y-49711D01*
X70499Y-49974D01*
X70394Y-50289D01*
X70315Y-50709D01*
X70289Y-51181D01*
X70315Y-51654D01*
X70394Y-52074D01*
X70499Y-52389D01*
X70656Y-52651D01*
X70866Y-52756D01*
X71076Y-52651D01*
X71233Y-52389D01*
X71339Y-52074D01*
X71417Y-51654D01*
X71444Y-51181D01*
X71417Y-50709D01*
X71339Y-50289D01*
X71233Y-49974D01*
X71076Y-49711D01*
X70866Y-49606D01*
G01X69107Y-38740D02*
X69265Y-39107D01*
X69475Y-39318D01*
X69711Y-39370D01*
X69921Y-39318D01*
X70131Y-39055D01*
X70263Y-38740D01*
X70289Y-38425D01*
X70236Y-38058D01*
X70052Y-37795D01*
X69869Y-37690D01*
X69633D01*
G01X69869D02*
X70026Y-37533D01*
X70157Y-37270D01*
X70210Y-36956D01*
X70157Y-36641D01*
X70026Y-36378D01*
X69790Y-36220D01*
X69554Y-36273D01*
X69318Y-36483D01*
G01X71391Y-36220D02*
X72047Y-39370D01*
X72704Y-36220D01*
G01X73832Y-38740D02*
X73989Y-39107D01*
X74200Y-39318D01*
X74436Y-39370D01*
X74646Y-39318D01*
X74856Y-39055D01*
X74987Y-38740D01*
X75013Y-38425D01*
X74961Y-38058D01*
X74777Y-37795D01*
X74593Y-37690D01*
X74357D01*
G01X74593D02*
X74751Y-37533D01*
X74882Y-37270D01*
X74934Y-36956D01*
X74882Y-36641D01*
X74751Y-36378D01*
X74515Y-36220D01*
X74278Y-36273D01*
X74042Y-36483D01*
G01X129029Y-53674D02*
X129186Y-53359D01*
X129370Y-53202D01*
X129580Y-53150D01*
X129843Y-53255D01*
X130026Y-53517D01*
X130079Y-53832D01*
X130052Y-54147D01*
X129948Y-54409D01*
X129422Y-54934D01*
X129186Y-55302D01*
X129029Y-55827D01*
X128976Y-56299D01*
X130079D01*
G01X131233Y-53150D02*
X131890Y-56299D01*
X132546Y-53150D01*
G01X134252Y-56299D02*
X134436Y-56247D01*
X134646Y-56089D01*
X134777Y-55827D01*
X134830Y-55459D01*
X134777Y-55092D01*
X134619Y-54777D01*
X134383Y-54619D01*
X134121D01*
X133963Y-54515D01*
X133832Y-54252D01*
X133780Y-53885D01*
X133858Y-53517D01*
X134042Y-53255D01*
X134252Y-53150D01*
X134462Y-53255D01*
X134646Y-53517D01*
X134724Y-53885D01*
X134672Y-54252D01*
X134541Y-54515D01*
X134383Y-54619D01*
X134121D01*
X133885Y-54777D01*
X133727Y-55092D01*
X133674Y-55459D01*
X133727Y-55827D01*
X133858Y-56089D01*
X134068Y-56247D01*
X134252Y-56299D01*
G01X150394D02*
Y-53150D01*
X150079Y-53780D01*
G01Y-56299D02*
X150709D01*
G01X152100Y-53150D02*
X152756Y-56299D01*
X153412Y-53150D01*
G01X155118Y-56299D02*
X155302Y-56247D01*
X155512Y-56089D01*
X155643Y-55827D01*
X155696Y-55459D01*
X155643Y-55092D01*
X155485Y-54777D01*
X155249Y-54619D01*
X154987D01*
X154830Y-54515D01*
X154698Y-54252D01*
X154646Y-53885D01*
X154724Y-53517D01*
X154908Y-53255D01*
X155118Y-53150D01*
X155328Y-53255D01*
X155512Y-53517D01*
X155591Y-53885D01*
X155538Y-54252D01*
X155407Y-54515D01*
X155249Y-54619D01*
X154987D01*
X154751Y-54777D01*
X154593Y-55092D01*
X154541Y-55459D01*
X154593Y-55827D01*
X154724Y-56089D01*
X154934Y-56247D01*
X155118Y-56299D01*
G01X160236Y-62205D02*
Y-65354D01*
G01X159633Y-62205D02*
X160840D01*
G01X162047Y-65354D02*
X163150Y-62205D01*
G01X162047D02*
X163150Y-65354D01*
G01X165538Y-62467D02*
X165381Y-62310D01*
X165197Y-62205D01*
X164987D01*
X164751Y-62362D01*
X164567Y-62625D01*
X164436Y-62940D01*
X164331Y-63465D01*
X164304Y-63937D01*
X164357Y-64409D01*
X164436Y-64724D01*
X164593Y-65039D01*
X164777Y-65249D01*
X164961Y-65354D01*
X165144D01*
X165328Y-65249D01*
X165485Y-65092D01*
X165617Y-64882D01*
G01X166772Y-65354D02*
Y-62205D01*
G01X167874D02*
Y-65354D01*
G01Y-63780D02*
X166772D01*
G01X169685Y-65354D02*
Y-62205D01*
X169370Y-62835D01*
G01Y-65354D02*
X170000D01*
G01X209449Y-50394D02*
X206299D01*
X206929Y-50709D01*
G01X209449D02*
Y-50079D01*
G01X206299Y-48688D02*
X209449Y-48031D01*
X206299Y-47375D01*
G01X206824Y-46168D02*
X206509Y-46011D01*
X206352Y-45827D01*
X206299Y-45617D01*
X206404Y-45354D01*
X206667Y-45170D01*
X206981Y-45118D01*
X207297Y-45144D01*
X207559Y-45249D01*
X208084Y-45774D01*
X208452Y-46011D01*
X208976Y-46168D01*
X209449Y-46220D01*
Y-45118D01*
G01X209475Y-27270D02*
X209318Y-27113D01*
X209134Y-27008D01*
X208924D01*
X208688Y-27165D01*
X208504Y-27428D01*
X208373Y-27743D01*
X208268Y-28268D01*
X208241Y-28740D01*
X208294Y-29213D01*
X208373Y-29528D01*
X208530Y-29843D01*
X208714Y-30052D01*
X208898Y-30157D01*
X209081D01*
X209265Y-30052D01*
X209422Y-29895D01*
X209554Y-29685D01*
G01X210735Y-30157D02*
Y-27008D01*
X211391D01*
X211601Y-27165D01*
X211732Y-27375D01*
X211785Y-27795D01*
X211732Y-28215D01*
X211575Y-28478D01*
X211391Y-28635D01*
X210735D01*
G01X211391D02*
X211785Y-30157D01*
G01X214147D02*
X213097D01*
Y-27008D01*
X214147D01*
G01X213727Y-28530D02*
X213097D01*
G01X215433Y-29738D02*
X215643Y-30000D01*
X215879Y-30157D01*
X216089D01*
X216299Y-30000D01*
X216457Y-29738D01*
X216535Y-29370D01*
X216483Y-29003D01*
X216352Y-28688D01*
X216115Y-28478D01*
X215800Y-28373D01*
X215617Y-28163D01*
X215538Y-27795D01*
X215591Y-27428D01*
X215722Y-27165D01*
X215906Y-27008D01*
X216089D01*
X216273Y-27113D01*
X216430Y-27375D01*
G01X218871Y-30157D02*
X217822D01*
Y-27008D01*
X218871D01*
G01X218452Y-28530D02*
X217822D01*
G01X220709Y-27008D02*
Y-30157D01*
G01X220105Y-27008D02*
X221312D01*
G01X215354Y-2362D02*
Y-5512D01*
G01X214751Y-2362D02*
X215958D01*
G01X218241Y-5512D02*
X217192D01*
Y-2362D01*
X218241D01*
G01X217822Y-3885D02*
X217192D01*
G01X219396Y-5512D02*
Y-2362D01*
X220079Y-4987D01*
X220761Y-2362D01*
Y-5512D01*
G01X221916D02*
Y-2362D01*
X222546D01*
X222756Y-2520D01*
X222913Y-2887D01*
X222966Y-3307D01*
X222913Y-3727D01*
X222782Y-4042D01*
X222546Y-4200D01*
X221916D01*
G01X225328Y-5512D02*
X224278D01*
Y-2362D01*
X225328D01*
G01X224908Y-3885D02*
X224278D01*
G01X226641Y-5512D02*
Y-2362D01*
X227296D01*
X227507Y-2520D01*
X227638Y-2730D01*
X227690Y-3150D01*
X227638Y-3570D01*
X227480Y-3832D01*
X227296Y-3989D01*
X226641D01*
G01X227296D02*
X227690Y-5512D01*
G01X228871D02*
X229528Y-2362D01*
X230184Y-5512D01*
G01X229948Y-4409D02*
X229107D01*
G01X231890Y-2362D02*
Y-5512D01*
G01X231286Y-2362D02*
X232493D01*
G01X233674D02*
Y-4619D01*
X233780Y-5092D01*
X233989Y-5407D01*
X234252Y-5512D01*
X234515Y-5407D01*
X234724Y-5092D01*
X234830Y-4619D01*
Y-2362D01*
G01X236089Y-5512D02*
Y-2362D01*
X236745D01*
X236956Y-2520D01*
X237087Y-2730D01*
X237139Y-3150D01*
X237087Y-3570D01*
X236929Y-3832D01*
X236745Y-3989D01*
X236089D01*
G01X236745D02*
X237139Y-5512D01*
G01X239501D02*
X238452D01*
Y-2362D01*
X239501D01*
G01X239081Y-3885D02*
X238452D01*
G01X243150Y-5092D02*
X243359Y-5354D01*
X243596Y-5512D01*
X243806D01*
X244016Y-5354D01*
X244173Y-5092D01*
X244252Y-4724D01*
X244200Y-4357D01*
X244068Y-4042D01*
X243832Y-3832D01*
X243517Y-3727D01*
X243333Y-3517D01*
X243255Y-3150D01*
X243307Y-2782D01*
X243438Y-2520D01*
X243622Y-2362D01*
X243806D01*
X243989Y-2467D01*
X244147Y-2730D01*
G01X246588Y-5512D02*
X245538D01*
Y-2362D01*
X246588D01*
G01X246168Y-3885D02*
X245538D01*
G01X247822Y-5512D02*
Y-2362D01*
X249029Y-5512D01*
Y-2362D01*
G01X250236Y-5092D02*
X250446Y-5354D01*
X250682Y-5512D01*
X250893D01*
X251102Y-5354D01*
X251260Y-5092D01*
X251339Y-4724D01*
X251286Y-4357D01*
X251155Y-4042D01*
X250919Y-3832D01*
X250604Y-3727D01*
X250420Y-3517D01*
X250341Y-3150D01*
X250394Y-2782D01*
X250525Y-2520D01*
X250709Y-2362D01*
X250893D01*
X251076Y-2467D01*
X251233Y-2730D01*
G01X253150Y-5512D02*
X252940Y-5459D01*
X252756Y-5249D01*
X252598Y-4934D01*
X252493Y-4567D01*
X252441Y-4147D01*
Y-3727D01*
X252493Y-3307D01*
X252598Y-2940D01*
X252756Y-2625D01*
X252940Y-2415D01*
X253150Y-2362D01*
X253359Y-2415D01*
X253543Y-2625D01*
X253701Y-2940D01*
X253806Y-3307D01*
X253858Y-3727D01*
Y-4147D01*
X253806Y-4567D01*
X253701Y-4934D01*
X253543Y-5249D01*
X253359Y-5459D01*
X253150Y-5512D01*
G01X254987D02*
Y-2362D01*
X255643D01*
X255853Y-2520D01*
X255984Y-2730D01*
X256037Y-3150D01*
X255984Y-3570D01*
X255827Y-3832D01*
X255643Y-3989D01*
X254987D01*
G01X255643D02*
X256037Y-5512D01*
G01X222047Y-61811D02*
Y-64961D01*
G01X221444Y-61811D02*
X222651D01*
G01X223858Y-64961D02*
X224961Y-61811D01*
G01X223858D02*
X224961Y-64961D01*
G01X227349Y-62074D02*
X227192Y-61916D01*
X227008Y-61811D01*
X226798D01*
X226562Y-61969D01*
X226378Y-62231D01*
X226247Y-62546D01*
X226142Y-63071D01*
X226115Y-63543D01*
X226168Y-64016D01*
X226247Y-64331D01*
X226404Y-64646D01*
X226588Y-64856D01*
X226772Y-64961D01*
X226956D01*
X227139Y-64856D01*
X227296Y-64698D01*
X227428Y-64488D01*
G01X228583Y-64961D02*
Y-61811D01*
G01X229685D02*
Y-64961D01*
G01Y-63386D02*
X228583D01*
G01X230997Y-62336D02*
X231155Y-62021D01*
X231339Y-61863D01*
X231548Y-61811D01*
X231811Y-61916D01*
X231995Y-62178D01*
X232047Y-62493D01*
X232021Y-62809D01*
X231916Y-63071D01*
X231391Y-63596D01*
X231155Y-63963D01*
X230997Y-64488D01*
X230945Y-64961D01*
X232047D01*
G01X288452Y-5315D02*
Y-2165D01*
X289081D01*
X289291Y-2323D01*
X289449Y-2690D01*
X289501Y-3110D01*
X289449Y-3530D01*
X289318Y-3845D01*
X289081Y-4003D01*
X288452D01*
G01X291916Y-2428D02*
X291759Y-2270D01*
X291575Y-2165D01*
X291365D01*
X291129Y-2323D01*
X290945Y-2585D01*
X290814Y-2900D01*
X290709Y-3425D01*
X290682Y-3898D01*
X290735Y-4370D01*
X290814Y-4685D01*
X290971Y-5000D01*
X291155Y-5210D01*
X291339Y-5315D01*
X291522D01*
X291706Y-5210D01*
X291863Y-5052D01*
X291995Y-4843D01*
G01X293911Y-3635D02*
X294016Y-3478D01*
X294094Y-3215D01*
X294147Y-2848D01*
X294094Y-2533D01*
X293989Y-2323D01*
X293806Y-2165D01*
X293097D01*
Y-5315D01*
X293963D01*
X294147Y-5105D01*
X294252Y-4790D01*
X294304Y-4422D01*
X294252Y-4055D01*
X294094Y-3740D01*
X293911Y-3635D01*
X293097D01*
G01X297874Y-4895D02*
X298084Y-5157D01*
X298320Y-5315D01*
X298530D01*
X298740Y-5157D01*
X298898Y-4895D01*
X298976Y-4528D01*
X298924Y-4160D01*
X298793Y-3845D01*
X298556Y-3635D01*
X298241Y-3530D01*
X298058Y-3320D01*
X297979Y-2953D01*
X298031Y-2585D01*
X298163Y-2323D01*
X298346Y-2165D01*
X298530D01*
X298714Y-2270D01*
X298871Y-2533D01*
G01X300472Y-2165D02*
X301102D01*
G01X300787D02*
Y-5315D01*
G01X300472D02*
X301102D01*
G01X302651Y-2165D02*
X303648D01*
X302651Y-5315D01*
X303648D01*
G01X306037D02*
X304987D01*
Y-2165D01*
X306037D01*
G01X305617Y-3688D02*
X304987D01*
G01X307874Y-5420D02*
X307822Y-5367D01*
Y-5263D01*
X307874Y-5210D01*
X307926Y-5263D01*
Y-5367D01*
X307874Y-5420D01*
G01Y-4003D02*
X307822Y-3950D01*
Y-3845D01*
X307874Y-3793D01*
X307926Y-3845D01*
Y-3950D01*
X307874Y-4003D01*
G01X309790Y-4948D02*
X309974Y-5210D01*
X310184Y-5315D01*
X310394Y-5210D01*
X310578Y-4895D01*
X310709Y-4422D01*
X310761Y-3950D01*
Y-3373D01*
X310709Y-2900D01*
X310578Y-2480D01*
X310420Y-2270D01*
X310236Y-2165D01*
X310026Y-2270D01*
X309869Y-2480D01*
X309764Y-2795D01*
X309711Y-3215D01*
X309764Y-3583D01*
X309895Y-3950D01*
X310052Y-4160D01*
X310236Y-4213D01*
X310446Y-4108D01*
X310604Y-3845D01*
X310761Y-3373D01*
G01X312598Y-2165D02*
X312389Y-2270D01*
X312231Y-2533D01*
X312126Y-2848D01*
X312047Y-3268D01*
X312021Y-3740D01*
X312047Y-4213D01*
X312126Y-4633D01*
X312231Y-4948D01*
X312389Y-5210D01*
X312598Y-5315D01*
X312808Y-5210D01*
X312966Y-4948D01*
X313071Y-4633D01*
X313150Y-4213D01*
X313176Y-3740D01*
X313150Y-3268D01*
X313071Y-2848D01*
X312966Y-2533D01*
X312808Y-2270D01*
X312598Y-2165D01*
G01X314278Y-5315D02*
Y-2165D01*
X314961Y-4790D01*
X315643Y-2165D01*
Y-5315D01*
G01X316641D02*
Y-2165D01*
X317323Y-4790D01*
X318005Y-2165D01*
Y-5315D01*
G01X319134D02*
X320236Y-2165D01*
G01X319134D02*
X320236Y-5315D01*
G01X321470Y-4685D02*
X321627Y-5052D01*
X321837Y-5263D01*
X322074Y-5315D01*
X322283Y-5263D01*
X322493Y-5000D01*
X322625Y-4685D01*
X322651Y-4370D01*
X322598Y-4003D01*
X322415Y-3740D01*
X322231Y-3635D01*
X321995D01*
G01X322231D02*
X322389Y-3478D01*
X322520Y-3215D01*
X322572Y-2900D01*
X322520Y-2585D01*
X322389Y-2323D01*
X322152Y-2165D01*
X321916Y-2218D01*
X321680Y-2428D01*
G01X324409Y-2165D02*
X324200Y-2270D01*
X324042Y-2533D01*
X323937Y-2848D01*
X323858Y-3268D01*
X323832Y-3740D01*
X323858Y-4213D01*
X323937Y-4633D01*
X324042Y-4948D01*
X324200Y-5210D01*
X324409Y-5315D01*
X324619Y-5210D01*
X324777Y-4948D01*
X324882Y-4633D01*
X324961Y-4213D01*
X324987Y-3740D01*
X324961Y-3268D01*
X324882Y-2848D01*
X324777Y-2533D01*
X324619Y-2270D01*
X324409Y-2165D01*
G01X326089Y-5315D02*
Y-2165D01*
X326772Y-4790D01*
X327454Y-2165D01*
Y-5315D01*
G01X328452D02*
Y-2165D01*
X329134Y-4790D01*
X329816Y-2165D01*
Y-5315D01*
G54D12*
G01X19685Y-106299D02*
G03I-7874J0D01*
G01Y-11811D02*
G03I-7874J0D01*
G01X7874Y-99213D02*
Y-18898D01*
G01X26012Y-76957D02*
G03I-5476J0D01*
G01X335433Y-110236D02*
X18898D01*
G01X20417Y-80091D02*
Y-74630D01*
X17874Y-77173D01*
Y-77197D01*
G01X20417Y-74630D02*
X20465D01*
X22913Y-77079D01*
G01X18898Y-7874D02*
X335433D01*
G01X51969Y-21142D02*
G03I-9843J0D01*
G01X44488Y-11299D02*
X68110D01*
Y-30984D01*
X42126D01*
G01Y-18386D02*
Y-23898D01*
G01X40157Y-23110D02*
X44094D01*
X42126Y-19567D01*
X40157Y-23110D01*
G01X44094Y-19567D02*
X40157D01*
G01X42126Y-11299D02*
X44488D01*
G01X68110D02*
X74803Y-21142D01*
X68110Y-30984D01*
G01X172047Y-97598D02*
Y-66969D01*
X120709D01*
Y-118346D01*
X172047D01*
Y-97598D01*
G01X153504Y-163504D02*
X145079Y-169213D01*
G01X153504Y-159921D02*
X139252Y-166181D01*
G01X153543Y-155787D02*
X139291Y-162047D01*
G01X139370Y-118110D02*
Y-169291D01*
X153543D01*
Y-118110D01*
G01X153425Y-151024D02*
X139173Y-157283D01*
G01X153425Y-146575D02*
X139173Y-152835D01*
G01X153425Y-142165D02*
X139173Y-148425D01*
G01X153465Y-137677D02*
X139213Y-143937D01*
G01X153465Y-132638D02*
X139213Y-138898D01*
G01X153465Y-128543D02*
X139213Y-134803D01*
G01X153622Y-123701D02*
X139370Y-129961D01*
G01X153504Y-119213D02*
X139252Y-125472D01*
G01X141378Y-99094D02*
Y-110906D01*
G01X151772Y-87638D02*
X156024D01*
X156457Y-88071D01*
Y-104685D01*
X156378Y-104764D01*
X136929D01*
Y-85394D01*
X138740Y-83583D01*
G01X151378Y-111024D02*
Y-99213D01*
X141378Y-104764D01*
X151378Y-111024D01*
G01X144252Y-92756D02*
X148583D01*
G01X151457Y-85315D02*
Y-90000D01*
G01X233071Y-97598D02*
Y-66969D01*
X181732D01*
Y-118346D01*
X233071D01*
Y-97598D01*
G01X212795Y-87638D02*
X217047D01*
X217480Y-88071D01*
Y-104685D01*
X217402Y-104764D01*
X197953D01*
Y-85394D01*
X199764Y-83583D01*
G01X214528Y-163504D02*
X206102Y-169213D01*
G01X214528Y-159921D02*
X200276Y-166181D01*
G01X214567Y-155787D02*
X200315Y-162047D01*
G01X200394Y-118110D02*
Y-169291D01*
X214567D01*
Y-118110D01*
G01X214449Y-151024D02*
X200197Y-157283D01*
G01X214449Y-146575D02*
X200197Y-152835D01*
G01X214449Y-142165D02*
X200197Y-148425D01*
G01X214488Y-137677D02*
X200236Y-143937D01*
G01X214488Y-132638D02*
X200236Y-138898D01*
G01X214488Y-128543D02*
X200236Y-134803D01*
G01X214646Y-123701D02*
X200394Y-129961D01*
G01X214528Y-119213D02*
X200276Y-125472D01*
G01X202402Y-99094D02*
Y-110906D01*
G01X212402Y-111024D02*
Y-99213D01*
X202402Y-104764D01*
X212402Y-111024D01*
G01X205276Y-92756D02*
X209606D01*
G01X212480Y-85315D02*
Y-90000D01*
G01X217323Y-45118D02*
Y-48819D01*
X236614D01*
Y-45079D01*
G01X236654Y-36890D02*
Y-32244D01*
X217244D01*
Y-36772D01*
G01X230213Y-40827D02*
G03I-3245J0D01*
G01X350394Y-106299D02*
G03I-7874J0D01*
G01Y-11811D02*
G03I-7874J0D01*
G01X346457Y-18898D02*
Y-99213D01*
G54D13*
G01X17296Y-87139D02*
X16981Y-86824D01*
X16614Y-86614D01*
X16194D01*
X15722Y-86929D01*
X15354Y-87454D01*
X15092Y-88084D01*
X14882Y-89134D01*
X14830Y-90079D01*
X14934Y-91024D01*
X15092Y-91654D01*
X15407Y-92283D01*
X15774Y-92704D01*
X16142Y-92913D01*
X16509D01*
X16877Y-92704D01*
X17192Y-92389D01*
X17454Y-91969D01*
G01X21916Y-92913D02*
X19816D01*
Y-86614D01*
X21916D01*
G01X21076Y-89659D02*
X19816D01*
G01X24541Y-92913D02*
Y-86614D01*
X25800D01*
X26220Y-86929D01*
X26535Y-87664D01*
X26641Y-88504D01*
X26535Y-89344D01*
X26273Y-89974D01*
X25800Y-90289D01*
X24541D01*
G01X29265Y-92913D02*
Y-86614D01*
X30578D01*
X30997Y-86929D01*
X31260Y-87349D01*
X31365Y-88189D01*
X31260Y-89029D01*
X30945Y-89554D01*
X30578Y-89869D01*
X29265D01*
G01X30578D02*
X31365Y-92913D01*
G01X34409Y-86614D02*
X35669D01*
G01X35039D02*
Y-92913D01*
G01X34409D02*
X35669D01*
G54D14*
G01X15617Y-59843D02*
Y-56693D01*
X16273D01*
X16483Y-56850D01*
X16614Y-57060D01*
X16667Y-57480D01*
X16614Y-57900D01*
X16457Y-58163D01*
X16273Y-58320D01*
X15617D01*
G01X16273D02*
X16667Y-59843D01*
G01X17218Y-59213D02*
X17375Y-59580D01*
X17585Y-59790D01*
X17822Y-59843D01*
X18031Y-59790D01*
X18241Y-59528D01*
X18373Y-59213D01*
X18399Y-58898D01*
X18346Y-58530D01*
X18163Y-58268D01*
X17979Y-58163D01*
X17743D01*
G01X17979D02*
X18137Y-58005D01*
X18268Y-57743D01*
X18320Y-57428D01*
X18268Y-57113D01*
X18137Y-56850D01*
X17900Y-56693D01*
X17664Y-56745D01*
X17428Y-56956D01*
G01X18871Y-59213D02*
X19029Y-59580D01*
X19239Y-59790D01*
X19475Y-59843D01*
X19685Y-59790D01*
X19895Y-59528D01*
X20026Y-59213D01*
X20052Y-58898D01*
X20000Y-58530D01*
X19816Y-58268D01*
X19633Y-58163D01*
X19396D01*
G01X19633D02*
X19790Y-58005D01*
X19921Y-57743D01*
X19974Y-57428D01*
X19921Y-57113D01*
X19790Y-56850D01*
X19554Y-56693D01*
X19318Y-56745D01*
X19081Y-56956D01*
G01X20079Y-51706D02*
X16929D01*
Y-51050D01*
X17087Y-50840D01*
X17296Y-50709D01*
X17717Y-50656D01*
X18137Y-50709D01*
X18399Y-50866D01*
X18556Y-51050D01*
Y-51706D01*
G01Y-51050D02*
X20079Y-50656D01*
G01X19449Y-50105D02*
X19816Y-49948D01*
X20026Y-49737D01*
X20079Y-49501D01*
X20026Y-49291D01*
X19764Y-49081D01*
X19449Y-48950D01*
X19134Y-48924D01*
X18767Y-48976D01*
X18504Y-49160D01*
X18399Y-49344D01*
Y-49580D01*
G01Y-49344D02*
X18241Y-49186D01*
X17979Y-49055D01*
X17664Y-49003D01*
X17349Y-49055D01*
X17087Y-49186D01*
X16929Y-49422D01*
X16981Y-49659D01*
X17192Y-49895D01*
G01X20079Y-47874D02*
X16929D01*
X17559Y-48189D01*
G01X20079D02*
Y-47559D01*
G01Y-41863D02*
X16929D01*
Y-41207D01*
X17087Y-40997D01*
X17296Y-40866D01*
X17717Y-40814D01*
X18137Y-40866D01*
X18399Y-41024D01*
X18556Y-41207D01*
Y-41863D01*
G01Y-41207D02*
X20079Y-40814D01*
G01X17454Y-40184D02*
X17139Y-40026D01*
X16981Y-39843D01*
X16929Y-39633D01*
X17034Y-39370D01*
X17296Y-39186D01*
X17611Y-39134D01*
X17927Y-39160D01*
X18189Y-39265D01*
X18714Y-39790D01*
X19081Y-40026D01*
X19606Y-40184D01*
X20079Y-40236D01*
Y-39134D01*
G01X17454Y-38530D02*
X17139Y-38373D01*
X16981Y-38189D01*
X16929Y-37979D01*
X17034Y-37717D01*
X17296Y-37533D01*
X17611Y-37480D01*
X17927Y-37507D01*
X18189Y-37611D01*
X18714Y-38137D01*
X19081Y-38373D01*
X19606Y-38530D01*
X20079Y-38583D01*
Y-37480D01*
G01X25591Y-26509D02*
X22441D01*
Y-25853D01*
X22598Y-25643D01*
X22808Y-25512D01*
X23228Y-25459D01*
X23648Y-25512D01*
X23911Y-25669D01*
X24068Y-25853D01*
Y-26509D01*
G01Y-25853D02*
X25591Y-25459D01*
G01Y-24331D02*
X22441D01*
X23071Y-24646D01*
G01X25591D02*
Y-24016D01*
G01Y-22677D02*
X25538Y-22493D01*
X25381Y-22283D01*
X25118Y-22152D01*
X24751Y-22100D01*
X24383Y-22152D01*
X24068Y-22310D01*
X23911Y-22546D01*
Y-22808D01*
X23806Y-22966D01*
X23543Y-23097D01*
X23176Y-23150D01*
X22808Y-23071D01*
X22546Y-22887D01*
X22441Y-22677D01*
X22546Y-22467D01*
X22808Y-22283D01*
X23176Y-22205D01*
X23543Y-22257D01*
X23806Y-22389D01*
X23911Y-22546D01*
Y-22808D01*
X24068Y-23044D01*
X24383Y-23202D01*
X24751Y-23255D01*
X25118Y-23202D01*
X25381Y-23071D01*
X25538Y-22861D01*
X25591Y-22677D01*
G01X26247Y-12205D02*
Y-15354D01*
X27296D01*
G01X27848D02*
Y-12205D01*
X28373D01*
X28583Y-12362D01*
X28740Y-12572D01*
X28871Y-12887D01*
X28976Y-13255D01*
X29003Y-13780D01*
X28976Y-14304D01*
X28871Y-14672D01*
X28740Y-14987D01*
X28583Y-15197D01*
X28373Y-15354D01*
X27848D01*
G01X30079D02*
Y-12205D01*
X29764Y-12835D01*
G01Y-15354D02*
X30394D01*
G01X38058Y-72441D02*
Y-75591D01*
X39107D01*
G01X39659Y-75118D02*
X39816Y-75381D01*
X40000Y-75538D01*
X40236Y-75591D01*
X40472Y-75485D01*
X40656Y-75276D01*
X40787Y-74908D01*
X40814Y-74488D01*
X40761Y-74068D01*
X40630Y-73806D01*
X40446Y-73596D01*
X40263Y-73543D01*
X40079Y-73596D01*
X39843Y-73806D01*
X39921Y-72441D01*
X40630D01*
G01X33858Y-55906D02*
X33648Y-55853D01*
X33465Y-55643D01*
X33307Y-55328D01*
X33202Y-54961D01*
X33150Y-54541D01*
Y-54121D01*
X33202Y-53701D01*
X33307Y-53333D01*
X33465Y-53019D01*
X33648Y-52808D01*
X33858Y-52756D01*
X34068Y-52808D01*
X34252Y-53019D01*
X34409Y-53333D01*
X34515Y-53701D01*
X34567Y-54121D01*
Y-54541D01*
X34515Y-54961D01*
X34409Y-55328D01*
X34252Y-55643D01*
X34068Y-55853D01*
X33858Y-55906D01*
G01X34068Y-55066D02*
X34383Y-55906D01*
G01X35512D02*
Y-52756D01*
X35197Y-53386D01*
G01Y-55906D02*
X35827D01*
G01X30709Y-26509D02*
X27559D01*
Y-25853D01*
X27717Y-25643D01*
X27926Y-25512D01*
X28346Y-25459D01*
X28767Y-25512D01*
X29029Y-25669D01*
X29186Y-25853D01*
Y-26509D01*
G01Y-25853D02*
X30709Y-25459D01*
G01Y-24331D02*
X27559D01*
X28189Y-24646D01*
G01X30709D02*
Y-24016D01*
G01X30341Y-23123D02*
X30604Y-22940D01*
X30709Y-22730D01*
X30604Y-22520D01*
X30289Y-22336D01*
X29816Y-22205D01*
X29344Y-22152D01*
X28767D01*
X28294Y-22205D01*
X27874Y-22336D01*
X27664Y-22493D01*
X27559Y-22677D01*
X27664Y-22887D01*
X27874Y-23044D01*
X28189Y-23150D01*
X28609Y-23202D01*
X28976Y-23150D01*
X29344Y-23019D01*
X29554Y-22861D01*
X29606Y-22677D01*
X29502Y-22467D01*
X29239Y-22310D01*
X28767Y-22152D01*
G01X48031Y-105906D02*
Y-109055D01*
G01X47428Y-105906D02*
X48635D01*
G01X49160Y-109055D02*
Y-105906D01*
X49790D01*
X50000Y-106063D01*
X50157Y-106430D01*
X50210Y-106850D01*
X50157Y-107270D01*
X50026Y-107585D01*
X49790Y-107743D01*
X49160D01*
G01X50840Y-106430D02*
X50997Y-106115D01*
X51181Y-105958D01*
X51391Y-105906D01*
X51654Y-106011D01*
X51837Y-106273D01*
X51890Y-106588D01*
X51863Y-106903D01*
X51759Y-107165D01*
X51233Y-107690D01*
X50997Y-108058D01*
X50840Y-108583D01*
X50787Y-109055D01*
X51890D01*
G01X46063Y-62992D02*
Y-66142D01*
G01X45459Y-62992D02*
X46667D01*
G01X47192Y-66142D02*
Y-62992D01*
X47822D01*
X48031Y-63150D01*
X48189Y-63517D01*
X48241Y-63937D01*
X48189Y-64357D01*
X48058Y-64672D01*
X47822Y-64830D01*
X47192D01*
G01X49370Y-66142D02*
Y-62992D01*
X49055Y-63622D01*
G01Y-66142D02*
X49685D01*
G01X41207Y-57874D02*
Y-54724D01*
X41863D01*
X42074Y-54882D01*
X42205Y-55092D01*
X42257Y-55512D01*
X42205Y-55932D01*
X42047Y-56194D01*
X41863Y-56352D01*
X41207D01*
G01X41863D02*
X42257Y-57874D01*
G01X42808Y-57244D02*
X42966Y-57611D01*
X43176Y-57822D01*
X43412Y-57874D01*
X43622Y-57822D01*
X43832Y-57559D01*
X43963Y-57244D01*
X43989Y-56929D01*
X43937Y-56562D01*
X43753Y-56299D01*
X43570Y-56194D01*
X43333D01*
G01X43570D02*
X43727Y-56037D01*
X43858Y-55774D01*
X43911Y-55459D01*
X43858Y-55144D01*
X43727Y-54882D01*
X43491Y-54724D01*
X43255Y-54777D01*
X43019Y-54987D01*
G01X45039Y-54724D02*
X44830Y-54830D01*
X44672Y-55092D01*
X44567Y-55407D01*
X44488Y-55827D01*
X44462Y-56299D01*
X44488Y-56772D01*
X44567Y-57192D01*
X44672Y-57507D01*
X44830Y-57769D01*
X45039Y-57874D01*
X45249Y-57769D01*
X45407Y-57507D01*
X45512Y-57192D01*
X45591Y-56772D01*
X45617Y-56299D01*
X45591Y-55827D01*
X45512Y-55407D01*
X45407Y-55092D01*
X45249Y-54830D01*
X45039Y-54724D01*
G01X50000Y-38714D02*
X46850D01*
Y-38058D01*
X47008Y-37848D01*
X47218Y-37717D01*
X47638Y-37664D01*
X48058Y-37717D01*
X48320Y-37874D01*
X48478Y-38058D01*
Y-38714D01*
G01Y-38058D02*
X50000Y-37664D01*
G01X47375Y-37034D02*
X47060Y-36877D01*
X46903Y-36693D01*
X46850Y-36483D01*
X46956Y-36220D01*
X47218Y-36037D01*
X47533Y-35984D01*
X47848Y-36011D01*
X48110Y-36115D01*
X48635Y-36641D01*
X49003Y-36877D01*
X49528Y-37034D01*
X50000Y-37087D01*
Y-35984D01*
G01Y-34882D02*
X46850D01*
X47480Y-35197D01*
G01X50000D02*
Y-34567D01*
G01X55906Y-38976D02*
X55696Y-38924D01*
X55512Y-38714D01*
X55354Y-38399D01*
X55249Y-38031D01*
X55197Y-37611D01*
Y-37192D01*
X55249Y-36772D01*
X55354Y-36404D01*
X55512Y-36089D01*
X55696Y-35879D01*
X55906Y-35827D01*
X56115Y-35879D01*
X56299Y-36089D01*
X56457Y-36404D01*
X56562Y-36772D01*
X56614Y-37192D01*
Y-37611D01*
X56562Y-38031D01*
X56457Y-38399D01*
X56299Y-38714D01*
X56115Y-38924D01*
X55906Y-38976D01*
G01X56115Y-38137D02*
X56430Y-38976D01*
G01X57060Y-36352D02*
X57218Y-36037D01*
X57402Y-35879D01*
X57611Y-35827D01*
X57874Y-35932D01*
X58058Y-36194D01*
X58110Y-36509D01*
X58084Y-36824D01*
X57979Y-37087D01*
X57454Y-37611D01*
X57218Y-37979D01*
X57060Y-38504D01*
X57008Y-38976D01*
X58110D01*
G01X65354Y-105906D02*
Y-109055D01*
G01X64751Y-105906D02*
X65958D01*
G01X66483Y-109055D02*
Y-105906D01*
X67113D01*
X67323Y-106063D01*
X67480Y-106430D01*
X67533Y-106850D01*
X67480Y-107270D01*
X67349Y-107585D01*
X67113Y-107743D01*
X66483D01*
G01X68084Y-108425D02*
X68241Y-108793D01*
X68452Y-109003D01*
X68688Y-109055D01*
X68898Y-109003D01*
X69107Y-108740D01*
X69239Y-108425D01*
X69265Y-108110D01*
X69213Y-107743D01*
X69029Y-107480D01*
X68845Y-107375D01*
X68609D01*
G01X68845D02*
X69003Y-107218D01*
X69134Y-106956D01*
X69186Y-106641D01*
X69134Y-106326D01*
X69003Y-106063D01*
X68767Y-105906D01*
X68530Y-105958D01*
X68294Y-106168D01*
G01X64751Y-94357D02*
X64593Y-94200D01*
X64409Y-94094D01*
X64200D01*
X63963Y-94252D01*
X63780Y-94515D01*
X63648Y-94830D01*
X63543Y-95354D01*
X63517Y-95827D01*
X63570Y-96299D01*
X63648Y-96614D01*
X63806Y-96929D01*
X63989Y-97139D01*
X64173Y-97244D01*
X64357D01*
X64541Y-97139D01*
X64698Y-96981D01*
X64830Y-96772D01*
G01X65827Y-97244D02*
Y-94094D01*
X65512Y-94724D01*
G01Y-97244D02*
X66142D01*
G01X66903Y-96772D02*
X67060Y-97034D01*
X67244Y-97192D01*
X67480Y-97244D01*
X67717Y-97139D01*
X67900Y-96929D01*
X68031Y-96562D01*
X68058Y-96142D01*
X68005Y-95722D01*
X67874Y-95459D01*
X67690Y-95249D01*
X67507Y-95197D01*
X67323Y-95249D01*
X67087Y-95459D01*
X67165Y-94094D01*
X67874D01*
G01X64068Y-80787D02*
Y-83044D01*
X64173Y-83517D01*
X64383Y-83832D01*
X64646Y-83937D01*
X64908Y-83832D01*
X65118Y-83517D01*
X65223Y-83044D01*
Y-80787D01*
G01X65800Y-82625D02*
X65984Y-82257D01*
X66142Y-82047D01*
X66352Y-81942D01*
X66535Y-82047D01*
X66667Y-82257D01*
X66772Y-82572D01*
X66798Y-82940D01*
X66772Y-83255D01*
X66667Y-83570D01*
X66509Y-83832D01*
X66326Y-83937D01*
X66115Y-83832D01*
X65932Y-83517D01*
X65827Y-83044D01*
X65800Y-82520D01*
X65853Y-81837D01*
X65932Y-81470D01*
X66063Y-81102D01*
X66247Y-80840D01*
X66430Y-80787D01*
X66614Y-80893D01*
X66745Y-81155D01*
G01X64751Y-67585D02*
X64593Y-67428D01*
X64409Y-67323D01*
X64200D01*
X63963Y-67480D01*
X63780Y-67743D01*
X63648Y-68058D01*
X63543Y-68583D01*
X63517Y-69055D01*
X63570Y-69528D01*
X63648Y-69843D01*
X63806Y-70157D01*
X63989Y-70367D01*
X64173Y-70472D01*
X64357D01*
X64541Y-70367D01*
X64698Y-70210D01*
X64830Y-70000D01*
G01X65827Y-70472D02*
Y-67323D01*
X65512Y-67953D01*
G01Y-70472D02*
X66142D01*
G01X66903Y-69843D02*
X67060Y-70210D01*
X67270Y-70420D01*
X67507Y-70472D01*
X67717Y-70420D01*
X67926Y-70157D01*
X68058Y-69843D01*
X68084Y-69528D01*
X68031Y-69160D01*
X67848Y-68898D01*
X67664Y-68793D01*
X67428D01*
G01X67664D02*
X67822Y-68635D01*
X67953Y-68373D01*
X68005Y-68058D01*
X67953Y-67743D01*
X67822Y-67480D01*
X67585Y-67323D01*
X67349Y-67375D01*
X67113Y-67585D01*
G01X63386Y-63911D02*
X60236D01*
Y-63255D01*
X60394Y-63044D01*
X60604Y-62913D01*
X61024Y-62861D01*
X61444Y-62913D01*
X61706Y-63071D01*
X61863Y-63255D01*
Y-63911D01*
G01Y-63255D02*
X63386Y-62861D01*
G01X62756Y-62310D02*
X63123Y-62152D01*
X63333Y-61942D01*
X63386Y-61706D01*
X63333Y-61496D01*
X63071Y-61286D01*
X62756Y-61155D01*
X62441Y-61129D01*
X62074Y-61181D01*
X61811Y-61365D01*
X61706Y-61548D01*
Y-61785D01*
G01Y-61548D02*
X61548Y-61391D01*
X61286Y-61260D01*
X60971Y-61207D01*
X60656Y-61260D01*
X60394Y-61391D01*
X60236Y-61627D01*
X60289Y-61863D01*
X60499Y-62100D01*
G01X63386Y-59764D02*
X60236D01*
X62493Y-60735D01*
Y-59422D01*
G01X70079Y-48163D02*
X66929D01*
Y-47507D01*
X67087Y-47296D01*
X67296Y-47165D01*
X67717Y-47113D01*
X68137Y-47165D01*
X68399Y-47323D01*
X68556Y-47507D01*
Y-48163D01*
G01Y-47507D02*
X70079Y-47113D01*
G01X67454Y-46483D02*
X67139Y-46326D01*
X66981Y-46142D01*
X66929Y-45932D01*
X67034Y-45669D01*
X67296Y-45485D01*
X67611Y-45433D01*
X67927Y-45459D01*
X68189Y-45564D01*
X68714Y-46089D01*
X69081Y-46326D01*
X69606Y-46483D01*
X70079Y-46535D01*
Y-45433D01*
G01X69449Y-44908D02*
X69816Y-44751D01*
X70026Y-44541D01*
X70079Y-44304D01*
X70026Y-44094D01*
X69764Y-43885D01*
X69449Y-43753D01*
X69134Y-43727D01*
X68767Y-43780D01*
X68504Y-43963D01*
X68399Y-44147D01*
Y-44383D01*
G01Y-44147D02*
X68241Y-43989D01*
X67979Y-43858D01*
X67664Y-43806D01*
X67349Y-43858D01*
X67087Y-43989D01*
X66929Y-44226D01*
X66981Y-44462D01*
X67192Y-44698D01*
G01X74593Y-105774D02*
X74436Y-105617D01*
X74252Y-105512D01*
X74042D01*
X73806Y-105669D01*
X73622Y-105932D01*
X73491Y-106247D01*
X73386Y-106772D01*
X73359Y-107244D01*
X73412Y-107717D01*
X73491Y-108031D01*
X73648Y-108346D01*
X73832Y-108556D01*
X74016Y-108661D01*
X74200D01*
X74383Y-108556D01*
X74541Y-108399D01*
X74672Y-108189D01*
G01X75669Y-108661D02*
Y-105512D01*
X75354Y-106142D01*
G01Y-108661D02*
X75984D01*
G01X76877Y-108294D02*
X77060Y-108556D01*
X77270Y-108661D01*
X77480Y-108556D01*
X77664Y-108242D01*
X77795Y-107769D01*
X77848Y-107296D01*
Y-106719D01*
X77795Y-106247D01*
X77664Y-105827D01*
X77507Y-105617D01*
X77323Y-105512D01*
X77113Y-105617D01*
X76956Y-105827D01*
X76850Y-106142D01*
X76798Y-106562D01*
X76850Y-106929D01*
X76981Y-107296D01*
X77139Y-107507D01*
X77323Y-107559D01*
X77533Y-107454D01*
X77690Y-107192D01*
X77848Y-106719D01*
G01X73412Y-54593D02*
X73255Y-54436D01*
X73071Y-54331D01*
X72861D01*
X72625Y-54488D01*
X72441Y-54751D01*
X72310Y-55066D01*
X72205Y-55591D01*
X72178Y-56063D01*
X72231Y-56535D01*
X72310Y-56850D01*
X72467Y-57165D01*
X72651Y-57375D01*
X72835Y-57480D01*
X73019D01*
X73202Y-57375D01*
X73359Y-57218D01*
X73491Y-57008D01*
G01X74488Y-57480D02*
Y-54331D01*
X74173Y-54961D01*
G01Y-57480D02*
X74803D01*
G01X76142Y-54331D02*
X75932Y-54436D01*
X75774Y-54698D01*
X75669Y-55013D01*
X75591Y-55433D01*
X75564Y-55906D01*
X75591Y-56378D01*
X75669Y-56798D01*
X75774Y-57113D01*
X75932Y-57375D01*
X76142Y-57480D01*
X76352Y-57375D01*
X76509Y-57113D01*
X76614Y-56798D01*
X76693Y-56378D01*
X76719Y-55906D01*
X76693Y-55433D01*
X76614Y-55013D01*
X76509Y-54698D01*
X76352Y-54436D01*
X76142Y-54331D01*
G01X74593Y-45932D02*
X74436Y-45774D01*
X74252Y-45669D01*
X74042D01*
X73806Y-45827D01*
X73622Y-46089D01*
X73491Y-46404D01*
X73386Y-46929D01*
X73359Y-47402D01*
X73412Y-47874D01*
X73491Y-48189D01*
X73648Y-48504D01*
X73832Y-48714D01*
X74016Y-48819D01*
X74200D01*
X74383Y-48714D01*
X74541Y-48556D01*
X74672Y-48346D01*
G01X75092D02*
X75249Y-48609D01*
X75433Y-48767D01*
X75669Y-48819D01*
X75906Y-48714D01*
X76089Y-48504D01*
X76220Y-48137D01*
X76247Y-47717D01*
X76194Y-47296D01*
X76063Y-47034D01*
X75879Y-46824D01*
X75696Y-46772D01*
X75512Y-46824D01*
X75276Y-47034D01*
X75354Y-45669D01*
X76063D01*
G01X75459Y-26378D02*
Y-29528D01*
X76509D01*
G01X77638D02*
Y-26378D01*
X77323Y-27008D01*
G01Y-29528D02*
X77953D01*
G01X91548Y-14173D02*
Y-16430D01*
X91654Y-16903D01*
X91863Y-17218D01*
X92126Y-17323D01*
X92389Y-17218D01*
X92598Y-16903D01*
X92704Y-16430D01*
Y-14173D01*
G01X93202Y-16693D02*
X93359Y-17060D01*
X93570Y-17270D01*
X93806Y-17323D01*
X94016Y-17270D01*
X94226Y-17008D01*
X94357Y-16693D01*
X94383Y-16378D01*
X94331Y-16011D01*
X94147Y-15748D01*
X93963Y-15643D01*
X93727D01*
G01X93963D02*
X94121Y-15485D01*
X94252Y-15223D01*
X94304Y-14908D01*
X94252Y-14593D01*
X94121Y-14331D01*
X93885Y-14173D01*
X93648Y-14226D01*
X93412Y-14436D01*
G01X90945Y-12730D02*
X87795D01*
Y-12074D01*
X87953Y-11863D01*
X88163Y-11732D01*
X88583Y-11680D01*
X89003Y-11732D01*
X89265Y-11890D01*
X89422Y-12074D01*
Y-12730D01*
G01Y-12074D02*
X90945Y-11680D01*
G01X88320Y-11050D02*
X88005Y-10893D01*
X87848Y-10709D01*
X87795Y-10499D01*
X87900Y-10236D01*
X88163Y-10052D01*
X88478Y-10000D01*
X88793Y-10026D01*
X89055Y-10131D01*
X89580Y-10656D01*
X89948Y-10893D01*
X90472Y-11050D01*
X90945Y-11102D01*
Y-10000D01*
G01X83333Y-11627D02*
X83176Y-11785D01*
X83071Y-11969D01*
Y-12178D01*
X83228Y-12415D01*
X83491Y-12598D01*
X83806Y-12730D01*
X84331Y-12835D01*
X84803Y-12861D01*
X85276Y-12808D01*
X85591Y-12730D01*
X85906Y-12572D01*
X86115Y-12389D01*
X86220Y-12205D01*
Y-12021D01*
X86115Y-11837D01*
X85958Y-11680D01*
X85748Y-11548D01*
G01X85591Y-11129D02*
X85958Y-10971D01*
X86168Y-10761D01*
X86220Y-10525D01*
X86168Y-10315D01*
X85906Y-10105D01*
X85591Y-9974D01*
X85276Y-9948D01*
X84908Y-10000D01*
X84646Y-10184D01*
X84541Y-10367D01*
Y-10604D01*
G01Y-10367D02*
X84383Y-10210D01*
X84121Y-10079D01*
X83806Y-10026D01*
X83491Y-10079D01*
X83228Y-10210D01*
X83071Y-10446D01*
X83123Y-10682D01*
X83333Y-10919D01*
G01X96326Y-59449D02*
Y-56299D01*
X96981D01*
X97192Y-56457D01*
X97323Y-56667D01*
X97375Y-57087D01*
X97323Y-57507D01*
X97165Y-57769D01*
X96981Y-57926D01*
X96326D01*
G01X96981D02*
X97375Y-59449D01*
G01X97926Y-58819D02*
X98084Y-59186D01*
X98294Y-59396D01*
X98530Y-59449D01*
X98740Y-59396D01*
X98950Y-59134D01*
X99081Y-58819D01*
X99107Y-58504D01*
X99055Y-58137D01*
X98871Y-57874D01*
X98688Y-57769D01*
X98452D01*
G01X98688D02*
X98845Y-57611D01*
X98976Y-57349D01*
X99029Y-57034D01*
X98976Y-56719D01*
X98845Y-56457D01*
X98609Y-56299D01*
X98373Y-56352D01*
X98137Y-56562D01*
G01X99580Y-58976D02*
X99737Y-59239D01*
X99921Y-59396D01*
X100157Y-59449D01*
X100394Y-59344D01*
X100578Y-59134D01*
X100709Y-58767D01*
X100735Y-58346D01*
X100682Y-57926D01*
X100551Y-57664D01*
X100367Y-57454D01*
X100184Y-57402D01*
X100000Y-57454D01*
X99764Y-57664D01*
X99843Y-56299D01*
X100551D01*
G01X112205Y-109186D02*
X109055D01*
Y-108530D01*
X109213Y-108320D01*
X109422Y-108189D01*
X109843Y-108137D01*
X110263Y-108189D01*
X110525Y-108346D01*
X110682Y-108530D01*
Y-109186D01*
G01Y-108530D02*
X112205Y-108137D01*
G01Y-106693D02*
X109055D01*
X111312Y-107664D01*
Y-106352D01*
G01X112205Y-105407D02*
X111522Y-105354D01*
X110945Y-105276D01*
X110420Y-105170D01*
X109843Y-105039D01*
X109055Y-104830D01*
Y-105879D01*
G01X104200Y-108084D02*
X104042Y-108241D01*
X103937Y-108425D01*
Y-108635D01*
X104094Y-108871D01*
X104357Y-109055D01*
X104672Y-109186D01*
X105197Y-109291D01*
X105669Y-109318D01*
X106142Y-109265D01*
X106457Y-109186D01*
X106772Y-109029D01*
X106981Y-108845D01*
X107087Y-108661D01*
Y-108478D01*
X106981Y-108294D01*
X106824Y-108137D01*
X106614Y-108005D01*
G01X107087Y-107008D02*
X103937D01*
X104567Y-107323D01*
G01X107087D02*
Y-106693D01*
G01Y-105354D02*
X107034Y-105170D01*
X106877Y-104961D01*
X106614Y-104830D01*
X106247Y-104777D01*
X105880Y-104830D01*
X105564Y-104987D01*
X105407Y-105223D01*
Y-105485D01*
X105302Y-105643D01*
X105039Y-105774D01*
X104672Y-105827D01*
X104304Y-105748D01*
X104042Y-105564D01*
X103937Y-105354D01*
X104042Y-105144D01*
X104304Y-104961D01*
X104672Y-104882D01*
X105039Y-104934D01*
X105302Y-105066D01*
X105407Y-105223D01*
Y-105485D01*
X105564Y-105722D01*
X105880Y-105879D01*
X106247Y-105932D01*
X106614Y-105879D01*
X106877Y-105748D01*
X107034Y-105538D01*
X107087Y-105354D01*
G01X112074Y-86220D02*
Y-83071D01*
X112730D01*
X112940Y-83228D01*
X113071Y-83438D01*
X113123Y-83858D01*
X113071Y-84278D01*
X112913Y-84541D01*
X112730Y-84698D01*
X112074D01*
G01X112730D02*
X113123Y-86220D01*
G01X114567D02*
Y-83071D01*
X113596Y-85328D01*
X114908D01*
G01X115328Y-85591D02*
X115485Y-85958D01*
X115696Y-86168D01*
X115932Y-86220D01*
X116142Y-86168D01*
X116352Y-85906D01*
X116483Y-85591D01*
X116509Y-85276D01*
X116457Y-84908D01*
X116273Y-84646D01*
X116089Y-84541D01*
X115853D01*
G01X116089D02*
X116247Y-84383D01*
X116378Y-84121D01*
X116430Y-83806D01*
X116378Y-83491D01*
X116247Y-83228D01*
X116011Y-83071D01*
X115774Y-83123D01*
X115538Y-83333D01*
G01X112074Y-90551D02*
Y-87402D01*
X112730D01*
X112940Y-87559D01*
X113071Y-87769D01*
X113123Y-88189D01*
X113071Y-88609D01*
X112913Y-88871D01*
X112730Y-89029D01*
X112074D01*
G01X112730D02*
X113123Y-90551D01*
G01X114567D02*
Y-87402D01*
X113596Y-89659D01*
X114908D01*
G01X115328Y-90079D02*
X115485Y-90341D01*
X115669Y-90499D01*
X115906Y-90551D01*
X116142Y-90446D01*
X116326Y-90236D01*
X116457Y-89869D01*
X116483Y-89449D01*
X116430Y-89029D01*
X116299Y-88767D01*
X116115Y-88556D01*
X115932Y-88504D01*
X115748Y-88556D01*
X115512Y-88767D01*
X115591Y-87402D01*
X116299D01*
G01X112074Y-81890D02*
Y-78740D01*
X112730D01*
X112940Y-78898D01*
X113071Y-79107D01*
X113123Y-79528D01*
X113071Y-79948D01*
X112913Y-80210D01*
X112730Y-80367D01*
X112074D01*
G01X112730D02*
X113123Y-81890D01*
G01X114567D02*
Y-78740D01*
X113596Y-80997D01*
X114908D01*
G01X115906Y-78740D02*
X115696Y-78845D01*
X115538Y-79107D01*
X115433Y-79422D01*
X115354Y-79843D01*
X115328Y-80315D01*
X115354Y-80787D01*
X115433Y-81207D01*
X115538Y-81522D01*
X115696Y-81785D01*
X115906Y-81890D01*
X116115Y-81785D01*
X116273Y-81522D01*
X116378Y-81207D01*
X116457Y-80787D01*
X116483Y-80315D01*
X116457Y-79843D01*
X116378Y-79422D01*
X116273Y-79107D01*
X116115Y-78845D01*
X115906Y-78740D01*
G01X111417Y-70604D02*
X108268D01*
Y-69948D01*
X108425Y-69737D01*
X108635Y-69606D01*
X109055Y-69554D01*
X109475Y-69606D01*
X109737Y-69764D01*
X109895Y-69948D01*
Y-70604D01*
G01Y-69948D02*
X111417Y-69554D01*
G01X110787Y-69003D02*
X111155Y-68845D01*
X111365Y-68635D01*
X111417Y-68399D01*
X111365Y-68189D01*
X111102Y-67979D01*
X110787Y-67848D01*
X110472Y-67822D01*
X110105Y-67874D01*
X109843Y-68058D01*
X109737Y-68241D01*
Y-68478D01*
G01Y-68241D02*
X109580Y-68084D01*
X109318Y-67953D01*
X109003Y-67900D01*
X108688Y-67953D01*
X108425Y-68084D01*
X108268Y-68320D01*
X108320Y-68556D01*
X108530Y-68793D01*
G01X111417Y-66824D02*
X110735Y-66772D01*
X110157Y-66693D01*
X109633Y-66588D01*
X109055Y-66457D01*
X108268Y-66247D01*
Y-67296D01*
G01X113255Y-66142D02*
Y-62992D01*
X113911D01*
X114121Y-63150D01*
X114252Y-63359D01*
X114304Y-63780D01*
X114252Y-64200D01*
X114094Y-64462D01*
X113911Y-64619D01*
X113255D01*
G01X113911D02*
X114304Y-66142D01*
G01X114856Y-65512D02*
X115013Y-65879D01*
X115223Y-66089D01*
X115459Y-66142D01*
X115669Y-66089D01*
X115879Y-65827D01*
X116011Y-65512D01*
X116037Y-65197D01*
X115984Y-64830D01*
X115800Y-64567D01*
X115617Y-64462D01*
X115381D01*
G01X115617D02*
X115774Y-64304D01*
X115906Y-64042D01*
X115958Y-63727D01*
X115906Y-63412D01*
X115774Y-63150D01*
X115538Y-62992D01*
X115302Y-63044D01*
X115066Y-63255D01*
G01X116588Y-64830D02*
X116772Y-64462D01*
X116929Y-64252D01*
X117139Y-64147D01*
X117323Y-64252D01*
X117454Y-64462D01*
X117559Y-64777D01*
X117585Y-65144D01*
X117559Y-65459D01*
X117454Y-65774D01*
X117296Y-66037D01*
X117113Y-66142D01*
X116903Y-66037D01*
X116719Y-65722D01*
X116614Y-65249D01*
X116588Y-64724D01*
X116641Y-64042D01*
X116719Y-63674D01*
X116850Y-63307D01*
X117034Y-63044D01*
X117218Y-62992D01*
X117402Y-63097D01*
X117533Y-63359D01*
G01X112467Y-70289D02*
X112310Y-70446D01*
X112205Y-70630D01*
Y-70840D01*
X112362Y-71076D01*
X112625Y-71260D01*
X112940Y-71391D01*
X113465Y-71496D01*
X113937Y-71522D01*
X114409Y-71470D01*
X114724Y-71391D01*
X115039Y-71233D01*
X115249Y-71050D01*
X115354Y-70866D01*
Y-70682D01*
X115249Y-70499D01*
X115092Y-70341D01*
X114882Y-70210D01*
G01X115354Y-69213D02*
X112205D01*
X112835Y-69528D01*
G01X115354D02*
Y-68898D01*
G01X112730Y-68058D02*
X112415Y-67900D01*
X112257Y-67717D01*
X112205Y-67507D01*
X112310Y-67244D01*
X112572Y-67060D01*
X112887Y-67008D01*
X113202Y-67034D01*
X113465Y-67139D01*
X113989Y-67664D01*
X114357Y-67900D01*
X114882Y-68058D01*
X115354Y-68110D01*
Y-67008D01*
G01X113255Y-61811D02*
Y-58661D01*
X113911D01*
X114121Y-58819D01*
X114252Y-59029D01*
X114304Y-59449D01*
X114252Y-59869D01*
X114094Y-60131D01*
X113911Y-60289D01*
X113255D01*
G01X113911D02*
X114304Y-61811D01*
G01X114856Y-61181D02*
X115013Y-61548D01*
X115223Y-61759D01*
X115459Y-61811D01*
X115669Y-61759D01*
X115879Y-61496D01*
X116011Y-61181D01*
X116037Y-60866D01*
X115984Y-60499D01*
X115800Y-60236D01*
X115617Y-60131D01*
X115381D01*
G01X115617D02*
X115774Y-59974D01*
X115906Y-59711D01*
X115958Y-59396D01*
X115906Y-59081D01*
X115774Y-58819D01*
X115538Y-58661D01*
X115302Y-58714D01*
X115066Y-58924D01*
G01X116588Y-59186D02*
X116745Y-58871D01*
X116929Y-58714D01*
X117139Y-58661D01*
X117402Y-58767D01*
X117585Y-59029D01*
X117638Y-59344D01*
X117611Y-59659D01*
X117507Y-59921D01*
X116981Y-60446D01*
X116745Y-60814D01*
X116588Y-61339D01*
X116535Y-61811D01*
X117638D01*
G01X116535Y-109186D02*
X113386D01*
Y-108530D01*
X113543Y-108320D01*
X113753Y-108189D01*
X114173Y-108137D01*
X114593Y-108189D01*
X114856Y-108346D01*
X115013Y-108530D01*
Y-109186D01*
G01Y-108530D02*
X116535Y-108137D01*
G01Y-106693D02*
X113386D01*
X115643Y-107664D01*
Y-106352D01*
G01X115223Y-105853D02*
X114856Y-105669D01*
X114646Y-105512D01*
X114541Y-105302D01*
X114646Y-105118D01*
X114856Y-104987D01*
X115170Y-104882D01*
X115538Y-104856D01*
X115853Y-104882D01*
X116168Y-104987D01*
X116430Y-105144D01*
X116535Y-105328D01*
X116430Y-105538D01*
X116116Y-105722D01*
X115643Y-105827D01*
X115118Y-105853D01*
X114436Y-105800D01*
X114068Y-105722D01*
X113701Y-105591D01*
X113438Y-105407D01*
X113386Y-105223D01*
X113491Y-105039D01*
X113753Y-104908D01*
G01X118110Y-96194D02*
X114961D01*
Y-95538D01*
X115118Y-95328D01*
X115328Y-95197D01*
X115748Y-95144D01*
X116168Y-95197D01*
X116430Y-95354D01*
X116588Y-95538D01*
Y-96194D01*
G01Y-95538D02*
X118110Y-95144D01*
G01Y-93701D02*
X114961D01*
X117218Y-94672D01*
Y-93359D01*
G01X118110Y-92047D02*
X114961D01*
X117218Y-93019D01*
Y-91706D01*
G01X117717Y-77296D02*
X114567D01*
Y-76641D01*
X114724Y-76430D01*
X114934Y-76299D01*
X115354Y-76247D01*
X115774Y-76299D01*
X116037Y-76457D01*
X116194Y-76641D01*
Y-77296D01*
G01Y-76641D02*
X117717Y-76247D01*
G01Y-74803D02*
X114567D01*
X116824Y-75774D01*
Y-74462D01*
G01X117717Y-73465D02*
X114567D01*
X115197Y-73780D01*
G01X117717D02*
Y-73150D01*
G01X124409Y-63911D02*
X121260D01*
Y-63255D01*
X121417Y-63044D01*
X121627Y-62913D01*
X122047Y-62861D01*
X122467Y-62913D01*
X122730Y-63071D01*
X122887Y-63255D01*
Y-63911D01*
G01Y-63255D02*
X124409Y-62861D01*
G01X121785Y-62231D02*
X121470Y-62074D01*
X121312Y-61890D01*
X121260Y-61680D01*
X121365Y-61417D01*
X121627Y-61233D01*
X121942Y-61181D01*
X122257Y-61207D01*
X122520Y-61312D01*
X123044Y-61837D01*
X123412Y-62074D01*
X123937Y-62231D01*
X124409Y-62283D01*
Y-61181D01*
G01Y-59764D02*
X121260D01*
X123517Y-60735D01*
Y-59422D01*
G01X124409Y-14698D02*
X121260D01*
Y-14042D01*
X121417Y-13832D01*
X121627Y-13701D01*
X122047Y-13648D01*
X122467Y-13701D01*
X122730Y-13858D01*
X122887Y-14042D01*
Y-14698D01*
G01Y-14042D02*
X124409Y-13648D01*
G01Y-12520D02*
X121260D01*
X121890Y-12835D01*
G01X124409D02*
Y-12205D01*
G01X121260Y-10866D02*
X121365Y-11076D01*
X121627Y-11233D01*
X121942Y-11339D01*
X122362Y-11417D01*
X122835Y-11444D01*
X123307Y-11417D01*
X123727Y-11339D01*
X124042Y-11233D01*
X124304Y-11076D01*
X124409Y-10866D01*
X124304Y-10656D01*
X124042Y-10499D01*
X123727Y-10394D01*
X123307Y-10315D01*
X122835Y-10289D01*
X122362Y-10315D01*
X121942Y-10394D01*
X121627Y-10499D01*
X121365Y-10656D01*
X121260Y-10866D01*
G01X133071Y-63911D02*
X129921D01*
Y-63255D01*
X130079Y-63044D01*
X130289Y-62913D01*
X130709Y-62861D01*
X131129Y-62913D01*
X131391Y-63071D01*
X131548Y-63255D01*
Y-63911D01*
G01Y-63255D02*
X133071Y-62861D01*
G01X130446Y-62231D02*
X130131Y-62074D01*
X129974Y-61890D01*
X129921Y-61680D01*
X130026Y-61417D01*
X130289Y-61233D01*
X130604Y-61181D01*
X130919Y-61207D01*
X131181Y-61312D01*
X131706Y-61837D01*
X132074Y-62074D01*
X132598Y-62231D01*
X133071Y-62283D01*
Y-61181D01*
G01X131759Y-60578D02*
X131391Y-60394D01*
X131181Y-60236D01*
X131076Y-60026D01*
X131181Y-59843D01*
X131391Y-59711D01*
X131706Y-59606D01*
X132074Y-59580D01*
X132389Y-59606D01*
X132704Y-59711D01*
X132966Y-59869D01*
X133071Y-60052D01*
X132966Y-60263D01*
X132651Y-60446D01*
X132178Y-60551D01*
X131654Y-60578D01*
X130971Y-60525D01*
X130604Y-60446D01*
X130236Y-60315D01*
X129974Y-60131D01*
X129921Y-59948D01*
X130026Y-59764D01*
X130289Y-59633D01*
G01X128740Y-63911D02*
X125591D01*
Y-63255D01*
X125748Y-63044D01*
X125958Y-62913D01*
X126378Y-62861D01*
X126798Y-62913D01*
X127060Y-63071D01*
X127218Y-63255D01*
Y-63911D01*
G01Y-63255D02*
X128740Y-62861D01*
G01X126115Y-62231D02*
X125800Y-62074D01*
X125643Y-61890D01*
X125591Y-61680D01*
X125696Y-61417D01*
X125958Y-61233D01*
X126273Y-61181D01*
X126588Y-61207D01*
X126850Y-61312D01*
X127375Y-61837D01*
X127743Y-62074D01*
X128268Y-62231D01*
X128740Y-62283D01*
Y-61181D01*
G01X128268Y-60656D02*
X128530Y-60499D01*
X128688Y-60315D01*
X128740Y-60079D01*
X128635Y-59843D01*
X128425Y-59659D01*
X128058Y-59528D01*
X127638Y-59501D01*
X127218Y-59554D01*
X126956Y-59685D01*
X126745Y-59869D01*
X126693Y-60052D01*
X126745Y-60236D01*
X126956Y-60472D01*
X125591Y-60394D01*
Y-59685D01*
G01X128740Y-14698D02*
X125591D01*
Y-14042D01*
X125748Y-13832D01*
X125958Y-13701D01*
X126378Y-13648D01*
X126798Y-13701D01*
X127060Y-13858D01*
X127218Y-14042D01*
Y-14698D01*
G01Y-14042D02*
X128740Y-13648D01*
G01X128110Y-13097D02*
X128478Y-12940D01*
X128688Y-12730D01*
X128740Y-12493D01*
X128688Y-12283D01*
X128425Y-12074D01*
X128110Y-11942D01*
X127795Y-11916D01*
X127428Y-11969D01*
X127165Y-12152D01*
X127060Y-12336D01*
Y-12572D01*
G01Y-12336D02*
X126903Y-12178D01*
X126641Y-12047D01*
X126326Y-11995D01*
X126011Y-12047D01*
X125748Y-12178D01*
X125591Y-12415D01*
X125643Y-12651D01*
X125853Y-12887D01*
G01X139186Y-65354D02*
Y-62205D01*
X139711D01*
X139921Y-62362D01*
X140079Y-62572D01*
X140210Y-62887D01*
X140315Y-63255D01*
X140341Y-63780D01*
X140315Y-64304D01*
X140210Y-64672D01*
X140079Y-64987D01*
X139921Y-65197D01*
X139711Y-65354D01*
X139186D01*
G01X141732D02*
Y-62205D01*
X140761Y-64462D01*
X142074D01*
G01X145853Y-46326D02*
X145696Y-46168D01*
X145512Y-46063D01*
X145302D01*
X145066Y-46220D01*
X144882Y-46483D01*
X144751Y-46798D01*
X144646Y-47323D01*
X144619Y-47795D01*
X144672Y-48268D01*
X144751Y-48583D01*
X144908Y-48898D01*
X145092Y-49107D01*
X145276Y-49213D01*
X145459D01*
X145643Y-49107D01*
X145800Y-48950D01*
X145932Y-48740D01*
G01X146877Y-49213D02*
X146929Y-48530D01*
X147008Y-47953D01*
X147113Y-47428D01*
X147244Y-46850D01*
X147454Y-46063D01*
X146404D01*
G01X138767Y-46326D02*
X138609Y-46168D01*
X138425Y-46063D01*
X138215D01*
X137979Y-46220D01*
X137795Y-46483D01*
X137664Y-46798D01*
X137559Y-47323D01*
X137533Y-47795D01*
X137585Y-48268D01*
X137664Y-48583D01*
X137822Y-48898D01*
X138005Y-49107D01*
X138189Y-49213D01*
X138373D01*
X138556Y-49107D01*
X138714Y-48950D01*
X138845Y-48740D01*
G01X139344Y-47900D02*
X139528Y-47533D01*
X139685Y-47323D01*
X139895Y-47218D01*
X140079Y-47323D01*
X140210Y-47533D01*
X140315Y-47848D01*
X140341Y-48215D01*
X140315Y-48530D01*
X140210Y-48845D01*
X140052Y-49107D01*
X139869Y-49213D01*
X139659Y-49107D01*
X139475Y-48793D01*
X139370Y-48320D01*
X139344Y-47795D01*
X139396Y-47113D01*
X139475Y-46745D01*
X139606Y-46378D01*
X139790Y-46115D01*
X139974Y-46063D01*
X140157Y-46168D01*
X140289Y-46430D01*
G01X138452Y-21654D02*
Y-24803D01*
X139501D01*
G01X140131Y-22178D02*
X140289Y-21863D01*
X140472Y-21706D01*
X140682Y-21654D01*
X140945Y-21759D01*
X141129Y-22021D01*
X141181Y-22336D01*
X141155Y-22651D01*
X141050Y-22913D01*
X140525Y-23438D01*
X140289Y-23806D01*
X140131Y-24331D01*
X140079Y-24803D01*
X141181D01*
G01X146719Y-13780D02*
Y-16929D01*
X147769D01*
G01X148320Y-16299D02*
X148478Y-16667D01*
X148688Y-16877D01*
X148924Y-16929D01*
X149134Y-16877D01*
X149344Y-16614D01*
X149475Y-16299D01*
X149501Y-15984D01*
X149449Y-15617D01*
X149265Y-15354D01*
X149081Y-15249D01*
X148845D01*
G01X149081D02*
X149239Y-15092D01*
X149370Y-14830D01*
X149422Y-14515D01*
X149370Y-14200D01*
X149239Y-13937D01*
X149003Y-13780D01*
X148767Y-13832D01*
X148530Y-14042D01*
G01X154593Y-11627D02*
X154436Y-11785D01*
X154331Y-11969D01*
Y-12178D01*
X154488Y-12415D01*
X154751Y-12598D01*
X155066Y-12730D01*
X155591Y-12835D01*
X156063Y-12861D01*
X156535Y-12808D01*
X156850Y-12730D01*
X157165Y-12572D01*
X157375Y-12389D01*
X157480Y-12205D01*
Y-12021D01*
X157375Y-11837D01*
X157218Y-11680D01*
X157008Y-11548D01*
G01X154856Y-11050D02*
X154541Y-10893D01*
X154383Y-10709D01*
X154331Y-10499D01*
X154436Y-10236D01*
X154698Y-10052D01*
X155013Y-10000D01*
X155328Y-10026D01*
X155591Y-10131D01*
X156115Y-10656D01*
X156483Y-10893D01*
X157008Y-11050D01*
X157480Y-11102D01*
Y-10000D01*
G01X160840Y-14173D02*
Y-16430D01*
X160945Y-16903D01*
X161155Y-17218D01*
X161417Y-17323D01*
X161680Y-17218D01*
X161890Y-16903D01*
X161995Y-16430D01*
Y-14173D01*
G01X163386Y-17323D02*
Y-14173D01*
X162415Y-16430D01*
X163727D01*
G01X162598Y-12730D02*
X159449D01*
Y-12074D01*
X159606Y-11863D01*
X159816Y-11732D01*
X160236Y-11680D01*
X160656Y-11732D01*
X160919Y-11890D01*
X161076Y-12074D01*
Y-12730D01*
G01Y-12074D02*
X162598Y-11680D01*
G01Y-10236D02*
X159449D01*
X161706Y-11207D01*
Y-9895D01*
G01X173228Y-56824D02*
X170079D01*
Y-56168D01*
X170236Y-55958D01*
X170446Y-55827D01*
X170866Y-55774D01*
X171286Y-55827D01*
X171548Y-55984D01*
X171706Y-56168D01*
Y-56824D01*
G01Y-56168D02*
X173228Y-55774D01*
G01X170604Y-55144D02*
X170289Y-54987D01*
X170131Y-54803D01*
X170079Y-54593D01*
X170184Y-54331D01*
X170446Y-54147D01*
X170761Y-54094D01*
X171076Y-54121D01*
X171339Y-54226D01*
X171863Y-54751D01*
X172231Y-54987D01*
X172756Y-55144D01*
X173228Y-55197D01*
Y-54094D01*
G01Y-53044D02*
X172546Y-52992D01*
X171969Y-52913D01*
X171444Y-52808D01*
X170866Y-52677D01*
X170079Y-52467D01*
Y-53517D01*
G01X178740Y-56824D02*
X175591D01*
Y-56168D01*
X175748Y-55958D01*
X175958Y-55827D01*
X176378Y-55774D01*
X176798Y-55827D01*
X177060Y-55984D01*
X177218Y-56168D01*
Y-56824D01*
G01Y-56168D02*
X178740Y-55774D01*
G01X176115Y-55144D02*
X175800Y-54987D01*
X175643Y-54803D01*
X175591Y-54593D01*
X175696Y-54331D01*
X175958Y-54147D01*
X176273Y-54094D01*
X176588Y-54121D01*
X176850Y-54226D01*
X177375Y-54751D01*
X177743Y-54987D01*
X178268Y-55144D01*
X178740Y-55197D01*
Y-54094D01*
G01Y-52992D02*
X178688Y-52808D01*
X178530Y-52598D01*
X178268Y-52467D01*
X177900Y-52415D01*
X177533Y-52467D01*
X177218Y-52625D01*
X177060Y-52861D01*
Y-53123D01*
X176956Y-53281D01*
X176693Y-53412D01*
X176326Y-53465D01*
X175958Y-53386D01*
X175696Y-53202D01*
X175591Y-52992D01*
X175696Y-52782D01*
X175958Y-52598D01*
X176326Y-52520D01*
X176693Y-52572D01*
X176956Y-52704D01*
X177060Y-52861D01*
Y-53123D01*
X177218Y-53359D01*
X177533Y-53517D01*
X177900Y-53570D01*
X178268Y-53517D01*
X178530Y-53386D01*
X178688Y-53176D01*
X178740Y-52992D01*
G01X184252Y-56824D02*
X181102D01*
Y-56168D01*
X181260Y-55958D01*
X181470Y-55827D01*
X181890Y-55774D01*
X182310Y-55827D01*
X182572Y-55984D01*
X182730Y-56168D01*
Y-56824D01*
G01Y-56168D02*
X184252Y-55774D01*
G01X181627Y-55144D02*
X181312Y-54987D01*
X181155Y-54803D01*
X181102Y-54593D01*
X181207Y-54331D01*
X181470Y-54147D01*
X181785Y-54094D01*
X182100Y-54121D01*
X182362Y-54226D01*
X182887Y-54751D01*
X183255Y-54987D01*
X183780Y-55144D01*
X184252Y-55197D01*
Y-54094D01*
G01X183885Y-53438D02*
X184147Y-53255D01*
X184252Y-53044D01*
X184147Y-52835D01*
X183832Y-52651D01*
X183359Y-52520D01*
X182887Y-52467D01*
X182310D01*
X181837Y-52520D01*
X181417Y-52651D01*
X181207Y-52808D01*
X181102Y-52992D01*
X181207Y-53202D01*
X181417Y-53359D01*
X181732Y-53465D01*
X182152Y-53517D01*
X182520Y-53465D01*
X182887Y-53333D01*
X183097Y-53176D01*
X183150Y-52992D01*
X183045Y-52782D01*
X182782Y-52625D01*
X182310Y-52467D01*
G01X195066Y-53019D02*
X194908Y-52861D01*
X194724Y-52756D01*
X194515D01*
X194278Y-52913D01*
X194094Y-53176D01*
X193963Y-53491D01*
X193858Y-54016D01*
X193832Y-54488D01*
X193885Y-54961D01*
X193963Y-55276D01*
X194121Y-55591D01*
X194304Y-55800D01*
X194488Y-55906D01*
X194672D01*
X194856Y-55800D01*
X195013Y-55643D01*
X195144Y-55433D01*
G01X196142Y-55906D02*
X196326Y-55853D01*
X196535Y-55696D01*
X196667Y-55433D01*
X196719Y-55066D01*
X196667Y-54698D01*
X196509Y-54383D01*
X196273Y-54226D01*
X196011D01*
X195853Y-54121D01*
X195722Y-53858D01*
X195669Y-53491D01*
X195748Y-53123D01*
X195932Y-52861D01*
X196142Y-52756D01*
X196352Y-52861D01*
X196535Y-53123D01*
X196614Y-53491D01*
X196562Y-53858D01*
X196430Y-54121D01*
X196273Y-54226D01*
X196011D01*
X195774Y-54383D01*
X195617Y-54698D01*
X195564Y-55066D01*
X195617Y-55433D01*
X195748Y-55696D01*
X195958Y-55853D01*
X196142Y-55906D01*
G01X196850Y-13517D02*
X193701D01*
Y-12861D01*
X193858Y-12651D01*
X194068Y-12520D01*
X194488Y-12467D01*
X194908Y-12520D01*
X195170Y-12677D01*
X195328Y-12861D01*
Y-13517D01*
G01Y-12861D02*
X196850Y-12467D01*
G01X195538Y-11837D02*
X195170Y-11654D01*
X194961Y-11496D01*
X194856Y-11286D01*
X194961Y-11102D01*
X195170Y-10971D01*
X195485Y-10866D01*
X195853Y-10840D01*
X196168Y-10866D01*
X196483Y-10971D01*
X196745Y-11129D01*
X196850Y-11312D01*
X196745Y-11522D01*
X196431Y-11706D01*
X195958Y-11811D01*
X195433Y-11837D01*
X194751Y-11785D01*
X194383Y-11706D01*
X194016Y-11575D01*
X193753Y-11391D01*
X193701Y-11207D01*
X193806Y-11024D01*
X194068Y-10893D01*
G01X192520Y-13517D02*
X189370D01*
Y-12861D01*
X189528Y-12651D01*
X189737Y-12520D01*
X190157Y-12467D01*
X190578Y-12520D01*
X190840Y-12677D01*
X190997Y-12861D01*
Y-13517D01*
G01Y-12861D02*
X192520Y-12467D01*
G01X192047Y-11916D02*
X192310Y-11759D01*
X192467Y-11575D01*
X192520Y-11339D01*
X192415Y-11102D01*
X192205Y-10919D01*
X191837Y-10787D01*
X191417Y-10761D01*
X190997Y-10814D01*
X190735Y-10945D01*
X190525Y-11129D01*
X190472Y-11312D01*
X190525Y-11496D01*
X190735Y-11732D01*
X189370Y-11654D01*
Y-10945D01*
G01X206956Y-21260D02*
Y-24409D01*
X208005D01*
G01X209449D02*
Y-21260D01*
X208478Y-23517D01*
X209790D01*
G01X209685Y-35013D02*
X209895Y-35276D01*
X210131Y-35433D01*
X210341D01*
X210551Y-35276D01*
X210709Y-35013D01*
X210787Y-34646D01*
X210735Y-34278D01*
X210604Y-33963D01*
X210367Y-33753D01*
X210052Y-33648D01*
X209869Y-33438D01*
X209790Y-33071D01*
X209843Y-32704D01*
X209974Y-32441D01*
X210157Y-32283D01*
X210341D01*
X210525Y-32389D01*
X210682Y-32651D01*
G01X211102Y-32283D02*
X211470Y-35433D01*
X211890Y-32283D01*
X212310Y-35433D01*
X212677Y-32283D01*
G01X213543Y-35433D02*
Y-32283D01*
X213228Y-32913D01*
G01Y-35433D02*
X213858D01*
G01X213255Y-25197D02*
Y-22047D01*
X213911D01*
X214121Y-22205D01*
X214252Y-22415D01*
X214304Y-22835D01*
X214252Y-23255D01*
X214094Y-23517D01*
X213911Y-23674D01*
X213255D01*
G01X213911D02*
X214304Y-25197D01*
G01X215433D02*
Y-22047D01*
X215118Y-22677D01*
G01Y-25197D02*
X215748D01*
G01X216509Y-24724D02*
X216667Y-24987D01*
X216850Y-25144D01*
X217087Y-25197D01*
X217323Y-25092D01*
X217507Y-24882D01*
X217638Y-24515D01*
X217664Y-24094D01*
X217611Y-23674D01*
X217480Y-23412D01*
X217296Y-23202D01*
X217113Y-23150D01*
X216929Y-23202D01*
X216693Y-23412D01*
X216772Y-22047D01*
X217480D01*
G01X214751Y-10893D02*
X214593Y-10735D01*
X214409Y-10630D01*
X214200D01*
X213963Y-10787D01*
X213780Y-11050D01*
X213648Y-11365D01*
X213543Y-11890D01*
X213517Y-12362D01*
X213570Y-12835D01*
X213648Y-13150D01*
X213806Y-13465D01*
X213989Y-13674D01*
X214173Y-13780D01*
X214357D01*
X214541Y-13674D01*
X214698Y-13517D01*
X214830Y-13307D01*
G01X215827Y-13780D02*
Y-10630D01*
X215512Y-11260D01*
G01Y-13780D02*
X216142D01*
G01X214751Y-16404D02*
X214593Y-16247D01*
X214409Y-16142D01*
X214200D01*
X213963Y-16299D01*
X213780Y-16562D01*
X213648Y-16877D01*
X213543Y-17402D01*
X213517Y-17874D01*
X213570Y-18346D01*
X213648Y-18661D01*
X213806Y-18976D01*
X213989Y-19186D01*
X214173Y-19291D01*
X214357D01*
X214541Y-19186D01*
X214698Y-19029D01*
X214830Y-18819D01*
G01X216142Y-19291D02*
Y-16142D01*
X215170Y-18399D01*
X216483D01*
G01X235249Y-66142D02*
Y-62992D01*
X235774D01*
X235984Y-63150D01*
X236142Y-63359D01*
X236273Y-63674D01*
X236378Y-64042D01*
X236404Y-64567D01*
X236378Y-65092D01*
X236273Y-65459D01*
X236142Y-65774D01*
X235984Y-65984D01*
X235774Y-66142D01*
X235249D01*
G01X236903Y-65669D02*
X237060Y-65932D01*
X237244Y-66089D01*
X237480Y-66142D01*
X237717Y-66037D01*
X237900Y-65827D01*
X238031Y-65459D01*
X238058Y-65039D01*
X238005Y-64619D01*
X237874Y-64357D01*
X237690Y-64147D01*
X237507Y-64094D01*
X237323Y-64147D01*
X237087Y-64357D01*
X237165Y-62992D01*
X237874D01*
G01X239580Y-24803D02*
Y-27060D01*
X239685Y-27533D01*
X239895Y-27848D01*
X240157Y-27953D01*
X240420Y-27848D01*
X240630Y-27533D01*
X240735Y-27060D01*
Y-24803D01*
G01X241811Y-27953D02*
Y-24803D01*
X241496Y-25433D01*
G01Y-27953D02*
X242126D01*
G01X246273Y-51969D02*
Y-54226D01*
X246378Y-54698D01*
X246588Y-55013D01*
X246850Y-55118D01*
X247113Y-55013D01*
X247323Y-54698D01*
X247428Y-54226D01*
Y-51969D01*
G01X247926Y-54646D02*
X248084Y-54908D01*
X248268Y-55066D01*
X248504Y-55118D01*
X248740Y-55013D01*
X248924Y-54803D01*
X249055Y-54436D01*
X249081Y-54016D01*
X249029Y-53596D01*
X248898Y-53333D01*
X248714Y-53123D01*
X248530Y-53071D01*
X248346Y-53123D01*
X248110Y-53333D01*
X248189Y-51969D01*
X248898D01*
G01X255381Y-22835D02*
Y-19685D01*
X256037D01*
X256247Y-19843D01*
X256378Y-20052D01*
X256430Y-20472D01*
X256378Y-20893D01*
X256220Y-21155D01*
X256037Y-21312D01*
X255381D01*
G01X256037D02*
X256430Y-22835D01*
G01X257559D02*
Y-19685D01*
X257244Y-20315D01*
G01Y-22835D02*
X257874D01*
G01X254200Y-12598D02*
Y-9449D01*
X254856D01*
X255066Y-9606D01*
X255197Y-9816D01*
X255249Y-10236D01*
X255197Y-10656D01*
X255039Y-10919D01*
X254856Y-11076D01*
X254200D01*
G01X254856D02*
X255249Y-12598D01*
G01X256378D02*
Y-9449D01*
X256063Y-10079D01*
G01Y-12598D02*
X256693D01*
G01X257533Y-9974D02*
X257690Y-9659D01*
X257874Y-9501D01*
X258084Y-9449D01*
X258346Y-9554D01*
X258530Y-9816D01*
X258583Y-10131D01*
X258556Y-10446D01*
X258452Y-10709D01*
X257926Y-11233D01*
X257690Y-11601D01*
X257533Y-12126D01*
X257480Y-12598D01*
X258583D01*
G01X266142Y-89370D02*
Y-92520D01*
G01X265538Y-89370D02*
X266745D01*
G01X267270Y-92520D02*
Y-89370D01*
X267900D01*
X268110Y-89528D01*
X268268Y-89895D01*
X268320Y-90315D01*
X268268Y-90735D01*
X268137Y-91050D01*
X267900Y-91207D01*
X267270D01*
G01X269764Y-92520D02*
Y-89370D01*
X268793Y-91627D01*
X270105D01*
G01X272257Y-9449D02*
Y-11706D01*
X272362Y-12179D01*
X272572Y-12493D01*
X272835Y-12598D01*
X273097Y-12493D01*
X273307Y-12179D01*
X273412Y-11706D01*
Y-9449D01*
G01X273989Y-9974D02*
X274147Y-9659D01*
X274331Y-9501D01*
X274541Y-9449D01*
X274803Y-9554D01*
X274987Y-9816D01*
X275039Y-10131D01*
X275013Y-10446D01*
X274908Y-10709D01*
X274383Y-11233D01*
X274147Y-11601D01*
X273989Y-12126D01*
X273937Y-12598D01*
X275039D01*
G01X274672Y-108031D02*
X274803Y-108346D01*
X274961Y-108556D01*
X275144Y-108661D01*
X275354Y-108556D01*
X275512Y-108346D01*
X275669Y-108031D01*
X275722Y-107611D01*
Y-105512D01*
G01X276850Y-108661D02*
Y-105512D01*
X276535Y-106142D01*
G01Y-108661D02*
X277165D01*
G01X291601Y-80315D02*
Y-77165D01*
X292257D01*
X292467Y-77323D01*
X292598Y-77533D01*
X292651Y-77953D01*
X292598Y-78373D01*
X292441Y-78635D01*
X292257Y-78793D01*
X291601D01*
G01X292257D02*
X292651Y-80315D01*
G01X294094D02*
Y-77165D01*
X293123Y-79422D01*
X294436D01*
G01X294934Y-77690D02*
X295092Y-77375D01*
X295276Y-77218D01*
X295485Y-77165D01*
X295748Y-77270D01*
X295932Y-77533D01*
X295984Y-77848D01*
X295958Y-78163D01*
X295853Y-78425D01*
X295328Y-78950D01*
X295092Y-79318D01*
X294934Y-79843D01*
X294882Y-80315D01*
X295984D01*
G01X286614Y-79528D02*
Y-82677D01*
G01X286011Y-79528D02*
X287218D01*
G01X287743Y-82677D02*
Y-79528D01*
X288373D01*
X288583Y-79685D01*
X288740Y-80052D01*
X288793Y-80472D01*
X288740Y-80893D01*
X288609Y-81207D01*
X288373Y-81365D01*
X287743D01*
G01X289344Y-82205D02*
X289501Y-82467D01*
X289685Y-82625D01*
X289921Y-82677D01*
X290157Y-82572D01*
X290341Y-82362D01*
X290472Y-81995D01*
X290499Y-81575D01*
X290446Y-81155D01*
X290315Y-80893D01*
X290131Y-80682D01*
X289948Y-80630D01*
X289764Y-80682D01*
X289528Y-80893D01*
X289606Y-79528D01*
X290315D01*
G01X289239Y-12598D02*
Y-9449D01*
X289895D01*
X290105Y-9606D01*
X290236Y-9816D01*
X290289Y-10236D01*
X290236Y-10656D01*
X290079Y-10919D01*
X289895Y-11076D01*
X289239D01*
G01X289895D02*
X290289Y-12598D01*
G01X291417D02*
Y-9449D01*
X291102Y-10079D01*
G01Y-12598D02*
X291732D01*
G01X293071D02*
Y-9449D01*
X292756Y-10079D01*
G01Y-12598D02*
X293386D01*
G01X295932Y-29528D02*
Y-26378D01*
X296588D01*
X296798Y-26535D01*
X296929Y-26745D01*
X296981Y-27165D01*
X296929Y-27585D01*
X296772Y-27848D01*
X296588Y-28005D01*
X295932D01*
G01X296588D02*
X296981Y-29528D01*
G01X298110D02*
Y-26378D01*
X297795Y-27008D01*
G01Y-29528D02*
X298425D01*
G01X299186Y-28898D02*
X299344Y-29265D01*
X299554Y-29475D01*
X299790Y-29528D01*
X300000Y-29475D01*
X300210Y-29213D01*
X300341Y-28898D01*
X300367Y-28583D01*
X300315Y-28215D01*
X300131Y-27953D01*
X299948Y-27848D01*
X299711D01*
G01X299948D02*
X300105Y-27690D01*
X300236Y-27428D01*
X300289Y-27113D01*
X300236Y-26798D01*
X300105Y-26535D01*
X299869Y-26378D01*
X299633Y-26430D01*
X299396Y-26641D01*
G01X305512Y-25591D02*
Y-28740D01*
G01X304908Y-25591D02*
X306115D01*
G01X306641Y-28740D02*
Y-25591D01*
X307270D01*
X307480Y-25748D01*
X307638Y-26115D01*
X307690Y-26535D01*
X307638Y-26956D01*
X307507Y-27270D01*
X307270Y-27428D01*
X306641D01*
G01X308320D02*
X308504Y-27060D01*
X308661Y-26850D01*
X308871Y-26745D01*
X309055Y-26850D01*
X309186Y-27060D01*
X309291Y-27375D01*
X309318Y-27743D01*
X309291Y-28058D01*
X309186Y-28373D01*
X309029Y-28635D01*
X308845Y-28740D01*
X308635Y-28635D01*
X308452Y-28320D01*
X308346Y-27848D01*
X308320Y-27323D01*
X308373Y-26641D01*
X308452Y-26273D01*
X308583Y-25906D01*
X308767Y-25643D01*
X308950Y-25591D01*
X309134Y-25696D01*
X309265Y-25958D01*
G01X297454Y-11811D02*
Y-8661D01*
X297979D01*
X298189Y-8819D01*
X298346Y-9029D01*
X298478Y-9344D01*
X298583Y-9711D01*
X298609Y-10236D01*
X298583Y-10761D01*
X298478Y-11129D01*
X298346Y-11444D01*
X298189Y-11654D01*
X297979Y-11811D01*
X297454D01*
G01X299685D02*
Y-8661D01*
X299370Y-9291D01*
G01Y-11811D02*
X300000D01*
G01X316404Y-102572D02*
X316247Y-102730D01*
X316142Y-102913D01*
Y-103123D01*
X316299Y-103359D01*
X316562Y-103543D01*
X316877Y-103674D01*
X317402Y-103780D01*
X317874Y-103806D01*
X318346Y-103753D01*
X318661Y-103674D01*
X318976Y-103517D01*
X319186Y-103333D01*
X319291Y-103150D01*
Y-102966D01*
X319186Y-102782D01*
X319029Y-102625D01*
X318819Y-102493D01*
G01X319291Y-101496D02*
X316142D01*
X316772Y-101811D01*
G01X319291D02*
Y-101181D01*
G01X317979Y-100341D02*
X317611Y-100157D01*
X317402Y-100000D01*
X317296Y-99790D01*
X317402Y-99606D01*
X317611Y-99475D01*
X317926Y-99370D01*
X318294Y-99344D01*
X318609Y-99370D01*
X318924Y-99475D01*
X319186Y-99633D01*
X319291Y-99816D01*
X319186Y-100026D01*
X318872Y-100210D01*
X318399Y-100315D01*
X317874Y-100341D01*
X317192Y-100289D01*
X316824Y-100210D01*
X316457Y-100079D01*
X316194Y-99895D01*
X316142Y-99711D01*
X316247Y-99528D01*
X316509Y-99396D01*
G01X309055Y-72047D02*
Y-70630D01*
X308530Y-68898D01*
G01X309580D02*
X309055Y-70630D01*
G01X310709Y-72047D02*
Y-68898D01*
X310394Y-69528D01*
G01Y-72047D02*
X311024D01*
G01X312992Y-22966D02*
X309843D01*
Y-22310D01*
X310000Y-22100D01*
X310210Y-21969D01*
X310630Y-21916D01*
X311050Y-21969D01*
X311312Y-22126D01*
X311470Y-22310D01*
Y-22966D01*
G01Y-22310D02*
X312992Y-21916D01*
G01Y-20840D02*
X312310Y-20787D01*
X311732Y-20709D01*
X311207Y-20604D01*
X310630Y-20472D01*
X309843Y-20263D01*
Y-21312D01*
G01X311286Y-27953D02*
Y-24803D01*
X311942D01*
X312152Y-24961D01*
X312283Y-25170D01*
X312336Y-25591D01*
X312283Y-26011D01*
X312126Y-26273D01*
X311942Y-26430D01*
X311286D01*
G01X311942D02*
X312336Y-27953D01*
G01X313465D02*
Y-24803D01*
X313150Y-25433D01*
G01Y-27953D02*
X313780D01*
G01X315433D02*
Y-24803D01*
X314462Y-27060D01*
X315774D01*
G01X313255Y-12205D02*
Y-9055D01*
X313911D01*
X314121Y-9213D01*
X314252Y-9422D01*
X314304Y-9843D01*
X314252Y-10263D01*
X314094Y-10525D01*
X313911Y-10682D01*
X313255D01*
G01X313911D02*
X314304Y-12205D01*
G01X315433D02*
X315617Y-12152D01*
X315827Y-11995D01*
X315958Y-11732D01*
X316011Y-11365D01*
X315958Y-10998D01*
X315800Y-10682D01*
X315564Y-10525D01*
X315302D01*
X315144Y-10420D01*
X315013Y-10157D01*
X314961Y-9790D01*
X315039Y-9422D01*
X315223Y-9160D01*
X315433Y-9055D01*
X315643Y-9160D01*
X315827Y-9422D01*
X315906Y-9790D01*
X315853Y-10157D01*
X315722Y-10420D01*
X315564Y-10525D01*
X315302D01*
X315066Y-10682D01*
X314908Y-10998D01*
X314856Y-11365D01*
X314908Y-11732D01*
X315039Y-11995D01*
X315249Y-12152D01*
X315433Y-12205D01*
G01X316745Y-105512D02*
Y-107769D01*
X316850Y-108242D01*
X317060Y-108556D01*
X317323Y-108661D01*
X317585Y-108556D01*
X317795Y-108242D01*
X317900Y-107769D01*
Y-105512D01*
G01X318924Y-108661D02*
X318976Y-107979D01*
X319055Y-107402D01*
X319160Y-106877D01*
X319291Y-106299D01*
X319501Y-105512D01*
X318452D01*
G01X326168Y-102231D02*
X326011Y-102074D01*
X325827Y-101969D01*
X325617D01*
X325381Y-102126D01*
X325197Y-102389D01*
X325066Y-102704D01*
X324961Y-103228D01*
X324934Y-103701D01*
X324987Y-104173D01*
X325066Y-104488D01*
X325223Y-104803D01*
X325407Y-105013D01*
X325591Y-105118D01*
X325774D01*
X325958Y-105013D01*
X326115Y-104856D01*
X326247Y-104646D01*
G01X327244Y-105118D02*
Y-101969D01*
X326929Y-102598D01*
G01Y-105118D02*
X327559D01*
G01X328845D02*
X328898Y-104436D01*
X328976Y-103858D01*
X329081Y-103333D01*
X329213Y-102756D01*
X329422Y-101969D01*
X328373D01*
G01X330092Y-53845D02*
X330249Y-53688D01*
X330354Y-53504D01*
Y-53294D01*
X330197Y-53058D01*
X329934Y-52874D01*
X329619Y-52743D01*
X329094Y-52638D01*
X328622Y-52611D01*
X328150Y-52664D01*
X327835Y-52743D01*
X327520Y-52900D01*
X327310Y-53084D01*
X327205Y-53268D01*
Y-53452D01*
X327310Y-53635D01*
X327467Y-53793D01*
X327677Y-53924D01*
G01X327572Y-54475D02*
X327310Y-54659D01*
X327205Y-54869D01*
X327310Y-55079D01*
X327624Y-55263D01*
X328097Y-55394D01*
X328570Y-55446D01*
X329147D01*
X329619Y-55394D01*
X330039Y-55263D01*
X330249Y-55105D01*
X330354Y-54921D01*
X330249Y-54711D01*
X330039Y-54554D01*
X329724Y-54449D01*
X329304Y-54396D01*
X328937Y-54449D01*
X328570Y-54580D01*
X328359Y-54737D01*
X328307Y-54921D01*
X328412Y-55131D01*
X328674Y-55289D01*
X329147Y-55446D01*
G01X317979Y-40551D02*
Y-37402D01*
X318635D01*
X318845Y-37559D01*
X318976Y-37769D01*
X319029Y-38189D01*
X318976Y-38609D01*
X318819Y-38871D01*
X318635Y-39029D01*
X317979D01*
G01X318635D02*
X319029Y-40551D01*
G01X319659Y-37926D02*
X319816Y-37611D01*
X320000Y-37454D01*
X320210Y-37402D01*
X320472Y-37507D01*
X320656Y-37769D01*
X320709Y-38084D01*
X320682Y-38399D01*
X320578Y-38661D01*
X320052Y-39186D01*
X319816Y-39554D01*
X319659Y-40079D01*
X319606Y-40551D01*
X320709D01*
G01X321811Y-37402D02*
X321601Y-37507D01*
X321444Y-37769D01*
X321339Y-38084D01*
X321260Y-38504D01*
X321233Y-38976D01*
X321260Y-39449D01*
X321339Y-39869D01*
X321444Y-40184D01*
X321601Y-40446D01*
X321811Y-40551D01*
X322021Y-40446D01*
X322178Y-40184D01*
X322283Y-39869D01*
X322362Y-39449D01*
X322389Y-38976D01*
X322362Y-38504D01*
X322283Y-38084D01*
X322178Y-37769D01*
X322021Y-37507D01*
X321811Y-37402D01*
G01X318373Y-35433D02*
Y-32283D01*
X319029D01*
X319239Y-32441D01*
X319370Y-32651D01*
X319422Y-33071D01*
X319370Y-33491D01*
X319213Y-33753D01*
X319029Y-33911D01*
X318373D01*
G01X319029D02*
X319422Y-35433D01*
G01X320551D02*
Y-32283D01*
X320236Y-32913D01*
G01Y-35433D02*
X320866D01*
G01X321706Y-34121D02*
X321890Y-33753D01*
X322047Y-33543D01*
X322257Y-33438D01*
X322441Y-33543D01*
X322572Y-33753D01*
X322677Y-34068D01*
X322704Y-34436D01*
X322677Y-34751D01*
X322572Y-35066D01*
X322415Y-35328D01*
X322231Y-35433D01*
X322021Y-35328D01*
X321837Y-35013D01*
X321732Y-34541D01*
X321706Y-34016D01*
X321759Y-33333D01*
X321837Y-32966D01*
X321969Y-32598D01*
X322152Y-32336D01*
X322336Y-32283D01*
X322520Y-32389D01*
X322651Y-32651D01*
G01X318320Y-11417D02*
Y-8268D01*
X318845D01*
X319055Y-8425D01*
X319213Y-8635D01*
X319344Y-8950D01*
X319449Y-9318D01*
X319475Y-9843D01*
X319449Y-10367D01*
X319344Y-10735D01*
X319213Y-11050D01*
X319055Y-11260D01*
X318845Y-11417D01*
X318320D01*
G01X320052Y-8793D02*
X320210Y-8478D01*
X320394Y-8320D01*
X320604Y-8268D01*
X320866Y-8373D01*
X321050Y-8635D01*
X321102Y-8950D01*
X321076Y-9265D01*
X320971Y-9528D01*
X320446Y-10052D01*
X320210Y-10420D01*
X320052Y-10945D01*
X320000Y-11417D01*
X321102D01*
G01X340157Y-74934D02*
X337008D01*
Y-74278D01*
X337165Y-74068D01*
X337375Y-73937D01*
X337795Y-73885D01*
X338215Y-73937D01*
X338478Y-74094D01*
X338635Y-74278D01*
Y-74934D01*
G01Y-74278D02*
X340157Y-73885D01*
G01X339528Y-73333D02*
X339895Y-73176D01*
X340105Y-72966D01*
X340157Y-72730D01*
X340105Y-72520D01*
X339843Y-72310D01*
X339528Y-72178D01*
X339213Y-72152D01*
X338845Y-72205D01*
X338583Y-72389D01*
X338478Y-72572D01*
Y-72808D01*
G01Y-72572D02*
X338320Y-72415D01*
X338058Y-72283D01*
X337743Y-72231D01*
X337428Y-72283D01*
X337165Y-72415D01*
X337008Y-72651D01*
X337060Y-72887D01*
X337270Y-73123D01*
G01X340157Y-71102D02*
X340105Y-70919D01*
X339948Y-70709D01*
X339685Y-70578D01*
X339318Y-70525D01*
X338950Y-70578D01*
X338635Y-70735D01*
X338478Y-70971D01*
Y-71233D01*
X338373Y-71391D01*
X338110Y-71522D01*
X337743Y-71575D01*
X337375Y-71496D01*
X337113Y-71312D01*
X337008Y-71102D01*
X337113Y-70893D01*
X337375Y-70709D01*
X337743Y-70630D01*
X338110Y-70682D01*
X338373Y-70814D01*
X338478Y-70971D01*
Y-71233D01*
X338635Y-71470D01*
X338950Y-71627D01*
X339318Y-71680D01*
X339685Y-71627D01*
X339948Y-71496D01*
X340105Y-71286D01*
X340157Y-71102D01*
G01X337585Y-66011D02*
X337428Y-65853D01*
X337244Y-65748D01*
X337034D01*
X336798Y-65906D01*
X336614Y-66168D01*
X336483Y-66483D01*
X336378Y-67008D01*
X336352Y-67480D01*
X336404Y-67953D01*
X336483Y-68268D01*
X336641Y-68583D01*
X336824Y-68793D01*
X337008Y-68898D01*
X337192D01*
X337375Y-68793D01*
X337533Y-68635D01*
X337664Y-68425D01*
G01X338661Y-68898D02*
Y-65748D01*
X338346Y-66378D01*
G01Y-68898D02*
X338976D01*
G01X340315D02*
Y-65748D01*
X340000Y-66378D01*
G01Y-68898D02*
X340630D01*
G01X332283Y-24934D02*
X329134D01*
Y-24278D01*
X329291Y-24068D01*
X329501Y-23937D01*
X329921Y-23885D01*
X330341Y-23937D01*
X330604Y-24094D01*
X330761Y-24278D01*
Y-24934D01*
G01Y-24278D02*
X332283Y-23885D01*
G01X331916Y-23202D02*
X332178Y-23019D01*
X332283Y-22808D01*
X332178Y-22598D01*
X331864Y-22415D01*
X331391Y-22283D01*
X330919Y-22231D01*
X330341D01*
X329869Y-22283D01*
X329449Y-22415D01*
X329239Y-22572D01*
X329134Y-22756D01*
X329239Y-22966D01*
X329449Y-23123D01*
X329764Y-23228D01*
X330184Y-23281D01*
X330551Y-23228D01*
X330919Y-23097D01*
X331129Y-22940D01*
X331181Y-22756D01*
X331076Y-22546D01*
X330814Y-22389D01*
X330341Y-22231D01*
G01X333674Y-24803D02*
Y-21654D01*
X334200D01*
X334409Y-21811D01*
X334567Y-22021D01*
X334698Y-22336D01*
X334803Y-22704D01*
X334830Y-23228D01*
X334803Y-23753D01*
X334698Y-24121D01*
X334567Y-24436D01*
X334409Y-24646D01*
X334200Y-24803D01*
X333674D01*
G01X335328Y-24173D02*
X335485Y-24541D01*
X335696Y-24751D01*
X335932Y-24803D01*
X336142Y-24751D01*
X336352Y-24488D01*
X336483Y-24173D01*
X336509Y-23858D01*
X336457Y-23491D01*
X336273Y-23228D01*
X336089Y-23123D01*
X335853D01*
G01X336089D02*
X336247Y-22966D01*
X336378Y-22704D01*
X336430Y-22389D01*
X336378Y-22074D01*
X336247Y-21811D01*
X336011Y-21654D01*
X335774Y-21706D01*
X335538Y-21916D01*
G01X341129Y-76247D02*
X340971Y-76089D01*
X340787Y-75984D01*
X340578D01*
X340341Y-76142D01*
X340157Y-76404D01*
X340026Y-76719D01*
X339921Y-77244D01*
X339895Y-77717D01*
X339948Y-78189D01*
X340026Y-78504D01*
X340184Y-78819D01*
X340367Y-79029D01*
X340551Y-79134D01*
X340735D01*
X340919Y-79029D01*
X341076Y-78871D01*
X341207Y-78661D01*
G01X342205Y-79134D02*
Y-75984D01*
X341890Y-76614D01*
G01Y-79134D02*
X342520D01*
G01X344173D02*
Y-75984D01*
X343202Y-78241D01*
X344515D01*
G01X344488Y-74934D02*
X341339D01*
Y-74278D01*
X341496Y-74068D01*
X341706Y-73937D01*
X342126Y-73885D01*
X342546Y-73937D01*
X342808Y-74094D01*
X342966Y-74278D01*
Y-74934D01*
G01Y-74278D02*
X344488Y-73885D01*
G01X343858Y-73333D02*
X344226Y-73176D01*
X344436Y-72966D01*
X344488Y-72730D01*
X344436Y-72520D01*
X344173Y-72310D01*
X343858Y-72178D01*
X343543Y-72152D01*
X343176Y-72205D01*
X342913Y-72389D01*
X342808Y-72572D01*
Y-72808D01*
G01Y-72572D02*
X342651Y-72415D01*
X342389Y-72283D01*
X342074Y-72231D01*
X341759Y-72283D01*
X341496Y-72415D01*
X341339Y-72651D01*
X341391Y-72887D01*
X341601Y-73123D01*
G01X344121Y-71548D02*
X344383Y-71365D01*
X344488Y-71155D01*
X344383Y-70945D01*
X344069Y-70761D01*
X343596Y-70630D01*
X343123Y-70578D01*
X342546D01*
X342074Y-70630D01*
X341654Y-70761D01*
X341444Y-70919D01*
X341339Y-71102D01*
X341444Y-71312D01*
X341654Y-71470D01*
X341969Y-71575D01*
X342389Y-71627D01*
X342756Y-71575D01*
X343123Y-71444D01*
X343333Y-71286D01*
X343386Y-71102D01*
X343281Y-70893D01*
X343019Y-70735D01*
X342546Y-70578D01*
G01X339370Y-56693D02*
X339160Y-56641D01*
X338976Y-56430D01*
X338819Y-56115D01*
X338714Y-55748D01*
X338661Y-55328D01*
Y-54908D01*
X338714Y-54488D01*
X338819Y-54121D01*
X338976Y-53806D01*
X339160Y-53596D01*
X339370Y-53543D01*
X339580Y-53596D01*
X339764Y-53806D01*
X339921Y-54121D01*
X340026Y-54488D01*
X340079Y-54908D01*
Y-55328D01*
X340026Y-55748D01*
X339921Y-56115D01*
X339764Y-56430D01*
X339580Y-56641D01*
X339370Y-56693D01*
G01X339580Y-55853D02*
X339895Y-56693D01*
G01X340446Y-56063D02*
X340604Y-56430D01*
X340814Y-56641D01*
X341050Y-56693D01*
X341260Y-56641D01*
X341470Y-56378D01*
X341601Y-56063D01*
X341627Y-55748D01*
X341575Y-55381D01*
X341391Y-55118D01*
X341207Y-55013D01*
X340971D01*
G01X341207D02*
X341365Y-54856D01*
X341496Y-54593D01*
X341548Y-54278D01*
X341496Y-53963D01*
X341365Y-53701D01*
X341129Y-53543D01*
X340893Y-53596D01*
X340656Y-53806D01*
G01X340814Y-24803D02*
Y-21654D01*
X341470D01*
X341680Y-21811D01*
X341811Y-22021D01*
X341863Y-22441D01*
X341811Y-22861D01*
X341654Y-23123D01*
X341470Y-23281D01*
X340814D01*
G01X341470D02*
X341863Y-24803D01*
G01X342992D02*
Y-21654D01*
X342677Y-22283D01*
G01Y-24803D02*
X343307D01*
G01X344593D02*
X344646Y-24121D01*
X344724Y-23543D01*
X344830Y-23019D01*
X344961Y-22441D01*
X345170Y-21654D01*
X344121D01*
G54D15*
G01X32820Y-40781D02*
X28740D01*
Y-51441D01*
X29219D01*
G01X32099D02*
X36666D01*
G01X35799Y-40781D02*
X39882D01*
Y-51441D01*
X39501D01*
G01X50537Y-40781D02*
X46457D01*
Y-51441D01*
X46935D01*
G01X49815D02*
X54383D01*
G01X53516Y-40781D02*
X57598D01*
Y-51441D01*
X57217D01*
G01X263587Y-73843D02*
X260413D01*
Y-70665D01*
G01X263591Y-44315D02*
X260433D01*
Y-47269D01*
G01X289969Y-70693D02*
X289949D01*
Y-73807D01*
X286870D01*
G01X286720Y-44299D02*
X289933D01*
Y-47551D01*
G01X330843Y-43910D02*
Y-48477D01*
G01X341503Y-47610D02*
Y-51693D01*
X330843D01*
Y-51312D01*
G01X341503Y-44631D02*
Y-40551D01*
X330843D01*
Y-41030D01*
M02*
