G04 ================== begin FILE IDENTIFICATION RECORD ==================*
G04 Layout Name:  F:/MyJob/PoF_TMR_A1/PCB/PoF_TMR_A1-JAN-21-26.brd*
G04 Film Name:    SOLDERMASK_TOP*
G04 File Format:  Gerber RS274X*
G04 File Origin:  Cadence Allegro 22.1-P001*
G04 Origin Date:  Wed Jan 21 15:19:45 2026*
G04 *
G04 Layer:  VIA CLASS/SOLDERMASK_TOP*
G04 Layer:  PIN/SOLDERMASK_TOP*
G04 *
G04 Offset:    (0.0000 0.0000)*
G04 Mirror:    No*
G04 Mode:      Positive*
G04 Rotation:  0*
G04 FullContactRelief:  No*
G04 UndefLineWidth:     0.2540*
G04 ================== end FILE IDENTIFICATION RECORD ====================*
%FSLAX25Y25*MOIN*%
%IR0*IPPOS*OFA0.00000B0.00000*MIA0B0*SFA1.00000B1.00000*%
%ADD29R,.015748X.062992*%
%ADD33R,.074803X.027559*%
%ADD35R,.053937X.024016*%
%ADD14R,.024016X.053937*%
%ADD27R,.029528X.062992*%
%ADD32C,.017717*%
%ADD34R,.051181X.043307*%
%ADD17R,.090551X.045276*%
%ADD30C,.03937*%
%ADD22R,.102362X.062992*%
%ADD24C,.043307*%
%ADD23R,.129921X.106299*%
%ADD18R,.062992X.066929*%
%ADD26R,.074803X.062992*%
%ADD28R,.015748X.017717*%
%ADD25R,.062992X.074803*%
%ADD15C,.055118*%
%ADD10C,.090551*%
%ADD20R,.027559X.01378*%
%ADD19R,.01378X.027559*%
%ADD13C,.062992*%
%ADD12R,.035433X.027559*%
%ADD11R,.027559X.035433*%
%ADD16C,.074803*%
%ADD21R,.062992X.062992*%
%ADD31R,.208661X.208661*%
%LPD*%
G75*
G54D10*
X11811Y-106299D03*
Y-11811D03*
X342520Y-106299D03*
Y-11811D03*
G54D11*
X27559Y-58661D03*
X23622D03*
X98819Y-89370D03*
X102756D03*
Y-83858D03*
X98819D03*
X102756Y-78346D03*
X98819D03*
X104331Y-57480D03*
X108268D03*
X104370Y-62638D03*
X108307D03*
X222835Y-23189D03*
X226772D03*
X222835Y-12205D03*
X226772D03*
X222835Y-17717D03*
X226772D03*
X251181Y-21260D03*
X247244D03*
Y-13386D03*
X251181D03*
X292913Y-83465D03*
X296850D03*
X298425Y-22835D03*
X302362D03*
X328346Y-67717D03*
X324409D03*
X325984Y-36220D03*
X318504Y-22835D03*
X322441D03*
X325984Y-30709D03*
X329921Y-36220D03*
Y-30709D03*
G54D20*
X75984Y-79331D03*
Y-81299D03*
Y-83268D03*
Y-85236D03*
X87795Y-79331D03*
Y-81299D03*
Y-83268D03*
Y-85236D03*
X100000Y-36417D03*
Y-34449D03*
Y-32480D03*
Y-30512D03*
Y-28543D03*
Y-26575D03*
X115157Y-36417D03*
Y-34449D03*
Y-32480D03*
Y-30512D03*
Y-28543D03*
Y-26575D03*
X169685Y-36417D03*
Y-34449D03*
Y-32480D03*
Y-30512D03*
Y-28543D03*
Y-26575D03*
X184843Y-36417D03*
Y-34449D03*
Y-32480D03*
Y-30512D03*
Y-28543D03*
Y-26575D03*
X261417Y-69890D03*
Y-67921D03*
Y-65953D03*
Y-63984D03*
Y-62016D03*
Y-60047D03*
Y-58079D03*
Y-56110D03*
Y-54142D03*
Y-52173D03*
Y-50205D03*
Y-48236D03*
X288976Y-69937D03*
Y-67969D03*
Y-66000D03*
Y-64031D03*
Y-62063D03*
Y-60094D03*
Y-58126D03*
Y-56157D03*
Y-54189D03*
Y-52220D03*
Y-50252D03*
Y-48283D03*
G54D21*
X81890Y-82283D03*
X107480Y-31496D03*
X177165D03*
G54D12*
X24016Y-43307D03*
Y-48819D03*
Y-52756D03*
Y-39370D03*
Y-34252D03*
Y-30315D03*
X30315Y-34252D03*
Y-30315D03*
X43307Y-50394D03*
Y-46457D03*
Y-40945D03*
Y-37008D03*
X66142Y-87402D03*
Y-91339D03*
Y-77165D03*
Y-73228D03*
X66929Y-64173D03*
Y-60236D03*
X61811Y-44094D03*
Y-48031D03*
X92913Y-64567D03*
Y-60630D03*
X99606Y-102362D03*
Y-98425D03*
X93307Y-98445D03*
Y-102382D03*
X98819Y-72835D03*
Y-68898D03*
X102362Y-49606D03*
Y-45669D03*
X99213Y-17717D03*
Y-13780D03*
X105512Y-98425D03*
Y-102362D03*
X108661Y-87008D03*
Y-90945D03*
Y-78346D03*
Y-82283D03*
X104724Y-68898D03*
Y-72835D03*
X113386Y-49606D03*
Y-45669D03*
X107874Y-49606D03*
Y-45669D03*
X105118Y-13780D03*
Y-17717D03*
X111024D03*
Y-13780D03*
X116929D03*
Y-17717D03*
X171654Y-50000D03*
Y-46063D03*
X177165Y-50000D03*
Y-46063D03*
X174016Y-13780D03*
Y-17717D03*
X168504Y-17657D03*
Y-13720D03*
X182677Y-50000D03*
Y-46063D03*
X185039Y-13780D03*
Y-17717D03*
X179528Y-17677D03*
Y-13740D03*
X298819Y-17717D03*
Y-13780D03*
X304331D03*
Y-17717D03*
X317717Y-94488D03*
Y-90551D03*
X309843Y-13780D03*
Y-17717D03*
X327953Y-77165D03*
X322441D03*
X327953Y-73228D03*
X322441D03*
X324409Y-57087D03*
Y-53150D03*
X318898Y-17677D03*
Y-13740D03*
X324409Y-13780D03*
Y-17717D03*
X335433Y-34252D03*
Y-30315D03*
X329921Y-13780D03*
Y-17717D03*
X342520Y-34252D03*
Y-30315D03*
G54D30*
X270866Y-87008D03*
X280709Y-83465D03*
X305118Y-31496D03*
X315354Y-55906D03*
X313386Y-61417D03*
X309055Y-51969D03*
X313780Y-36614D03*
X307874Y-40551D03*
X324409Y-62205D03*
X323622Y-44488D03*
G54D31*
X275197Y-59055D03*
G54D13*
X39764Y-64961D03*
G54D22*
X86220Y-37008D03*
Y-23228D03*
X129528Y-37008D03*
Y-23228D03*
X155906Y-37008D03*
Y-23228D03*
X198425Y-37008D03*
Y-23228D03*
G54D23*
X127559Y-112992D03*
Y-72441D03*
X165354Y-112992D03*
Y-72441D03*
X188583Y-112992D03*
Y-72441D03*
X226378Y-112992D03*
Y-72441D03*
G54D32*
X267506Y-34646D03*
X271443D03*
X267506Y-30709D03*
Y-26772D03*
Y-22835D03*
X271443Y-30709D03*
Y-26772D03*
Y-22835D03*
X267506Y-18898D03*
X271443D03*
X275380Y-34646D03*
X279317D03*
X283254D03*
X275380Y-30709D03*
Y-26772D03*
Y-22835D03*
X279317Y-30709D03*
Y-26772D03*
Y-22835D03*
X283254Y-30709D03*
Y-26772D03*
Y-22835D03*
X275380Y-18898D03*
X279317D03*
G54D14*
X38154Y-51441D03*
X30614D03*
X34311Y-40781D03*
X48331Y-51441D03*
X55870D03*
X52028Y-40781D03*
G54D15*
X35827Y-21142D03*
X42126Y-27441D03*
X48425Y-21142D03*
X42126Y-14843D03*
G54D24*
X131417Y-92677D03*
Y-82677D03*
X141417Y-92677D03*
Y-82677D03*
X151417Y-92677D03*
Y-82677D03*
X161417Y-92677D03*
Y-82677D03*
X192441Y-92677D03*
Y-82677D03*
X202441Y-92677D03*
Y-82677D03*
X212441Y-92677D03*
Y-82677D03*
X222441Y-92677D03*
Y-82677D03*
G54D33*
X284646Y-101299D03*
Y-106299D03*
Y-91299D03*
Y-96299D03*
X306693Y-101299D03*
Y-106299D03*
Y-91299D03*
Y-96299D03*
G54D16*
X42913Y-103937D03*
X60236D03*
G54D25*
X218110Y-40945D03*
X235827D03*
G54D34*
X305906Y-75433D03*
Y-83307D03*
X313780Y-75433D03*
Y-83307D03*
G54D26*
X242980Y-101862D03*
X270736D03*
G54D17*
X52756Y-90947D03*
Y-73624D03*
G54D35*
X330843Y-49965D03*
Y-42425D03*
X341503Y-46122D03*
G54D18*
X74409Y-100787D03*
Y-62205D03*
X83858Y-47638D03*
X85433Y-100787D03*
Y-62205D03*
X94882Y-47638D03*
X120866D03*
X131890D03*
X153543Y-48031D03*
X164567D03*
X189764D03*
X200787D03*
X327559Y-92913D03*
Y-84252D03*
X338583Y-92913D03*
Y-84252D03*
G54D27*
X236811Y-19094D03*
G54D19*
X80906Y-88386D03*
X78937D03*
X80906Y-76181D03*
X78937D03*
X84843Y-88386D03*
X82874D03*
X84843Y-76181D03*
X82874D03*
X102559Y-38976D03*
Y-24016D03*
X112402Y-38976D03*
X110433D03*
X108465D03*
X106496D03*
X104528D03*
X112402Y-24016D03*
X110433D03*
X108465D03*
X106496D03*
X104528D03*
X176181Y-38976D03*
X174213D03*
X172244D03*
X176181Y-24016D03*
X174213D03*
X172244D03*
X182087Y-38976D03*
X180118D03*
X178150D03*
X182087Y-24016D03*
X180118D03*
X178150D03*
X266346Y-72835D03*
X268315D03*
X270283D03*
X272252D03*
X274220D03*
X264378D03*
X274197Y-45276D03*
X272228D03*
X270260D03*
X268291D03*
X266323D03*
X264354D03*
X276189Y-72835D03*
X278157D03*
X280126D03*
X282094D03*
X284063D03*
X284039Y-45276D03*
X282071D03*
X280102D03*
X278134D03*
X276165D03*
X286031Y-72835D03*
X286008Y-45276D03*
G54D28*
X233071Y-16496D03*
X240551D03*
X233071Y-19055D03*
X240551D03*
X233071Y-21614D03*
X240551D03*
G54D29*
X250000Y-91732D03*
X251969D03*
X253937D03*
X255906D03*
X257874D03*
X259843D03*
X261811D03*
X263780D03*
M02*
