G04 ================== begin FILE IDENTIFICATION RECORD ==================*
G04 Layout Name:  F:/MyJob/PoF_TMR_A1/PCB/PoF_TMR_A1-JAN-21-26.brd*
G04 Film Name:    VCC*
G04 File Format:  Gerber RS274X*
G04 File Origin:  Cadence Allegro 22.1-P001*
G04 Origin Date:  Wed Jan 21 15:19:45 2026*
G04 *
G04 Layer:  ETCH/VCC*
G04 Layer:  PIN/VCC*
G04 Layer:  VIA CLASS/VCC*
G04 *
G04 Offset:    (0.0000 0.0000)*
G04 Mirror:    No*
G04 Mode:      Positive*
G04 Rotation:  0*
G04 FullContactRelief:  No*
G04 UndefLineWidth:     0.2540*
G04 ================== end FILE IDENTIFICATION RECORD ====================*
%FSLAX25Y25*MOIN*%
%IR0*IPPOS*OFA0.00000B0.00000*MIA0B0*SFA1.00000B1.00000*%
%ADD11C,.015748*%
%ADD15R,.125984X.102362*%
%ADD16C,.03937*%
%ADD13C,.047244*%
%ADD10C,.090551*%
%ADD12C,.059055*%
%ADD14C,.070866*%
%ADD17C,.011811*%
%ADD18C,.019685*%
%ADD19C,.005*%
%ADD25C,.078756*%
%ADD23C,.04726*%
%ADD24C,.055134*%
%ADD22C,.090567*%
%ADD21C,.102378*%
%ADD26C,.070882*%
%ADD20C,.110252*%
G75*
%LPD*%
G75*
G36*
G01X187142Y-7876D02*
X196063D01*
Y-23988D01*
X187584Y-32466D01*
G03X187008Y-33857I1392J-1392D01*
G01Y-36368D01*
G03X187007Y-36417I2362J-62D01*
G03X187008Y-36467I2363J13D01*
G01Y-38161D01*
X184284Y-40885D01*
X184144Y-40774D01*
G03X182677Y-40263I-1468J-1852D01*
G03X180314Y-42626I0J-2363D01*
G03X180825Y-44093I2363J0D01*
G01X180936Y-44233D01*
X179893Y-45276D01*
X172863D01*
X169104Y-41517D01*
X169089Y-41480D01*
G03X167576Y-39967I-2553J-1040D01*
G01X167539Y-39952D01*
X166426Y-38839D01*
G02X166456Y-38247I283J283D01*
G03X167324Y-36417I-1496J1830D01*
G03X164961Y-34054I-2363J0D01*
G03X163131Y-34922I0J-2363D01*
G02X162539Y-34952I-310J253D01*
G01X161417Y-33830D01*
Y-28346D01*
G03X160841Y-26954I-1969J0D01*
G01X154148Y-20261D01*
G03X152757Y-19685I-1392J-1392D01*
G01X133046D01*
G02X132850Y-18937I0J400D01*
G03X134253Y-16535I-1354J2401D01*
G03X128739I-2757J0D01*
G03X131306Y-19285I2757J0D01*
G01X131492Y-19298D01*
Y-19685D01*
X130709D01*
G03X128740Y-21654I0J-1969D01*
G01Y-26350D01*
X120774Y-34316D01*
X120648Y-34259D01*
G03X119686Y-34054I-963J-2158D01*
G01X119685D01*
G03Y-38780I0J-2363D01*
G01X119687D01*
G03X120017Y-38757I-1J2363D01*
G02X120472Y-39153I56J-396D01*
G01Y-39829D01*
G02X119887Y-40183I-400J0D01*
G03X118610Y-39869I-1277J-2443D01*
G03X116074Y-41546I0J-2757D01*
G02X115370Y-41607I-368J156D01*
G03X113386Y-40528I-1984J-1283D01*
G03Y-45254I0J-2363D01*
G03X115489Y-43967I0J2363D01*
G02X116196Y-43956I356J-182D01*
G03X118610Y-45383I2415J1330D01*
G03X119018Y-45352I0J2757D01*
G03X120313Y-46007I1848J2045D01*
G01X120472Y-46041D01*
Y-48791D01*
X119510Y-49754D01*
X119396Y-49720D01*
G03X118611Y-49606I-785J-2643D01*
G01X118610D01*
G03X116012Y-51442I0J-2757D01*
G01X115965Y-51575D01*
X100177D01*
X100130Y-51442D01*
G03X97531Y-49606I-2598J-920D01*
G03X97043Y-49649I0J-2757D01*
G01X96940Y-49668D01*
X92913Y-45641D01*
Y-45331D01*
X93163D01*
X93207Y-45354D01*
G03X94488Y-45670I1282J2441D01*
G03X95866Y-45301I0J2757D01*
G03X97244Y-45670I1378J2387D01*
G03Y-40157I0J2757D01*
G03X95866Y-40526I0J-2757D01*
G03X94488Y-40157I-1378J-2387D01*
G03X93462Y-40355I0J-2757D01*
G02X92913Y-39983I-149J371D01*
G01Y-37861D01*
G02X93654Y-37652I400J0D01*
G03X95669Y-38780I2015J1235D01*
G03Y-34054I0J2363D01*
G03X93654Y-35183I0J-2363D01*
G02X92913Y-34974I-341J209D01*
G01Y-26377D01*
G03X92337Y-24986I-1969J0D01*
G01X88400Y-21049D01*
G03X87009Y-20472I-1392J-1392D01*
G01X73256D01*
X70290Y-17506D01*
G03X68898Y-16929I-1392J-1392D01*
G01X61810D01*
G03X60419Y-17506I0J-1969D01*
G01X58844Y-19080D01*
G03X58268Y-20472I1392J-1392D01*
G01Y-38189D01*
G03X59261Y-39899I1969J0D01*
G03X59054Y-40945I2550J-1046D01*
G01Y-40959D01*
G02X58606Y-41359I-400J-2D01*
G03X58268Y-41338I-339J-2736D01*
G03X61024Y-44094I0J-2757D01*
G01Y-44080D01*
G02X61473Y-43681I400J2D01*
G03X61811Y-43702I339J2736D01*
G03X62149Y-43681I-1J2757D01*
G02X62598Y-44080I49J-397D01*
G01Y-44094D01*
G03X65354Y-41338I2757J0D01*
G03X65017Y-41359I1J-2757D01*
G02X64568Y-40959I-49J397D01*
G01Y-40945D01*
G03X64547Y-40607I-2757J0D01*
G02X64944Y-40157I397J49D01*
G01X66507D01*
X70472Y-44122D01*
Y-61804D01*
G02X70073Y-62204I-400J0D01*
G03X67716Y-64567I6J-2363D01*
G03X70079Y-66930I2363J0D01*
G01X70080D01*
G03X71291Y-66595I0J2363D01*
G01X74198Y-69502D01*
G03X75590Y-70079I1392J1392D01*
G01X84672D01*
X84709Y-70232D01*
G03X89307I2299J547D01*
G01X89343Y-70079D01*
X93673D01*
X101603Y-78009D01*
G02X101502Y-78648I-283J-283D01*
G03X99999Y-81102I1254J-2455D01*
G03X102756Y-83859I2757J0D01*
G01Y-103805D01*
G02X102057Y-104071I-400J0D01*
G03X100000Y-103149I-2057J-1835D01*
G03X98228Y-103793I0J-2757D01*
G03X96457Y-103149I-1771J-2112D01*
G01X96456D01*
G03X94648Y-103825I0J-2757D01*
G01X94620Y-103849D01*
X94488Y-103899D01*
X94356Y-103849D01*
X94329Y-103825D01*
G03X92520Y-103149I-1809J-2080D01*
G03X90629Y-103900I0J-2757D01*
G02X90080I-274J291D01*
G03X88189Y-103149I-1891J-2006D01*
G03X86380Y-103825I0J-2757D01*
G01X86353Y-103849D01*
X86220Y-103899D01*
X86088Y-103849D01*
X86061Y-103825D01*
G03X84252Y-103149I-1809J-2080D01*
G03X81495Y-105906I0J-2757D01*
G03X81865Y-107283I2757J0D01*
G03X81495Y-108661I2387J-1378D01*
G03X81693Y-109686I2757J1D01*
G02X81322Y-110235I-371J-149D01*
G01X19565D01*
G02X19205Y-109661I0J400D01*
G03X8449Y-98905I-7263J3493D01*
G02X7876Y-98545I-173J361D01*
G01Y-19550D01*
G02X8442Y-19186I400J0D01*
G03X11810Y-19919I3369J7375D01*
G01X11811D01*
G03X19919Y-11811I0J8108D01*
G01Y-11810D01*
G03X19186Y-8442I-8108J-1D01*
G02X19550Y-7876I364J166D01*
G01X96739D01*
G02X97052Y-8524I0J-400D01*
G03X96456Y-10236I2161J-1712D01*
G03X101969I2757J0D01*
G03X101373Y-8524I-2757J0D01*
G02X101687Y-7876I313J248D01*
G01X114455D01*
G02X114769Y-8524I0J-400D01*
G03X114172Y-10236I2161J-1712D01*
G03X119686I2757J0D01*
G03X119090Y-8524I-2757J0D01*
G02X119403Y-7876I313J248D01*
G01X166401D01*
G02X166668Y-8574I0J-400D01*
G03X165747Y-10630I1836J-2056D01*
G03X171261I2757J0D01*
G03X170340Y-8574I-2756J0D01*
G02X170607Y-7876I266J298D01*
G01X182937D01*
G02X183203Y-8574I0J-400D01*
G03X182283Y-10630I1836J-2056D01*
G03X187796I2757J0D01*
G03X186876Y-8574I-2756J0D01*
G02X187142Y-7876I266J298D01*
G37*
G36*
G01X331868D02*
X334815D01*
G02X335187Y-8425I0J-400D01*
G03X334593Y-11496I7648J-3071D01*
G03X342835Y-19738I8242J0D01*
G03X345906Y-19144I0J8242D01*
G02X346455Y-19515I149J-371D01*
G01Y-81384D01*
G02X345807Y-81698I-400J0D01*
G03X344094Y-81102I-1712J-2161D01*
G03X341338Y-83858I0J-2757D01*
G03X342480Y-86093I2757J0D01*
G02Y-86742I-234J-324D01*
G03X341338Y-88976I1614J-2235D01*
G03X342064Y-90841I2756J0D01*
G03X342020Y-91263I2712J-497D01*
G03Y-96139I1287J-2438D01*
G03X342562Y-97706I2756J75D01*
G02X342265Y-98344I-321J-238D01*
G03X334550Y-106535I491J-8192D01*
G01Y-106537D01*
G03X335176Y-109681I8206J1D01*
G02X334807Y-110235I-370J-153D01*
G01X234253D01*
Y-106692D01*
X218503D01*
Y-110235D01*
X196851D01*
Y-106733D01*
G03X198465Y-104224I-1142J2509D01*
G03X192952I-2757J0D01*
G03X193626Y-106030I2757J0D01*
G02X193324Y-106692I-302J-262D01*
G01X181102D01*
Y-110235D01*
X173229D01*
Y-106692D01*
X160676D01*
G02X160374Y-106030I0J400D01*
G03X161048Y-104224I-2083J1806D01*
G03X155535I-2757J0D01*
G03X157348Y-106815I2757J0D01*
G01X157480Y-106863D01*
Y-110235D01*
X135434D01*
Y-106692D01*
X119684D01*
Y-110235D01*
X106693D01*
Y-86920D01*
G02X107320Y-86591I400J0D01*
G03X108661Y-87009I1341J1945D01*
G03Y-82283I0J2363D01*
G03X107320Y-82700I0J-2362D01*
G02X106693Y-82371I-227J329D01*
G01Y-80837D01*
G03X108269Y-78346I-1181J2491D01*
G03X105512Y-75590I-2757J0D01*
G03X104941Y-75650I0J-2757D01*
G01X104834Y-75672D01*
X95880Y-66718D01*
G03X94997Y-66209I-1392J-1392D01*
G03X92913Y-64960I-2084J-1114D01*
G03X90867Y-66142I0J-2363D01*
G01X76406D01*
X74409Y-64145D01*
Y-43306D01*
G03X73833Y-41915I-1969J0D01*
G01X68715Y-36797D01*
G03X67324Y-36220I-1392J-1392D01*
G01X62205D01*
Y-21288D01*
X62626Y-20866D01*
X68082D01*
X71049Y-23833D01*
G03X72440Y-24409I1392J1392D01*
G01X86193D01*
X88976Y-27193D01*
Y-46457D01*
G03X89553Y-47849I1969J0D01*
G01X91366Y-49662D01*
G02X91379Y-50215I-283J-283D01*
G03X90657Y-52075I2034J-1860D01*
G03X91080Y-53543I2757J0D01*
G03X90657Y-55012I2334J-1469D01*
G03X93413Y-57769I2757J0D01*
G03X95333Y-56990I0J2756D01*
G02X95612I139J-144D01*
G03X97531Y-57769I1920J1978D01*
G03X100210Y-55665I0J2757D01*
G01X100247Y-55512D01*
X109537D01*
G02X109866Y-56139I0J-400D01*
G03X109448Y-57480I1945J-1341D01*
G03X114174I2363J0D01*
G03X113756Y-56139I-2362J0D01*
G02X114085Y-55512I329J227D01*
G01X115466D01*
G02X115865Y-55947I0J-400D01*
G03X115854Y-56193I2746J-246D01*
G03X118610Y-58950I2757J0D01*
G03X120470Y-58227I0J2756D01*
G03X122441Y-59056I1970J1928D01*
G03X125198Y-56299I0J2757D01*
G03X125177Y-55961I-2757J0D01*
G02X125574Y-55512I397J49D01*
G01X130681D01*
X131679Y-56510D01*
G03X133070Y-57087I1392J1392D01*
G01X150366D01*
X159459Y-66181D01*
G02X159318Y-66522I-141J-141D01*
G01X159055D01*
G03X158928Y-66532I1J-801D01*
G01X158913Y-66535D01*
X157480D01*
Y-79135D01*
X159034D01*
G02X159276Y-79853I0J-400D01*
G03X157873Y-82677I2142J-2824D01*
G03X164961I3544J0D01*
G03X163559Y-79853I-3545J0D01*
G02X163801Y-79135I242J319D01*
G01X173229D01*
Y-66929D01*
X180708D01*
Y-79135D01*
X190057D01*
G02X190299Y-79853I0J-400D01*
G03X188897Y-82677I2142J-2824D01*
G03X195985I3544J0D01*
G03X194583Y-79853I-3545J0D01*
G02X194824Y-79135I242J319D01*
G01X196457D01*
Y-75526D01*
G02X196961Y-75139I400J0D01*
G03X197673Y-75233I713J2663D01*
G03Y-69720I0J2757D01*
G03X196961Y-69813I0J-2757D01*
G02X196457Y-69427I-104J386D01*
G01Y-66535D01*
X195024D01*
X195009Y-66532D01*
G03X194882Y-66522I-128J-790D01*
G01X193921D01*
G02X193638Y-65839I0J400D01*
G01X198786Y-60691D01*
X198907Y-60737D01*
G03X199742Y-60889I835J2211D01*
G03X202105Y-58526I0J2363D01*
G03X200527Y-56297I-2363J0D01*
G01X200394Y-56250D01*
Y-54915D01*
G02X204359Y-53741I3965J-6109D01*
G01X219545D01*
G02X224695Y-55874I0J-7283D01*
G01X226015Y-57195D01*
G03X232901Y-60683I8770J8770D01*
G01X233071Y-60709D01*
Y-66141D01*
X218109D01*
Y-78741D01*
X220694D01*
G02X220871Y-79500I0J-400D01*
G03X218897Y-82677I1570J-3178D01*
G03X225985I3544J0D01*
G03X224011Y-79500I-3544J0D01*
G02X224188Y-78741I177J359D01*
G01X233071D01*
Y-89765D01*
G03X233647Y-91156I1969J0D01*
G01X237978Y-95487D01*
G03X239369Y-96063I1392J1392D01*
G01X241946D01*
G02X242318Y-96610I0J-400D01*
G03X242125Y-97622I2565J-1012D01*
G03X247639I2757J0D01*
G03X247446Y-96610I-2757J0D01*
G02X247818Y-96063I372J147D01*
G01X248910D01*
G02X249298Y-96562I0J-400D01*
G03X249212Y-97244I2671J-683D01*
G03X249252Y-97711I2757J0D01*
G03X248031Y-100000I1536J-2289D01*
G03X253544I2757J0D01*
G03X253504Y-99533I-2757J0D01*
G03X253753Y-99345I-1536J2289D01*
G02X254286Y-99359I259J-305D01*
G03X255906Y-100001I1619J1721D01*
G03X257753Y-99111I0J2363D01*
G02X258323Y-99054I313J-249D01*
G03X259843Y-99607I1519J1810D01*
G03X262206Y-97244I0J2363D01*
G03X262109Y-96576I-2363J0D01*
G02X262493Y-96063I384J113D01*
G01X276300D01*
G03X280393I2046J1181D01*
G01X294017D01*
G03X295959Y-97243I2047J1181D01*
G01X296037Y-97246D01*
X299053Y-100263D01*
X299002Y-100387D01*
G03X298818Y-101299I2179J-913D01*
G03X301181Y-103662I2363J0D01*
G03X303404Y-102101I0J2363D01*
G01X303452Y-101969D01*
X312599D01*
G03X313991Y-101392I0J1969D01*
G01X315777Y-99606D01*
X315918Y-99727D01*
G03X317717Y-100394I1799J2089D01*
G03X320473Y-97638I0J2757D01*
G01Y-97623D01*
G02X320922Y-97224I400J2D01*
G03X321260Y-97245I339J2736D01*
G03X324017Y-94488I0J2757D01*
G03X323166Y-92496I-2757J0D01*
G02X323152Y-92222I138J145D01*
G03X323622Y-90946I-1498J1277D01*
G01Y-83099D01*
X333131Y-73590D01*
X333270Y-73695D01*
G03X334933Y-74253I1663J2199D01*
G03X337690Y-71496I0J2757D01*
G03X336616Y-69313I-2756J0D01*
G02Y-68679I244J317D01*
G03Y-64313I-1683J2183D01*
G02Y-63679I244J317D01*
G03Y-59313I-1683J2183D01*
G02Y-58679I244J317D01*
G03X337690Y-56496I-1683J2183D01*
G03X335031Y-53741I-2757J0D01*
G02X334646Y-53341I14J400D01*
G01Y-25983D01*
G03X334069Y-24592I-1969J0D01*
G01X333666Y-24189D01*
G02X333738Y-23566I283J283D01*
G03X335040Y-21224I-1454J2342D01*
G03X332283Y-18468I-2757J0D01*
G03X329942Y-19770I0J-2756D01*
G02X329319Y-19842I-340J211D01*
G01X328164Y-18687D01*
G03X326772Y-18110I-1392J-1392D01*
G01X301996D01*
X299606Y-15720D01*
Y-7876D01*
X308396D01*
G02X308606Y-8617I0J-400D01*
G03X307480Y-10630I1236J-2013D01*
G03X312206I2363J0D01*
G03X311079Y-8617I-2363J0D01*
G02X311289Y-7876I209J341D01*
G01X327974D01*
G02X328256Y-8559I0J-400D01*
G03X327558Y-10236I1665J-1677D01*
G03X332284I2363J0D01*
G03X331586Y-8559I-2363J0D01*
G02X331868Y-7876I282J284D01*
G37*
G36*
G01X200000D02*
X295669D01*
Y-11017D01*
G02X295270Y-11417I-400J0D01*
G03Y-16143I6J-2363D01*
G02X295669Y-16541I-1J-400D01*
G03X296246Y-17928I1969J6D01*
G01X299789Y-21471D01*
G03X301180Y-22047I1392J1392D01*
G01X307103D01*
G02X307450Y-22646I0J-400D01*
G03X307086Y-24016I2392J-1370D01*
G03X312599I2757J0D01*
G03X312235Y-22646I-2757J0D01*
G02X312582Y-22047I347J199D01*
G01X325956D01*
X330709Y-26800D01*
Y-70444D01*
X320261Y-80891D01*
G03X319685Y-82283I1392J-1392D01*
G01Y-90130D01*
X316963Y-92852D01*
G02X316362Y-92812I-283J283D01*
G03X314450Y-91745I-2189J-1676D01*
G02X314270Y-91530I20J199D01*
G03X314280Y-91299I-2747J233D01*
G03X311524Y-88543I-2757J0D01*
G03X310033Y-88980I0J-2756D01*
G02X309421Y-88586I-216J336D01*
G03X309450Y-88189I-2728J397D01*
G03X303936I-2757J0D01*
G03X303965Y-88586I2757J0D01*
G02X303353Y-88980I-396J-58D01*
G03X301862Y-88543I-1491J-2319D01*
G03X299106Y-91299I0J-2757D01*
G03X300483Y-93686I2757J0D01*
G02X300511Y-94361I-200J-347D01*
G03X299941Y-94924I1350J-1939D01*
G02X299333Y-94974I-325J233D01*
G01X298169Y-93810D01*
X298155Y-93783D01*
G03X297162Y-92790I-2092J-1098D01*
G01X297135Y-92776D01*
X297061Y-92702D01*
G03X295670Y-92126I-1392J-1392D01*
G01X240185D01*
X237008Y-88948D01*
Y-60828D01*
X239230D01*
G02X244380Y-62961I0J-7283D01*
G01X249434Y-68015D01*
G03X252992Y-69489I3558J3557D01*
G01X253270D01*
X254527Y-70745D01*
Y-73622D01*
G03X257087Y-76182I2560J0D01*
G01X260236D01*
G03X262046Y-75432I0J2560D01*
G01X263513Y-73965D01*
G03X264917Y-70073I-3439J3439D01*
G02X265519Y-69692I398J37D01*
G03X266929Y-70080I1410J2369D01*
G03X269686Y-67329I0J2757D01*
G02X270085Y-66930I400J-1D01*
G03X272553Y-65388I-6J2757D01*
G02X273202Y-65288I359J-176D01*
G03X273320Y-65405I1997J1900D01*
G02Y-65698I-136J-146D01*
G03X272440Y-67717I1877J-2019D01*
G03X275197Y-70473I2757J0D01*
G03X277948Y-67892I0J2757D01*
G02X278630Y-67635I399J-25D01*
G01X283647Y-72652D01*
G03X285039Y-73228I1392J1392D01*
G01X290019D01*
G02X290381Y-73798I0J-400D01*
G03X290300Y-73993I2139J-1004D01*
G02X290054Y-74116I-188J69D01*
G03X289370Y-74015I-684J-2262D01*
G03Y-78741I0J-2363D01*
G03X291590Y-77188I0J2363D01*
G02X291836Y-77065I188J-69D01*
G03X292520Y-77166I684J2262D01*
G03X294883Y-74803I0J2363D01*
G03X294658Y-73798I-2363J0D01*
G02X295020Y-73228I362J170D01*
G01X295641D01*
X297346Y-74933D01*
X297307Y-75050D01*
G03X297170Y-75911I2619J-861D01*
G03X297491Y-77203I2757J0D01*
G03X297243Y-78346I2509J-1143D01*
G03X302757I2757J0D01*
G03X302672Y-77667I-2757J0D01*
G02X302957Y-77181I388J99D01*
G03X302991Y-77172I-703J2665D01*
G01X303017Y-77165D01*
X314568D01*
G03X315959Y-76589I0J1969D01*
G01X323439Y-69109D01*
G03X324016Y-67717I-1392J1392D01*
G01Y-45669D01*
G03X323439Y-44277I-1969J0D01*
G01X322105Y-42943D01*
G03X322599Y-41496I-1868J1446D01*
G03X321225Y-39350I-2363J0D01*
G02X321220Y-38626I168J363D01*
G03X322560Y-36496I-1023J2130D01*
G03X321151Y-34334I-2363J0D01*
G02X321134Y-33610I162J366D01*
G03X322442Y-31496I-1055J2114D01*
G03X321457Y-29577I-2363J0D01*
G02X321514Y-28893I233J325D01*
G03X322835Y-26772I-1042J2121D01*
G03X320472Y-24409I-2363J0D01*
G03X318112Y-26654I0J-2363D01*
G02X317543Y-26996I-399J20D01*
G03X316535Y-26771I-1007J-2138D01*
G03Y-31497I0J-2363D01*
G03X317215Y-31397I0J2363D01*
G02X317728Y-31739I115J-383D01*
G03X319125Y-33658I2350J243D01*
G02X319142Y-34382I-162J-366D01*
G03X317834Y-36496I1055J-2114D01*
G03X319208Y-38642I2363J0D01*
G02X319213Y-39366I-168J-363D01*
G03X318070Y-40551I1023J-2130D01*
G01X307087D01*
G03X305278Y-41741I0J-1969D01*
G03X302755Y-44488I234J-2747D01*
G01Y-44516D01*
G03X300393Y-47244I395J-2728D01*
G03X303150Y-50001I2757J0D01*
G03X304519Y-49636I0J2757D01*
G02X305118Y-49983I199J-347D01*
G01Y-59421D01*
X304417Y-60122D01*
G02X303735Y-59811I-283J283D01*
G03X303741Y-59646I-2357J167D01*
G03X301378Y-57283I-2363J0D01*
G03X299022Y-59456I0J-2363D01*
G03X298609Y-59526I190J-2355D01*
G03X296315Y-57731I-2294J-568D01*
G03X294740Y-58333I0J-2363D01*
G03X293165Y-57731I-1575J-1762D01*
G03X292619Y-57796I0J-2363D01*
G02X292126Y-57407I-93J389D01*
G01Y-45275D01*
G03X291550Y-43883I-1969J0D01*
G01X288400Y-40734D01*
G03X287009Y-40157I-1392J-1392D01*
G01X283474D01*
G03X282439Y-39725I-1403J-1902D01*
G03X282465Y-39370I-2337J355D01*
G03X277739I-2363J0D01*
G03X277740Y-39402I2363J13D01*
G03X276372Y-40157I394J-2330D01*
G01X266141D01*
G03X264750Y-40734I0J-1969D01*
G01X260996Y-44488D01*
X255251D01*
G02X254984Y-43790I0J400D01*
G03X255906Y-41732I-1835J2057D01*
G03X250393I-2757J0D01*
G03X251315Y-43790I2757J0D01*
G02X251048Y-44488I-266J-298D01*
G01X246878D01*
X234463Y-32072D01*
G03X233072Y-31496I-1392J-1392D01*
G01X220500D01*
X219109Y-30104D01*
G03X217717Y-29528I-1392J-1392D01*
G01X204330D01*
G03X202939Y-30104I0J-1969D01*
G01X197033Y-36009D01*
G03X196457Y-37401I1392J-1392D01*
G01Y-40426D01*
G03Y-44367I1304J-1970D01*
G01Y-51464D01*
G03X195588Y-52254I7901J-9561D01*
G01X194746Y-53097D01*
G02X194067Y-52757I-283J283D01*
G03X194095Y-52362I-2728J394D01*
G03X191339Y-49606I-2757J0D01*
G03X189503Y-50305I0J-2757D01*
G02X189237I-133J149D01*
G03X187402Y-49606I-1835J-2057D01*
G03X184645Y-52362I0J-2757D01*
G03X186910Y-55075I2757J0D01*
G03X191830I2460J1244D01*
G03X192387Y-54912I-492J2712D01*
G01X192510Y-54861D01*
X192746Y-55097D01*
X190724Y-57118D01*
G02X185574Y-59251I-5150J5150D01*
G01X165437D01*
G02X160287Y-57118I0J7283D01*
G01X156211Y-53041D01*
G03X147441Y-49409I-8770J-8770D01*
G01X141949D01*
G02X140701Y-48892I0J1765D01*
G01X139961Y-48152D01*
Y-45260D01*
G03X140750Y-44724I-1021J2347D01*
G01X141180Y-44293D01*
G03X141930Y-42483I-1810J1810D01*
G01Y-35146D01*
G03X139370Y-32586I-2560J0D01*
G01X136220D01*
G03X133661Y-35146I0J-2560D01*
G01Y-39097D01*
X132798Y-39960D01*
X130315D01*
G03X127755Y-42520I0J-2560D01*
G01Y-44594D01*
G03X134933Y-51772I7178J0D01*
G01X136341D01*
X137035Y-52467D01*
G02X136753Y-53150I-283J-283D01*
G01X133886D01*
X132888Y-52151D01*
G03X131497Y-51575I-1392J-1392D01*
G01X124980D01*
X124933Y-51442D01*
G03X124251Y-50380I-2599J-920D01*
G03X124409Y-49607I-1810J774D01*
G01Y-36248D01*
X132101Y-28557D01*
G03X132677Y-27166I-1392J1392D01*
G01Y-23622D01*
X151941D01*
X157480Y-29162D01*
Y-34646D01*
G03X158057Y-36038I1969J0D01*
G01X162537Y-40518D01*
G02X162497Y-41119I-283J-283D01*
G03X161417Y-43307I1676J-2189D01*
G03X164173Y-46064I2757J0D01*
G03X166132Y-45247I0J2757D01*
G03X166535Y-45276I402J2727D01*
G03X167107Y-45217I0J2757D01*
G01X167213Y-45194D01*
X170655Y-48636D01*
G03X171740Y-49189I1392J1392D01*
G02X172074Y-49644I-62J-395D01*
G03X172046Y-50000I2336J-357D01*
G03X174409Y-52363I2363J0D01*
G01X176574D01*
X176609Y-52377D01*
G03X178509I950J2377D01*
G01X178544Y-52363D01*
X179921D01*
G03X182284Y-50000I0J2363D01*
G03X182020Y-48914I-2363J0D01*
G01X181953Y-48784D01*
X185464Y-45273D01*
X185605Y-45408D01*
G03X187508Y-46170I1903J1995D01*
G03X188572Y-45956I0J2757D01*
G03X190157Y-46457I1585J2256D01*
G03X192914Y-43701I0J2757D01*
G03X190638Y-40986I-2757J0D01*
G02X190416Y-40320I70J394D01*
G03X190945Y-38977I-1440J1343D01*
G01Y-38179D01*
G03X191733Y-36417I-1575J1762D01*
G03X191093Y-34800I-2363J0D01*
G01X190960Y-34659D01*
X199424Y-26195D01*
G03X200000Y-24804I-1392J1392D01*
G01Y-19298D01*
G02X200399Y-18898I400J0D01*
G03Y-13385I-6J2757D01*
G02X200000Y-12985I1J400D01*
G01Y-7876D01*
G37*
G36*
G01X205146Y-33465D02*
X216901D01*
X218293Y-34857D01*
G03X219684Y-35433I1392J1392D01*
G01X232256D01*
X244671Y-47849D01*
G03X246062Y-48425I1392J1392D01*
G01X257674D01*
X257710Y-48439D01*
G03X258661Y-48623I952J2376D01*
G03X259613Y-48439I0J2560D01*
G01X259648Y-48425D01*
X261812D01*
G03X263203Y-47849I0J1969D01*
G01X266957Y-44094D01*
X278075D01*
G03X278134Y-44095I61J2362D01*
G03X278193Y-44094I-2J2363D01*
G01X280870D01*
G03X283271I1200J2036D01*
G01X286193D01*
X288189Y-46091D01*
Y-62206D01*
G03X288765Y-63597I1969J0D01*
G01X289946Y-64778D01*
G03X291338Y-65354I1392J1392D01*
G01X303938D01*
G03X305329Y-64778I0J1969D01*
G01X308479Y-61628D01*
G03X309055Y-60237I-1392J1392D01*
G01Y-44488D01*
X318082D01*
X318428Y-44834D01*
X318310Y-44974D01*
G03X317755Y-46496I1808J-1522D01*
G03X319095Y-48626I2363J0D01*
G02X319090Y-49350I-173J-361D01*
G03X317716Y-51496I989J-2146D01*
G03X319072Y-53634I2363J0D01*
G02Y-54358I-170J-362D01*
G03Y-58634I1007J-2138D01*
G02Y-59358I-170J-362D01*
G03Y-63634I1007J-2138D01*
G02Y-64358I-170J-362D01*
G03X317716Y-66496I1007J-2138D01*
G03X318341Y-68097I2363J0D01*
G02X318329Y-68651I-294J-271D01*
G01X313752Y-73228D01*
X304694D01*
G03X302256Y-71759I-2438J-1288D01*
G03X300566Y-72338I0J-2756D01*
G01X300427Y-72446D01*
X297849Y-69868D01*
G03X296457Y-69291I-1392J-1392D01*
G01X285855D01*
X285388Y-68824D01*
X285464Y-68692D01*
G03X285828Y-67323I-2393J1369D01*
G03X283077Y-64566I-2757J0D01*
G02X282678Y-64167I1J400D01*
G03X281576Y-61969I-2757J-6D01*
G01X281496Y-61908D01*
Y-61549D01*
X281603Y-61493D01*
G03X283072Y-59055I-1288J2437D01*
G03X281496Y-56564I-2757J0D01*
G01Y-55806D01*
G03X282678Y-53543I-1575J2263D01*
G01Y-53529D01*
G02X283127Y-53130I400J2D01*
G03X283465Y-53150I339J2736D01*
G03X280708Y-50394I0J2757D01*
G01Y-50408D01*
G02X280259Y-50807I-400J-2D01*
G03X279921Y-50787I-339J-2736D01*
G03X278527Y-51165I0J-2757D01*
G02X277928Y-50766I-202J345D01*
G03X277954Y-50394I-2732J372D01*
G03X272440I-2757J0D01*
G03X272526Y-51076I2757J0D01*
G02X271970Y-51538I-388J-99D01*
G03X270079Y-50787I-1891J-2005D01*
G03X269741Y-50807I1J-2757D01*
G02X269292Y-50408I-49J397D01*
G01Y-50394D01*
G03X263779I-2757J0D01*
G03X264143Y-51762I2757J0D01*
G01X264219Y-51895D01*
X262177Y-53937D01*
X258409D01*
X258372Y-53922D01*
G03X257480Y-53747I-892J-2188D01*
G03X256588Y-53922I0J-2363D01*
G01X256552Y-53937D01*
X255653D01*
X255617Y-53922D01*
G03X254724Y-53747I-892J-2188D01*
G03X253832Y-53922I0J-2363D01*
G01X253796Y-53937D01*
X250815D01*
X249424Y-52545D01*
G03X248032Y-51969I-1392J-1392D01*
G01X236220D01*
G03X235185Y-52263I0J-1968D01*
G01X235051Y-52346D01*
X228348Y-45643D01*
X228344Y-45566D01*
G03X226378Y-43701I-1966J-104D01*
G01X205117D01*
G03X203726Y-44277I0J-1969D01*
G01X201547Y-46457D01*
X200394D01*
Y-38217D01*
X205146Y-33465D01*
G37*
%LPC*%
G75*
G36*
G01X43110Y-51156D02*
G02X44488Y-50787I1378J-2387D01*
G02Y-56300I0J-2757D01*
G02X43110Y-55931I0J2757D01*
G02X41732Y-56300I-1378J2387D01*
G02Y-50787I0J2757D01*
G02X43110Y-51156I0J-2757D01*
G37*
G36*
G01X105652Y-29433D02*
G03Y-28835I-265J299D01*
G02X104724Y-26772I1829J2063D01*
G02X110237I2757J0D01*
G02X109309Y-28835I-2757J0D01*
G03Y-29433I265J-299D01*
G02X110237Y-31496I-1829J-2063D01*
G02X109486Y-33387I-2757J0D01*
G03Y-33936I291J-274D01*
G02X110237Y-35827I-2006J-1891D01*
G02X104724I-2757J0D01*
G02X105474Y-33936I2757J0D01*
G03Y-33387I-291J274D01*
G02X104724Y-31496I2006J1891D01*
G02X105652Y-29433I2757J0D01*
G37*
G36*
G01X175337D02*
G03Y-28835I-265J299D01*
G02X174409Y-26772I1829J2063D01*
G02X179922I2757J0D01*
G02X178994Y-28835I-2757J0D01*
G03Y-29433I265J-299D01*
G02X179922Y-31496I-1829J-2063D01*
G02X179171Y-33387I-2757J0D01*
G03Y-33936I291J-274D01*
G02X179922Y-35827I-2006J-1891D01*
G02X174409I-2757J0D01*
G02X175159Y-33936I2757J0D01*
G03Y-33387I-291J274D01*
G02X174409Y-31496I2006J1891D01*
G02X175337Y-29433I2757J0D01*
G37*
G36*
G01X77864Y-82417D02*
G03Y-82150I-149J133D01*
G02X77165Y-80315I2057J1835D01*
G02X79921Y-77558I2757J0D01*
G02X81757Y-78258I0J-2757D01*
G03X82023I133J149D01*
G02X83858Y-77558I1835J-2057D01*
G02X86615Y-80315I0J-2757D01*
G02X85915Y-82150I-2757J0D01*
G03Y-82417I149J-133D01*
G02X86615Y-84252I-2057J-1835D01*
G02X83858Y-87009I-2757J0D01*
G02X82023Y-86309I0J2757D01*
G03X81757I-133J-149D01*
G02X79921Y-87009I-1835J2057D01*
G02X77165Y-84252I0J2757D01*
G02X77864Y-82417I2757J0D01*
G37*
G36*
G01X189200Y-95281D02*
G03X189502Y-94658I-29J399D01*
G02X188897Y-92677I2938J1981D01*
G02X192441Y-96221I3544J0D01*
G02X191978Y-96191I0J3544D01*
G03X191556Y-96739I-52J-397D01*
G02X191733Y-97638I-2185J-899D01*
G02X189370Y-100001I-2363J0D01*
G02X188462Y-99819I0J2363D01*
G01X188425Y-99804D01*
X187559D01*
X187522Y-99819D01*
G02X186614Y-100001I-908J2182D01*
G02Y-95275I0J2363D01*
G02X187522Y-95456I0J-2363D01*
G01X187559Y-95472D01*
X188425D01*
X188462Y-95456D01*
G02X189200Y-95281I908J-2182D01*
G37*
G36*
G01X168362Y-87069D02*
G03X168515Y-86854I-45J195D01*
G02X168503Y-86614I2351J240D01*
G02X170866Y-84251I2363J0D01*
G02X172024Y-84555I0J-2363D01*
G02X174016Y-83464I1991J-1272D01*
G02X175808Y-84287I0J-2363D01*
G02X177165Y-83857I1358J-1934D01*
G02X179495Y-85826I0J-2363D01*
G02X179528Y-85826I45J-2362D01*
G02X181035Y-86369I0J-2363D01*
G02X182677Y-85826I1643J-2214D01*
G02Y-91339I0J-2757D01*
G02X180540Y-90324I0J2757D01*
G02X179528Y-90552I-1013J2135D01*
G02X177198Y-88583I0J2363D01*
G02X177165Y-88583I-45J2362D01*
G02X175373Y-87761I0J2363D01*
G02X174016Y-88190I-1358J1934D01*
G02X172857Y-87886I0J2363D01*
G02X171402Y-88916I-1992J1272D01*
G03X171248Y-89131I45J-195D01*
G02X171261Y-89370I-2351J-240D01*
G02X166535I-2363J0D01*
G02X168362Y-87069I2363J0D01*
G37*
G36*
G01X80732Y-58202D02*
G02X80183Y-57947I881J2612D01*
G02X78819Y-58308I-1364J2396D01*
G02Y-52794I0J2757D01*
G02X80250Y-53195I0J-2757D01*
G02X81614Y-52834I1364J-2396D01*
G02X83281Y-53395I0J-2757D01*
G02X84528Y-53098I1246J-2460D01*
G02X85919Y-53475I0J-2756D01*
G02X87311Y-53098I1392J-2379D01*
G02X90068Y-55854I0J-2757D01*
G02X88526Y-58329I-2757J0D01*
G02X85827Y-60524I-2699J561D01*
G02X84628Y-60250I0J2757D01*
G02X83453Y-60513I-1174J2494D01*
G02X80732Y-58202I0J2757D01*
G37*
G36*
G01X289557Y-103585D02*
G02X287794Y-101299I600J2285D01*
G02X292520I2363J0D01*
G02X291431Y-103290I-2363J0D01*
G03X291545Y-104014I216J-337D01*
G02X293308Y-106299I-600J-2285D01*
G02X288582I-2363J0D01*
G02X289672Y-104309I2363J0D01*
G03X289557Y-103585I-216J337D01*
G37*
G36*
G01X119684Y-78741D02*
Y-66141D01*
X135434D01*
Y-69427D01*
G03X135937Y-69813I400J0D01*
G02X136650Y-69720I713J-2663D01*
G02Y-75233I0J-2757D01*
G02X135937Y-75139I0J2757D01*
G03X135434Y-75526I-104J-386D01*
G01Y-78741D01*
X133164D01*
G03X132987Y-79500I0J-400D01*
G02X134961Y-82677I-1570J-3178D01*
G02X127873I-3544J0D01*
G02X129848Y-79500I3544J0D01*
G03X129670Y-78741I-177J359D01*
G01X119684D01*
G37*
G36*
G01X244882Y-76191D02*
G02X246457Y-75590I1575J-1762D01*
G02Y-80316I0J-2363D01*
G02X244882Y-79715I0J2363D01*
G02X243307Y-80316I-1575J1762D01*
G02Y-75590I0J2363D01*
G02X244882Y-76191I0J-2363D01*
G37*
G36*
G01X167152Y-55504D02*
G02X162770I-2191J1672D01*
G02X160235Y-52756I222J2748D01*
G02X162992Y-49999I2757J0D01*
G02X164828Y-50699I0J-2757D01*
G03X165094I133J149D01*
G02X166929Y-49999I1835J-2057D01*
G02X169686Y-52756I0J-2757D01*
G02X167152Y-55504I-2757J0D01*
G37*
G36*
G01X264047Y-34208D02*
G03X264061Y-33930I-137J146D01*
G02X263477Y-32375I1779J1556D01*
G02X268203I2363J0D01*
G02X267691Y-33844I-2363J0D01*
G03X267717Y-34121I156J-125D01*
G02X268688Y-36220I-1786J-2100D01*
G02X263174I-2757J0D01*
G02X264047Y-34208I2757J0D01*
G37*
G36*
G01X284507Y-30198D02*
G03X284541Y-29924I-127J154D01*
G02X284078Y-28519I1900J1405D01*
G02X288804I2363J0D01*
G02X287941Y-30345I-2363J0D01*
G03X287908Y-30618I127J-154D01*
G02X288371Y-32023I-1900J-1405D01*
G02X283645I-2363J0D01*
G02X284507Y-30198I2363J0D01*
G37*
G36*
G01X273287Y-18330D02*
G03X273004Y-18310I-152J-130D01*
G02X271443Y-18898I-1561J1775D01*
G02Y-14172I0J2363D01*
G02X273004Y-14761I0J-2363D01*
G03X273287Y-14741I132J150D01*
G02X275380Y-13779I2093J-1794D01*
G02Y-19292I0J-2757D01*
G02X273287Y-18330I0J2756D01*
G37*
G36*
G01X217947Y-15310D02*
G03Y-14611I-195J349D01*
G02X216535Y-12205I1345J2407D01*
G02X222048I2757J0D01*
G02X220636Y-14611I-2757J0D01*
G03Y-15310I195J-349D01*
G02X222048Y-17717I-1345J-2407D01*
G02X216535I-2757J0D01*
G02X217947Y-15310I2757J0D01*
G37*
G54D25*
X35827Y-21142D03*
X48425D03*
X42126Y-27441D03*
Y-14843D03*
G54D23*
X34646Y-58661D03*
X43307Y-43701D03*
X110276Y-95079D03*
X96457Y-60630D03*
X111378Y-62638D03*
X104331Y-60236D03*
X315394Y-13740D03*
X265748Y-87902D03*
X274220Y-76169D03*
X270283Y-79713D03*
X302362Y-26772D03*
G54D24*
X20472Y-44094D03*
X99606Y-24016D03*
X114961D03*
X169291D03*
X184843D03*
X84252Y-16142D03*
X153937Y-16535D03*
X244882Y-106102D03*
X265854Y-101862D03*
X337795Y-83858D03*
X148461Y-72457D03*
X209484Y-72441D03*
X236811Y-24803D03*
Y-13386D03*
G54D22*
X39764Y-64961D03*
G54D21*
X60236Y-103937D03*
G54D26*
X131417Y-92677D03*
X141417D03*
X151417D03*
X161417D03*
X202441D03*
X212441D03*
X222441D03*
X141417Y-82677D03*
X151417D03*
X202441D03*
X212441D03*
G54D20*
X42913Y-103937D03*
%LPD*%
G75*
G54D10*
X11811Y-106299D03*
Y-11811D03*
X342520Y-106299D03*
Y-11811D03*
G54D11*
G01X174409Y-50000D02*
X177559D01*
G01D02*
X179921D01*
X20472Y-44094D03*
X34646Y-58661D03*
X41732Y-53543D03*
X44488D03*
X43307Y-43701D03*
X58268Y-44094D03*
X65236Y-57165D03*
X68425Y-57283D03*
X69843Y-55315D03*
X66811Y-55276D03*
X63740Y-55157D03*
X70079Y-64567D03*
X65354Y-44094D03*
X61811Y-40945D03*
X64567Y-24016D03*
X67717Y-27559D03*
X64567Y-31102D03*
X79921Y-84252D03*
Y-80315D03*
X78819Y-55551D03*
X78846Y-46457D03*
Y-49213D03*
Y-43307D03*
Y-40551D03*
Y-37795D03*
Y-35146D03*
X88189Y-108555D03*
X84252Y-108661D03*
X88189Y-105906D03*
X84252D03*
X83858Y-84252D03*
Y-80315D03*
X81890Y-82283D03*
X87008Y-69685D03*
X81614Y-55591D03*
X84528Y-55854D03*
X85827Y-57768D03*
X83453Y-57756D03*
X87311Y-55854D03*
X82283Y-42520D03*
X85827D03*
X84252Y-16142D03*
X92520Y-108661D03*
X96457D03*
X100000D03*
Y-105906D03*
X96457D03*
X92520D03*
X102756Y-81102D03*
X92913Y-67323D03*
X93413Y-55012D03*
X97531D03*
X96457Y-60630D03*
X93413Y-52075D03*
X95276Y-53543D03*
X97531Y-52362D03*
X97244Y-42913D03*
X94488D03*
X95669Y-36417D03*
X99606Y-24016D03*
X95276Y-24803D03*
Y-28346D03*
Y-21654D03*
X99213Y-10236D03*
X110276Y-95079D03*
X105512Y-78346D03*
X108661Y-84646D03*
X111811Y-57480D03*
X104331Y-60236D03*
X111378Y-62638D03*
X105118Y-49606D03*
X110630D03*
X107480Y-35827D03*
X113386Y-42891D03*
X107480Y-31496D03*
Y-26772D03*
X108268Y-13780D03*
X105118Y-10236D03*
X111024D03*
X120472Y-54331D03*
X118610Y-56193D03*
X122441Y-56299D03*
X122335Y-52362D03*
X118610D03*
X120866Y-43307D03*
X118610Y-42626D03*
X119685Y-36417D03*
X114961Y-24016D03*
X120866Y-27953D03*
Y-24803D03*
Y-21654D03*
X116929Y-10236D03*
X125591Y-100000D03*
Y-102756D03*
Y-97244D03*
X133858Y-42520D03*
X130315D03*
X131496Y-16535D03*
X136650Y-72476D03*
X142913Y-58268D03*
X137402Y-42913D03*
X139370Y-37795D03*
X136220D03*
Y-35146D03*
X139370D03*
Y-40157D03*
X136220D03*
X148461Y-72457D03*
X150000Y-58268D03*
X149713Y-47244D03*
X149697Y-35827D03*
Y-39370D03*
X154331Y-41248D03*
X155906Y-43307D03*
X152362Y-42913D03*
X149713D03*
X153937Y-16535D03*
X158291Y-104224D03*
X164961Y-53831D03*
X166929Y-52756D03*
X162992D03*
X166535Y-42520D03*
X164173Y-43307D03*
X157874Y-41339D03*
X164961Y-36417D03*
Y-27719D03*
Y-24803D03*
Y-21654D03*
X168898Y-89370D03*
X170866Y-86614D03*
X177165Y-86220D03*
X174016Y-85827D03*
X174409Y-50000D03*
X177165Y-35827D03*
Y-31496D03*
Y-26772D03*
X169291Y-24016D03*
X168504Y-10630D03*
X174016D03*
X186614Y-97638D03*
X182677Y-88583D03*
X179528Y-88189D03*
X187402Y-52362D03*
X179921Y-50000D03*
X187508Y-43413D03*
X182677Y-42626D03*
X184843Y-24016D03*
X185039Y-10630D03*
X179528D03*
X195709Y-104224D03*
X189370Y-97638D03*
X197673Y-72476D03*
X189370Y-53831D03*
X191339Y-52362D03*
X190157Y-43701D03*
X197761Y-42396D03*
X189370Y-36417D03*
X190157Y-28740D03*
Y-25591D03*
Y-22047D03*
X209484Y-72441D03*
X199742Y-58526D03*
X203937Y-58268D03*
X205799Y-40157D03*
X203543Y-42520D03*
X200787Y-43307D03*
X205906Y-37402D03*
Y-35039D03*
X200394Y-16142D03*
X211024Y-58268D03*
X218110Y-46850D03*
X212598D03*
X219331Y-23189D03*
X219291Y-17717D03*
Y-12205D03*
X228307Y-100039D03*
X228346Y-97638D03*
Y-102362D03*
X230709Y-12205D03*
X240551Y-65748D03*
X240945Y-48031D03*
X236811Y-24803D03*
Y-13386D03*
X244882Y-106102D03*
Y-97622D03*
X251969Y-97244D03*
X250787Y-100000D03*
X248979Y-87008D03*
X246850Y-84880D03*
X246457Y-77953D03*
X243307D03*
X250787Y-72441D03*
X243307Y-50394D03*
X251181Y-24803D03*
X244094Y-13386D03*
X259843Y-97244D03*
X255906Y-97638D03*
X253937Y-78543D03*
X257087Y-73622D03*
X260236D03*
X257480Y-56110D03*
X254724D03*
X253937Y-62016D03*
X257087Y-60047D03*
X258661Y-46063D03*
X259843Y-43701D03*
X253150Y-41732D03*
X254331Y-38583D03*
X265854Y-101862D03*
X265748Y-87902D03*
X270283Y-79713D03*
X274220Y-76169D03*
X266929Y-67323D03*
X270079Y-64173D03*
X269685Y-59055D03*
X270079Y-53543D03*
X266535Y-50394D03*
X265931Y-36220D03*
X265840Y-32375D03*
X271443Y-16535D03*
X278346Y-94882D03*
X285039Y-80315D03*
X282094Y-78740D03*
X275197Y-67717D03*
X283071Y-67323D03*
X279921Y-64173D03*
X275197Y-54724D03*
Y-63386D03*
X280315Y-59055D03*
X275197D03*
X279921Y-53543D03*
X275197Y-50394D03*
X283465D03*
X278134Y-41732D03*
X280102Y-39370D03*
X282071Y-42059D03*
X275380Y-16535D03*
X290157Y-101299D03*
X290945Y-106299D03*
X291732Y-91732D03*
X289370Y-76378D03*
X292520Y-74803D03*
X293165Y-60094D03*
X292772Y-54189D03*
X286008Y-32023D03*
X286441Y-28519D03*
X294882Y-22835D03*
X295276Y-13780D03*
X289724Y-17756D03*
X301181Y-101299D03*
X301862Y-91299D03*
Y-96299D03*
X296063Y-94882D03*
X299926Y-75911D03*
X300000Y-78346D03*
X302256Y-74516D03*
X299213Y-61811D03*
X301378Y-59646D03*
X296315Y-60094D03*
X305512Y-44488D03*
X303150Y-47244D03*
X296063Y-54189D03*
Y-33071D03*
X302362Y-26772D03*
X304331Y-10630D03*
X311524Y-91299D03*
X306693Y-88189D03*
X314173Y-94488D03*
X315478Y-87278D03*
X312205Y-68898D03*
X316535D03*
X315748Y-48031D03*
X312205D03*
X309843Y-24016D03*
X316535Y-29134D03*
X314567Y-22835D03*
X315394Y-13740D03*
X309843Y-10630D03*
X317717Y-97638D03*
X325984Y-97350D03*
X327559Y-99500D03*
X324909D03*
X321260Y-94488D03*
X318398Y-87402D03*
X318110Y-84252D03*
X324409Y-83858D03*
X320079Y-66496D03*
Y-56496D03*
Y-61496D03*
X320118Y-46496D03*
X320079Y-51496D03*
X320197Y-36496D03*
X320236Y-41496D03*
X320472Y-26772D03*
X320079Y-31496D03*
X324409Y-9843D03*
X329134Y-97350D03*
X330209Y-99500D03*
X337795Y-83858D03*
X329528D03*
X334933Y-66496D03*
Y-71496D03*
Y-56496D03*
Y-61496D03*
X329921Y-26772D03*
X335433D03*
X332283Y-21224D03*
X329921Y-10236D03*
X344776Y-91339D03*
X343307Y-93701D03*
X344776Y-96063D03*
X344094Y-88976D03*
Y-83858D03*
G54D12*
X39764Y-64961D03*
G54D13*
X35827Y-21142D03*
X42126Y-27441D03*
X48425Y-21142D03*
X42126Y-14843D03*
G54D14*
X42913Y-103937D03*
X60236D03*
G54D15*
X127559Y-112992D03*
Y-72441D03*
X165354Y-112992D03*
Y-72441D03*
X188583Y-112992D03*
Y-72441D03*
X226378Y-112992D03*
Y-72441D03*
G54D16*
X131417Y-92677D03*
Y-82677D03*
X141417Y-92677D03*
Y-82677D03*
X151417Y-92677D03*
Y-82677D03*
X161417Y-92677D03*
Y-82677D03*
X192441Y-92677D03*
Y-82677D03*
X202441Y-92677D03*
Y-82677D03*
X212441Y-92677D03*
Y-82677D03*
X222441Y-92677D03*
Y-82677D03*
G54D17*
G01X64567Y-31102D02*
X65654Y-30015D01*
Y-29621D01*
X67717Y-27559D01*
G01X64567Y-24016D02*
X65654Y-25103D01*
Y-25497D01*
X67717Y-27559D01*
G01X78846Y-35146D02*
Y-33608D01*
X79134Y-33320D01*
G03Y-29528I-1896J1896D01*
G01X78895Y-29289D01*
G03X74719Y-27559I-4176J-4176D01*
G01X67717D01*
G01X125591Y-97244D02*
X124704D01*
G03X123593Y-97704I0J-1571D01*
G01X123265Y-98031D01*
G02X120866I-1200J1200D01*
G01X115116Y-92281D01*
G02X113386Y-88105I4176J4176D01*
G01Y-77643D01*
G03X111656Y-73467I-5906J0D01*
G01X108029Y-69840D01*
G03X103853Y-68110I-4176J-4176D01*
G01X102840D01*
G02X98664Y-66380I0J5906D01*
G01X97793Y-65509D01*
G03X93617Y-63780I-4176J-4176D01*
G01X74909D01*
X74409Y-63280D01*
Y-56096D01*
G02X76139Y-51920I5906J0D01*
G01X78846Y-49213D01*
G01Y-43307D02*
Y-46457D01*
G01D02*
Y-49213D01*
G01Y-37795D02*
Y-40551D01*
G01Y-35146D02*
Y-37795D01*
G01Y-40551D02*
Y-43307D01*
G01D02*
X80709D01*
X81496Y-42520D01*
X82283D01*
G01D02*
X85827D01*
G01X125591Y-102756D02*
Y-100000D01*
G01D02*
Y-97244D01*
G01X144488Y-100000D02*
X125591D01*
G01X142913Y-58268D02*
X145669Y-61024D01*
G02Y-69291I-4134J-4134D01*
G01X143701Y-71260D01*
G03Y-75197I1969J-1969D01*
G01X145120Y-76617D01*
G02X146850Y-80793I-4176J-4176D01*
G01Y-96757D01*
G02X146228Y-98261I-2126J0D01*
G01X144488Y-100000D01*
G01D02*
X167739D01*
G02X170389Y-101098I0J-3748D01*
G01X171654Y-102362D01*
G01X142913Y-58268D02*
X150000D01*
G01X149697Y-39370D02*
Y-45691D01*
X149713Y-45706D01*
Y-47244D01*
G01X149697Y-35827D02*
Y-39370D01*
G01X149713Y-42913D02*
X152362D01*
G01X154331Y-41248D02*
X156246D01*
X156336Y-41339D01*
X157874D01*
G01X154331Y-41248D02*
X154028D01*
X152362Y-42913D01*
G01D02*
X153974D01*
X154206Y-43145D01*
G03X154596Y-43307I391J390D01*
G01X155906D01*
G01X189370Y-97638D02*
X186614D01*
G01X200787Y-43307D02*
X199198D01*
G02X198300Y-42935I0J1270D01*
G01X197761Y-42396D01*
G01X205197Y-106299D02*
X211457Y-100039D01*
G01X211024Y-58268D02*
Y-60748D01*
G02X209437Y-64579I-5418J0D01*
G01X205118Y-68898D01*
G03Y-76772I3937J-3937D01*
G01X206186Y-77839D01*
G02X207087Y-80014I-2175J-2175D01*
G01Y-93223D01*
G03X208817Y-97399I5906J0D01*
G01X211457Y-100039D01*
G01X211024Y-58268D02*
X203937D01*
G01X205906Y-35039D02*
Y-37402D01*
G01D02*
Y-40051D01*
X205799Y-40157D01*
G01D02*
X204712Y-41245D01*
Y-41351D01*
X203543Y-42520D01*
G01D02*
X201575D01*
X200787Y-43307D01*
G01X240945Y-48031D02*
X234801Y-41887D01*
G03X230624Y-40157I-4176J-4176D01*
G01X205799D01*
G01X211457Y-100039D02*
X228307D01*
G01X228346Y-102362D02*
Y-100079D01*
X228307Y-100039D01*
G01D02*
Y-97677D01*
X228346Y-97638D01*
G01X324909Y-99500D02*
Y-101038D01*
X324803Y-101144D01*
Y-101181D01*
G02X322047Y-103937I-2756J0D01*
G01X297244D01*
G02X295276Y-101969I0J1969D01*
G01Y-100000D01*
G03X291339Y-96063I-3937J0D01*
G01X286698D01*
G03X282522Y-97793I0J-5906D01*
G01X276533Y-103782D01*
G02X272357Y-105512I-4176J4176D01*
G01X252503D01*
G02X248902Y-104020I0J5092D01*
G01X248735Y-103854D01*
G03X245135Y-102362I-3600J-3600D01*
G01X242863D01*
G02X240261Y-101284I0J3680D01*
G01X240094Y-101117D01*
G03X237491Y-100039I-2602J-2602D01*
G01X228307D01*
G01X240945Y-48031D02*
X243307Y-50394D01*
G01X246850Y-84880D02*
X248979Y-87008D01*
G01X291732Y-91732D02*
X289131Y-89131D01*
G03X284955Y-87402I-4176J-4176D01*
G01X274494D01*
G02X270317Y-85672I0J5906D01*
G01X269053Y-84407D01*
G03X264876Y-82677I-4176J-4176D01*
G01X261108D01*
G03X256931Y-84407I0J-5906D01*
G01X256061Y-85278D01*
G02X251884Y-87008I-4176J4176D01*
G01X248979D01*
G01D02*
Y-84578D01*
G02X249740Y-82740I2599J0D01*
G01X253937Y-78543D01*
G01D02*
G03X253591Y-77708I-1181J0D01*
G01X251181Y-75298D01*
Y-74713D01*
X250787Y-74319D01*
Y-72441D01*
G01X312205Y-68898D02*
X303243D01*
G02X301068Y-67997I0J3076D01*
G01X300901Y-67830D01*
G03X298726Y-66929I-2175J-2175D01*
G01X293307D01*
G02X287402Y-61024I0J5906D01*
G01Y-52362D01*
G03X281496Y-46457I-5906J0D01*
G01X267801D01*
G03X263624Y-48187I0J-5906D01*
G01X263147Y-48664D01*
G02X258971Y-50394I-4176J4176D01*
G01X243307D01*
G01X282094Y-78740D02*
X282830D01*
G02X283914Y-79189I0J-1533D01*
G01X285039Y-80315D01*
G01X289370Y-84646D02*
X285039Y-80315D01*
G01X291732Y-91732D02*
Y-87889D01*
G03X291109Y-86385I-2126J0D01*
G01X289370Y-84646D01*
G01D02*
X312794D01*
G02X313873Y-85093I0J-1526D01*
G01X314390Y-85610D01*
G01X292772Y-54189D02*
X296063D01*
G01X289724Y-17756D02*
X290812Y-18843D01*
X290891D01*
X294882Y-22835D01*
G01X314567D02*
Y-24803D01*
G02X312205Y-27165I-2362J0D01*
G01X309927D01*
G02X305750Y-25435I0J5906D01*
G01X304880Y-24565D01*
G03X300703Y-22835I-4176J-4176D01*
G01X294882D01*
G01D02*
Y-24144D01*
G02X294720Y-24534I-552J0D01*
G01X294488Y-24766D01*
G03Y-26378I806J-806D01*
G01X294956Y-26846D01*
G02X296063Y-29518I-2672J-2672D01*
G01Y-33071D01*
G01Y-54189D02*
Y-33071D01*
G01X324409Y-17028D02*
X306791D01*
G02X304331Y-14567I0J2461D01*
G01Y-10630D01*
G01X315478Y-87278D02*
X316504Y-88304D01*
G03X316949Y-88489I446J446D01*
G01X317049D01*
G03X317495Y-88304I0J630D01*
G01X318398Y-87402D01*
G01X315478Y-87278D02*
X314561Y-86361D01*
G02X314390Y-85950I411J411D01*
G01Y-85610D01*
G01D02*
X315104Y-84896D01*
G02X316658Y-84252I1554J-1554D01*
G01X318110D01*
G01X312205Y-68898D02*
Y-48031D01*
G01X316535Y-68898D02*
X312205D01*
G01X315748Y-48031D02*
X312205D01*
G01X325591Y-26772D02*
X325197D01*
X322990Y-24565D01*
G03X318813Y-22835I-4176J-4176D01*
G01X314567D01*
G01X324909Y-99500D02*
X327559D01*
G01D02*
X330209D01*
G01X324909D02*
Y-98425D01*
X325984Y-97350D01*
G01X329134D02*
X327559Y-98925D01*
G01D02*
X325984Y-97350D01*
G01X327559Y-98925D02*
Y-99500D01*
G01X325984Y-97350D02*
X329134D01*
G01X325591Y-26772D02*
X326772Y-27953D01*
Y-65241D01*
G02X324465Y-70811I-7877J0D01*
G01X319840Y-75435D01*
G03X318110Y-79612I4176J-4176D01*
G01Y-84252D01*
G01X324409Y-83858D02*
X329528D01*
G01X329921Y-26772D02*
X325591D01*
G01X324409Y-9843D02*
Y-17028D01*
G01D02*
X332776D01*
G02X336761Y-21013I0J-3985D01*
G01Y-24622D01*
G02X336180Y-26024I-1983J0D01*
G01X335433Y-26772D01*
G01X330209Y-99500D02*
Y-98425D01*
X329134Y-97350D01*
G01X329528Y-83858D02*
Y-95419D01*
X329134Y-95813D01*
Y-97350D01*
G01X329528Y-83858D02*
X329921D01*
X339215Y-74565D01*
G03X340945Y-70388I-4176J4176D01*
G01Y-34730D01*
G03X339215Y-30554I-5906J0D01*
G01X335433Y-26772D01*
G54D18*
G01X98622Y-18307D02*
X91732Y-11417D01*
X64173D01*
X57874Y-17717D01*
Y-26378D01*
X50394Y-33858D01*
Y-46457D01*
X53150Y-49213D01*
X64961D01*
X66811Y-51063D01*
Y-55276D01*
G01X63740Y-55157D02*
X66693D01*
X66811Y-55276D01*
G01D02*
X69803D01*
X69843Y-55315D01*
G01X68425Y-57283D02*
Y-56732D01*
X69843Y-55315D01*
G01X65236Y-57165D02*
Y-56654D01*
X63740Y-55157D01*
G01X65236Y-57165D02*
X66442Y-58371D01*
X67338D01*
X68425Y-57283D01*
G01X105118Y-49606D02*
Y-42913D01*
X101771Y-39567D01*
Y-34842D01*
X95276Y-28346D01*
G01Y-21654D02*
Y-24803D01*
G01D02*
Y-28346D01*
G01Y-21654D02*
X98622Y-18307D01*
G01D02*
X98819Y-18110D01*
X106693D01*
X108268Y-16535D01*
G01X110630Y-49606D02*
X105118D01*
G01Y-10236D02*
X106206Y-11324D01*
Y-11717D01*
X108268Y-13780D01*
G01X111024Y-10236D02*
X109936Y-11324D01*
Y-12111D01*
X108268Y-13780D01*
G01X117197Y-16535D02*
X108268D01*
G01D02*
Y-13780D01*
G01X120866Y-21654D02*
Y-24803D01*
G01D02*
Y-27953D01*
G01Y-21654D02*
Y-19685D01*
X117717Y-16535D01*
X117197D01*
G01D02*
X121922Y-11811D01*
X157874D01*
X160343Y-14280D01*
X163780D01*
G01X137402Y-49213D02*
X134933D01*
G02X130315Y-44594I0J4618D01*
G01Y-42520D01*
G01D02*
X133858D01*
G01D02*
X136220Y-40157D01*
G01X137402Y-42913D02*
Y-49213D01*
G01D02*
X138891Y-50702D01*
G03X141949Y-51969I3058J3058D01*
G01X147441D01*
G02X154401Y-54852I0J-9843D01*
G01X158477Y-58928D01*
G03X165437Y-61811I6960J6960D01*
G01X185574D01*
G03X192535Y-58928I0J9843D01*
G01X197398Y-54064D01*
G02X204359Y-51181I6960J-6960D01*
G01X219545D01*
G02X226505Y-54064I0J-9843D01*
G01X227826Y-55385D01*
G03X234786Y-58268I6960J6960D01*
G01X239230D01*
G02X246190Y-61151I0J-9843D01*
G01X251244Y-66205D01*
G03X252992Y-66929I1748J1747D01*
G01X254331D01*
G01X139370Y-37795D02*
Y-40157D01*
G01Y-35146D02*
Y-37795D01*
G01X136220D02*
Y-40157D01*
G01Y-35146D02*
Y-37795D01*
G01X137402Y-42913D02*
X138939D01*
X139370Y-42483D01*
Y-40157D01*
G01X136220Y-35146D02*
X139370D01*
G01X219331Y-23189D02*
X211557D01*
G03X204597Y-26072I0J-9843D01*
G01X199611Y-31058D01*
G02X196654Y-32283I-2958J2957D01*
G01X196457D01*
G03X194094Y-34646I0J-2362D01*
G01Y-45669D01*
G02X192126Y-47638I-1969J0D01*
G01X186109D01*
G03X183465Y-50282I0J-2644D01*
G01Y-53543D01*
G02X180315Y-56693I-3150J0D01*
G01X172441D01*
G02X170472Y-54724I0J1969D01*
G01Y-51494D01*
G03X167797Y-48819I-2675J0D01*
G01X157087D01*
X155906Y-47638D01*
Y-43307D01*
G01X164961Y-21654D02*
Y-24803D01*
G01D02*
Y-27719D01*
G01X174409Y-40551D02*
X170079Y-36220D01*
Y-32837D01*
X164961Y-27719D01*
G01X176878Y-14280D02*
X163780D01*
G01D02*
X164961Y-15461D01*
Y-21654D01*
G01X174409Y-40551D02*
X177559Y-43701D01*
G01D02*
Y-50000D01*
G01X190157Y-28740D02*
X186220D01*
X183465Y-31496D01*
Y-36614D01*
X179528Y-40551D01*
X174409D01*
G01X179028Y-14280D02*
X176878D01*
G01D02*
X176378Y-13780D01*
Y-12992D01*
X174016Y-10630D01*
G01X179528D02*
Y-13780D01*
X179028Y-14280D01*
G01D02*
X179709Y-14961D01*
X184646D01*
X190157Y-20472D01*
Y-22047D01*
G01Y-28740D02*
Y-25591D01*
G01D02*
Y-22047D01*
G01X230709Y-16929D02*
X226119Y-21519D01*
G02X222087Y-23189I-4033J4032D01*
G01X219331D01*
G01X230709Y-16929D02*
X238243D01*
G03X242184Y-15296I0J5574D01*
G01X244094Y-13386D01*
G01X230709Y-12205D02*
Y-16929D01*
G01X251181Y-24803D02*
Y-22441D01*
G03X249789Y-19080I-4752J0D01*
G01X244094Y-13386D01*
G01X254331Y-28989D02*
G03X253598Y-27220I-2501J0D01*
G01X251181Y-24803D01*
G01X257087Y-73622D02*
X260236D01*
G01X254331Y-66929D02*
X257349D01*
G02X261422Y-68617I0J-5761D01*
G01X261703Y-68897D01*
G02Y-72155I-1629J-1629D01*
G01X260236Y-73622D01*
G01X257087D02*
Y-70598D01*
G03X256441Y-69039I-2205J0D01*
G01X254331Y-66929D01*
G01X259843Y-43701D02*
X258755Y-42613D01*
X258361D01*
X254331Y-38583D01*
G01X258661Y-46063D02*
Y-45422D01*
G02X259044Y-44500I1305J0D01*
G01X259843Y-43701D01*
G01X254331Y-38583D02*
Y-28989D01*
G01X296063Y-33071D02*
X295987Y-33146D01*
G02X292368Y-34646I-3619J3619D01*
G01X279528D01*
Y-33071D01*
G03X272047Y-25591I-7480J0D01*
G01X257729D01*
X254331Y-28989D01*
G54D19*
G01X250787Y-72441D02*
X241339D01*
G02X240551Y-71654I0J787D01*
G01Y-65748D01*
M02*
